<?xml version="1.0" encoding="UTF-8"?>
<!-- Title: 7. EU 1995 1-neighbors (58) -->
<!-- Creator: Pajek 5.19: http://mrvar.fdv.uni-lj.si/pajek -->
<!-- CreationDate: 05-25-2024, 3:03:30 -->
<svg xml:space="preserve" viewBox="0 0 1072 919" xmlns="http://www.w3.org/2000/svg" xmlns:xlink="http://www.w3.org/1999/xlink" xmlns:inkscape="http://www.inkscape.org/namespaces/inkscape">
<title>7. EU 1995 1-neighbors (58)</title>
<g inkscape:groupmode="layer" id="PajekSig" inkscape:label="PajekSignature">
<g transform="translate(3 901)">
<g transform="scale(0.1)">
<g transform="matrix(1 0 0 -1 0 96)">
<path d="M   7.67  49.98 L  31.76  72.76 L  46.91  78.63
         L  57.23  80.49 M  72.86  65.23 L  65.73  83.25
         L  57.06  75.49 L  56.75  68.65 M  76.27  68.03
         L  75.65  84.50 L  93.92  91.02 L 107.24  74.87
         M  80.29  67.72 L  89.28  84.81 L 104.77  81.70
         L 116.23  73.31 L 121.18  59.33 M  56.75  81.08
         L  71.31  64.30"
         style="fill:none; stroke:saddlebrown; stroke-width:5;"/>
<path d="M  86.18  70.21 L  91.45  73.00 L  95.78  69.58
         M  91.14  60.88 L  96.09  62.75 L  98.26  59.33"
         style="fill:none; stroke:saddlebrown; stroke-width:1.5;"/>
<path d="M  81.07  49.08 L  87.81  49.08 L  93.30  54.38
         L  93.30  60.88 L  93.30  67.39 L  87.81  72.69
         L  81.07  72.69 L  74.33  72.69 L  68.83  67.39
         L  68.83  60.88 L  68.83  54.38 L  74.33  49.08
         L  81.07  49.08 z"
         style="fill:maroon; stroke:saddlebrown; stroke-width:1;"/>
<path d="M  54.63  37.53 L  68.53  43.56 L  75.39  55.85
         L  69.90  65.35 L  64.41  72.86 L  48.60  74.06
         L  34.71  68.04 L  20.81  55.02 L  15.95  40.72
         L  17.44  33.22 L  24.92  28.72 L  40.73  30.51
         L  54.63  37.53 z"
         style="fill:maroon; stroke:saddlebrown; stroke-width:1;" />
<path d="M  77.82  50.63 L 103.84  59.33 L 131.10  43.80
         L 139.46  27.95 L 139.15  15.83 M  35.99   5.27
         L  47.15  32.92 L  61.71  50.01 L  70.07  46.90
         L  82.77  45.04 L  83.39  27.02 L  65.42  12.11
         M  68.52  50.63 L  91.14  49.39 L 103.53  43.17
         L 117.16  22.67 L 115.30   8.38"
         style="fill:none; stroke:saddlebrown; stroke-width:5;"/>
<path d="M  41.57  54.98 L  60.16  64.61 M  52.41  66.17
         L  57.99  57.47"
         style="fill:none; stroke:white; stroke-width:5;"/>
</g>
</g>
<animateMotion dur="20s" path="M3 0 L1054 0" begin="120s" fill="freeze"/>
</g>
<g transform="translate(3 901)">
<g transform="scale(0.1)">
<text x="5" y="140" style="font-family:Brush Script MT;font-size:75px;fill:green;">Pajek</text>
</g>
<animateMotion dur="0.1s" path="M3 0 L1054 0" begin="120s" fill="freeze"/>
</g>
</g>      <!-- Layer Signature -->

<g inkscape:groupmode="layer" id="PajekNet" inkscape:label="PajekNetwork">

<!-- Arc:     2   29 -->
<g transform="translate(292.62 168.71)">
<g transform="rotate(383.59)">
<path d="M 0 0 L -1.70 4.24 L 8.48 0 L -1.70 -4.24 z" style="fill:rgb(153,153,153)"/>
</g></g>
<line x1="212.17" y1="133.58" x2="292.62" y2="168.71" style="stroke-width:2.61;stroke:rgb(153,153,153)"/>
<!-- Arc:     4   47 -->
<g transform="translate(721.17 410.36)">
<g transform="rotate(496.94)">
<path d="M 0 0 L -2.82 7.04 L 14.08 0 L -2.82 -7.04 z" style="fill:rgb(153,153,153)"/>
</g></g>
<line x1="789.79" y1="346.23" x2="721.17" y2="410.36" style="stroke-width:4.33;stroke:rgb(153,153,153)"/>
<!-- Arc:     5   20 -->
<g transform="translate(574.90 386.14)">
<g transform="rotate(531.65)">
<path d="M 0 0 L -4.97 12.41 L 24.83 0 L -4.97 -12.41 z" style="fill:rgb(153,153,153)"/>
</g></g>
<line x1="628.38" y1="378.29" x2="574.90" y2="386.14" style="stroke-width:7.64;stroke:rgb(153,153,153)"/>
<!-- Arc:     6   56 -->
<g transform="translate(176.28 273.45)">
<g transform="rotate(382.52)">
<path d="M 0 0 L -2.45 6.13 L 12.26 0 L -2.45 -6.13 z" style="fill:rgb(153,153,153)"/>
</g></g>
<line x1="114.71" y1="247.92" x2="176.28" y2="273.45" style="stroke-width:3.77;stroke:rgb(153,153,153)"/>
<!-- Arc:     7   47 -->
<g transform="translate(728.20 444.51)">
<g transform="rotate(205.51)">
<path d="M 0 0 L -3.25 8.14 L 16.27 0 L -3.25 -8.14 z" style="fill:rgb(153,153,153)"/>
</g></g>
<line x1="799.94" y1="478.73" x2="728.20" y2="444.51" style="stroke-width:5.01;stroke:rgb(153,153,153)"/>
<!-- Arc:     8   18 -->
<g transform="translate(632.86 233.41)">
<g transform="rotate(519.15)">
<path d="M 0 0 L -5.00 12.51 L 25.01 0 L -5.00 -12.51 z" style="fill:rgb(153,153,153)"/>
</g></g>
<line x1="712.64" y1="203.03" x2="632.86" y2="233.41" style="stroke-width:7.70;stroke:rgb(153,153,153)"/>
<!-- Arc:     9   11 -->
<g transform="translate(479.10 563.00)">
<g transform="rotate(287.49)">
<path d="M 0 0 L -1.55 3.88 L 7.76 0 L -1.55 -3.88 z" style="fill:rgb(153,153,153)"/>
</g></g>
<line x1="457.83" y1="630.48" x2="479.10" y2="563.00" style="stroke-width:2.39;stroke:rgb(153,153,153)"/>
<!-- Arc:    10   20 -->
<g transform="translate(557.45 365.96)">
<g transform="rotate(491.07)">
<path d="M 0 0 L -3.76 9.39 L 18.78 0 L -3.76 -9.39 z" style="fill:rgb(153,153,153)"/>
</g></g>
<line x1="597.92" y1="319.51" x2="557.45" y2="365.96" style="stroke-width:5.78;stroke:rgb(153,153,153)"/>
<!-- Arc:    11   20 -->
<g transform="translate(524.76 422.85)">
<g transform="rotate(288.09)">
<path d="M 0 0 L -3.37 8.43 L 16.87 0 L -3.37 -8.43 z" style="fill:rgb(153,153,153)"/>
</g></g>
<line x1="486.26" y1="540.71" x2="524.76" y2="422.85" style="stroke-width:5.19;stroke:rgb(153,153,153)"/>
<!-- Arc:    12   58 -->
<g transform="translate(343.64 373.07)">
<g transform="rotate(309.35)">
<path d="M 0 0 L -2.56 6.41 L 12.82 0 L -2.56 -6.41 z" style="fill:rgb(153,153,153)"/>
</g></g>
<line x1="296.42" y1="430.65" x2="343.64" y2="373.07" style="stroke-width:3.94;stroke:rgb(153,153,153)"/>
<!-- Arc:    13   20 -->
<g transform="translate(539.58 428.88)">
<g transform="rotate(262.49)">
<path d="M 0 0 L -4.32 10.80 L 21.60 0 L -4.32 -10.80 z" style="fill:rgb(153,153,153)"/>
</g></g>
<line x1="555.32" y1="548.30" x2="539.58" y2="428.88" style="stroke-width:6.65;stroke:rgb(153,153,153)"/>
<!-- Arc:    14   58 -->
<g transform="translate(344.42 386.28)">
<g transform="rotate(296.01)">
<path d="M 0 0 L -4.72 11.80 L 23.61 0 L -4.72 -11.80 z" style="fill:rgb(153,153,153)"/>
</g></g>
<line x1="286.27" y1="505.45" x2="344.42" y2="386.28" style="stroke-width:7.26;stroke:rgb(153,153,153)"/>
<!-- Arc:    15   54 -->
<g transform="translate(154.18 419.40)">
<g transform="rotate(353.14)">
<path d="M 0 0 L -3.03 7.58 L 15.16 0 L -3.03 -7.58 z" style="fill:rgb(153,153,153)"/>
</g></g>
<line x1="87.30" y1="427.44" x2="154.18" y2="419.40" style="stroke-width:4.66;stroke:rgb(153,153,153)"/>
<!-- Arc:    16   14 -->
<g transform="translate(275.78 525.32)">
<g transform="rotate(297.51)">
<path d="M 0 0 L -1.36 3.41 L 6.82 0 L -1.36 -3.41 z" style="fill:rgb(153,153,153)"/>
</g></g>
<line x1="241.61" y1="590.94" x2="275.78" y2="525.32" style="stroke-width:2.10;stroke:rgb(153,153,153)"/>
<!-- Arc:    17   54 -->
<g transform="translate(154.79 393.69)">
<g transform="rotate(396.45)">
<path d="M 0 0 L -4.31 10.76 L 21.53 0 L -4.31 -10.76 z" style="fill:rgb(153,153,153)"/>
</g></g>
<line x1="103.55" y1="355.85" x2="154.79" y2="393.69" style="stroke-width:6.62;stroke:rgb(153,153,153)"/>
<!-- Arc:    18   20 -->
<g transform="translate(551.38 352.44)">
<g transform="rotate(472.59)">
<path d="M 0 0 L -5.43 13.58 L 27.17 0 L -5.43 -13.58 z" style="fill:rgb(153,153,153)"/>
</g></g>
<line x1="594.88" y1="247.92" x2="551.38" y2="352.44" style="stroke-width:8.36;stroke:rgb(153,153,153)"/>
<!-- Arc:    19   47 -->
<g transform="translate(724.87 420.25)">
<g transform="rotate(517.49)">
<path d="M 0 0 L -2.37 5.91 L 11.83 0 L -2.37 -5.91 z" style="fill:rgb(153,153,153)"/>
</g></g>
<line x1="808.06" y1="385.77" x2="724.87" y2="420.25" style="stroke-width:3.64;stroke:rgb(153,153,153)"/>
<!-- Arc:    21   58 -->
<g transform="translate(337.37 346.24)">
<g transform="rotate(371.22)">
<path d="M 0 0 L -1.81 4.54 L 9.07 0 L -1.81 -4.54 z" style="fill:rgb(153,153,153)"/>
</g></g>
<line x1="261.91" y1="331.27" x2="337.37" y2="346.24" style="stroke-width:2.79;stroke:rgb(153,153,153)"/>
<!-- Arc:    22   58 -->
<g transform="translate(343.16 319.40)">
<g transform="rotate(419.50)">
<path d="M 0 0 L -4.19 10.48 L 20.95 0 L -4.19 -10.48 z" style="fill:rgb(153,153,153)"/>
</g></g>
<line x1="308.61" y1="260.74" x2="343.16" y2="319.40" style="stroke-width:6.45;stroke:rgb(153,153,153)"/>
<!-- Arc:    23   58 -->
<g transform="translate(376.08 335.55)">
<g transform="rotate(493.28)">
<path d="M 0 0 L -1.10 2.75 L 5.50 0 L -1.10 -2.75 z" style="fill:rgb(153,153,153)"/>
</g></g>
<line x1="430.42" y1="277.84" x2="376.08" y2="335.55" style="stroke-width:1.69;stroke:rgb(153,153,153)"/>
<!-- Arc:    24   44 -->
<g transform="translate(696.47 313.26)">
<g transform="rotate(510.49)">
<path d="M 0 0 L -1.10 2.75 L 5.50 0 L -1.10 -2.75 z" style="fill:rgb(153,153,153)"/>
</g></g>
<line x1="755.27" y1="279.97" x2="696.47" y2="313.26" style="stroke-width:1.69;stroke:rgb(153,153,153)"/>
<!-- Arc:    25   20 -->
<g transform="translate(558.68 419.64)">
<g transform="rotate(229.48)">
<path d="M 0 0 L -4.18 10.45 L 20.91 0 L -4.18 -10.45 z" style="fill:rgb(153,153,153)"/>
</g></g>
<line x1="600.97" y1="469.12" x2="558.68" y2="419.64" style="stroke-width:6.43;stroke:rgb(153,153,153)"/>
<!-- Arc:    26   58 -->
<g transform="translate(332.14 355.62)">
<g transform="rotate(351.17)">
<path d="M 0 0 L -2.84 7.10 L 14.19 0 L -2.84 -7.10 z" style="fill:rgb(153,153,153)"/>
</g></g>
<line x1="261.91" y1="366.53" x2="332.14" y2="355.62" style="stroke-width:4.37;stroke:rgb(153,153,153)"/>
<!-- Arc:    27   58 -->
<g transform="translate(396.47 334.12)">
<g transform="rotate(514.24)">
<path d="M 0 0 L -4.61 11.53 L 23.07 0 L -4.61 -11.53 z" style="fill:rgb(153,153,153)"/>
</g></g>
<line x1="446.67" y1="309.90" x2="396.47" y2="334.12" style="stroke-width:7.10;stroke:rgb(153,153,153)"/>
<!-- Arc:    28   58 -->
<g transform="translate(370.44 330.33)">
<g transform="rotate(473.26)">
<path d="M 0 0 L -1.36 3.41 L 6.82 0 L -1.36 -3.41 z" style="fill:rgb(153,153,153)"/>
</g></g>
<line x1="404.03" y1="252.19" x2="370.44" y2="330.33" style="stroke-width:2.10;stroke:rgb(153,153,153)"/>
<!-- Arc:    29   58 -->
<g transform="translate(350.68 310.58)">
<g transform="rotate(434.76)">
<path d="M 0 0 L -5.25 13.11 L 26.23 0 L -5.25 -13.11 z" style="fill:rgb(153,153,153)"/>
</g></g>
<line x1="314.70" y1="178.46" x2="350.68" y2="310.58" style="stroke-width:8.07;stroke:rgb(153,153,153)"/>
<!-- Arc:    30   58 -->
<g transform="translate(345.41 360.70)">
<g transform="rotate(329.41)">
<path d="M 0 0 L -0.65 1.62 L 3.25 0 L -0.65 -1.62 z" style="fill:rgb(153,153,153)"/>
</g></g>
<line x1="274.09" y1="402.86" x2="345.41" y2="360.70" style="stroke-width:1.00;stroke:rgb(153,153,153)"/>
<!-- Arc:    31   47 -->
<g transform="translate(728.78 431.74)">
<g transform="rotate(182.24)">
<path d="M 0 0 L -2.74 6.86 L 13.71 0 L -2.74 -6.86 z" style="fill:rgb(153,153,153)"/>
</g></g>
<line x1="810.09" y1="434.92" x2="728.78" y2="431.74" style="stroke-width:4.22;stroke:rgb(153,153,153)"/>
<!-- Arc:    33   20 -->
<g transform="translate(532.30 422.09)">
<g transform="rotate(274.62)">
<path d="M 0 0 L -2.92 7.31 L 14.61 0 L -2.92 -7.31 z" style="fill:rgb(153,153,153)"/>
</g></g>
<line x1="526.86" y1="489.42" x2="532.30" y2="422.09" style="stroke-width:4.50;stroke:rgb(153,153,153)"/>
<!-- Arc:    34   55 -->
<g transform="translate(616.61 553.86)">
<g transform="rotate(244.06)">
<path d="M 0 0 L -1.70 4.24 L 8.48 0 L -1.70 -4.24 z" style="fill:rgb(153,153,153)"/>
</g></g>
<line x1="648.68" y1="619.79" x2="616.61" y2="553.86" style="stroke-width:2.61;stroke:rgb(153,153,153)"/>
<!-- Arc:    35   54 -->
<g transform="translate(163.86 436.67)">
<g transform="rotate(314.77)">
<path d="M 0 0 L -2.79 6.98 L 13.96 0 L -2.79 -6.98 z" style="fill:rgb(153,153,153)"/>
</g></g>
<line x1="114.71" y1="486.22" x2="163.86" y2="436.67" style="stroke-width:4.30;stroke:rgb(153,153,153)"/>
<!-- Arc:    36   18 -->
<g transform="translate(586.73 219.58)">
<g transform="rotate(433.90)">
<path d="M 0 0 L -2.77 6.92 L 13.84 0 L -2.77 -6.92 z" style="fill:rgb(153,153,153)"/>
</g></g>
<line x1="560.36" y1="128.23" x2="586.73" y2="219.58" style="stroke-width:4.26;stroke:rgb(153,153,153)"/>
<!-- Arc:    37   58 -->
<g transform="translate(365.63 374.06)">
<g transform="rotate(260.39)">
<path d="M 0 0 L -1.55 3.88 L 7.76 0 L -1.55 -3.88 z" style="fill:rgb(153,153,153)"/>
</g></g>
<line x1="378.65" y1="450.95" x2="365.63" y2="374.06" style="stroke-width:2.39;stroke:rgb(153,153,153)"/>
<!-- Arc:    38   58 -->
<g transform="translate(339.01 331.89)">
<g transform="rotate(400.38)">
<path d="M 0 0 L -2.79 6.98 L 13.96 0 L -2.79 -6.98 z" style="fill:rgb(153,153,153)"/>
</g></g>
<line x1="284.24" y1="285.32" x2="339.01" y2="331.89" style="stroke-width:4.30;stroke:rgb(153,153,153)"/>
<!-- Arc:    39   47 -->
<g transform="translate(704.85 458.42)">
<g transform="rotate(258.94)">
<path d="M 0 0 L -2.53 6.32 L 12.64 0 L -2.53 -6.32 z" style="fill:rgb(153,153,153)"/>
</g></g>
<line x1="721.77" y1="544.99" x2="704.85" y2="458.42" style="stroke-width:3.89;stroke:rgb(153,153,153)"/>
<!-- Arc:    40   18 -->
<g transform="translate(609.99 230.04)">
<g transform="rotate(490.52)">
<path d="M 0 0 L -1.55 3.88 L 7.76 0 L -1.55 -3.88 z" style="fill:rgb(153,153,153)"/>
</g></g>
<line x1="675.08" y1="153.88" x2="609.99" y2="230.04" style="stroke-width:2.39;stroke:rgb(153,153,153)"/>
<!-- Arc:    41   49 -->
<g transform="translate(532.95 671.11)">
<g transform="rotate(270.00)">
<path d="M 0 0 L -1.36 3.41 L 6.82 0 L -1.36 -3.41 z" style="fill:rgb(153,153,153)"/>
</g></g>
<line x1="532.95" y1="726.65" x2="532.95" y2="671.11" style="stroke-width:2.10;stroke:rgb(153,153,153)"/>
<!-- Arc:    42   58 -->
<g transform="translate(354.36 392.11)">
<g transform="rotate(280.04)">
<path d="M 0 0 L -5.22 13.05 L 26.10 0 L -5.22 -13.05 z" style="fill:rgb(153,153,153)"/>
</g></g>
<line x1="344.14" y1="449.88" x2="354.36" y2="392.11" style="stroke-width:8.03;stroke:rgb(153,153,153)"/>
<!-- Arc:    43   54 -->
<g transform="translate(177.65 452.88)">
<g transform="rotate(280.72)">
<path d="M 0 0 L -4.44 11.11 L 22.21 0 L -4.44 -11.11 z" style="fill:rgb(153,153,153)"/>
</g></g>
<line x1="164.45" y1="522.55" x2="177.65" y2="452.88" style="stroke-width:6.83;stroke:rgb(153,153,153)"/>
<!-- Arc:    44   20 -->
<g transform="translate(570.64 375.00)">
<g transform="rotate(514.52)">
<path d="M 0 0 L -4.79 11.98 L 23.96 0 L -4.79 -11.98 z" style="fill:rgb(153,153,153)"/>
</g></g>
<line x1="678.12" y1="323.79" x2="570.64" y2="375.00" style="stroke-width:7.37;stroke:rgb(153,153,153)"/>
<!-- Arc:    45   58 -->
<g transform="translate(361.14 314.10)">
<g transform="rotate(449.38)">
<path d="M 0 0 L -4.25 10.62 L 21.25 0 L -4.25 -10.62 z" style="fill:rgb(153,153,153)"/>
</g></g>
<line x1="360.38" y1="243.64" x2="361.14" y2="314.10" style="stroke-width:6.54;stroke:rgb(153,153,153)"/>
<!-- Arc:    46   29 -->
<g transform="translate(328.10 148.02)">
<g transform="rotate(473.58)">
<path d="M 0 0 L -3.52 8.81 L 17.61 0 L -3.52 -8.81 z" style="fill:rgb(153,153,153)"/>
</g></g>
<line x1="356.32" y1="83.35" x2="328.10" y2="148.02" style="stroke-width:5.42;stroke:rgb(153,153,153)"/>
<!-- Arc:    47   20 -->
<g transform="translate(575.07 401.34)">
<g transform="rotate(193.26)">
<path d="M 0 0 L -5.13 12.83 L 25.67 0 L -5.13 -12.83 z" style="fill:rgb(153,153,153)"/>
</g></g>
<line x1="699.44" y1="430.65" x2="575.07" y2="401.34" style="stroke-width:7.90;stroke:rgb(153,153,153)"/>
<!-- Arc:    48   29 -->
<g transform="translate(307.91 160.82)">
<g transform="rotate(428.86)">
<path d="M 0 0 L -0.65 1.62 L 3.25 0 L -0.65 -1.62 z" style="fill:rgb(153,153,153)"/>
</g></g>
<line x1="277.14" y1="81.21" x2="307.91" y2="160.82" style="stroke-width:1.00;stroke:rgb(153,153,153)"/>
<!-- Arc:    49   13 -->
<g transform="translate(548.46 578.66)">
<g transform="rotate(282.49)">
<path d="M 0 0 L -3.09 7.74 L 15.47 0 L -3.09 -7.74 z" style="fill:rgb(153,153,153)"/>
</g></g>
<line x1="532.95" y1="648.64" x2="548.46" y2="578.66" style="stroke-width:4.76;stroke:rgb(153,153,153)"/>
<!-- Arc:    50   13 -->
<g transform="translate(570.21 578.89)">
<g transform="rotate(244.06)">
<path d="M 0 0 L -3.68 9.19 L 18.38 0 L -3.68 -9.19 z" style="fill:rgb(153,153,153)"/>
</g></g>
<line x1="598.94" y1="637.96" x2="570.21" y2="578.89" style="stroke-width:5.65;stroke:rgb(153,153,153)"/>
<!-- Arc:    51   20 -->
<g transform="translate(564.57 406.29)">
<g transform="rotate(205.60)">
<path d="M 0 0 L -3.47 8.68 L 17.37 0 L -3.47 -8.68 z" style="fill:rgb(153,153,153)"/>
</g></g>
<line x1="624.32" y1="434.92" x2="564.57" y2="406.29" style="stroke-width:5.34;stroke:rgb(153,153,153)"/>
<!-- Arc:    52   18 -->
<g transform="translate(604.38 208.96)">
<g transform="rotate(463.54)">
<path d="M 0 0 L -4.89 12.23 L 24.45 0 L -4.89 -12.23 z" style="fill:rgb(153,153,153)"/>
</g></g>
<line x1="623.30" y1="130.37" x2="604.38" y2="208.96" style="stroke-width:7.52;stroke:rgb(153,153,153)"/>
<!-- Arc:    54   58 -->
<g transform="translate(324.46 364.57)">
<g transform="rotate(339.90)">
<path d="M 0 0 L -4.78 11.96 L 23.92 0 L -4.78 -11.96 z" style="fill:rgb(153,153,153)"/>
</g></g>
<line x1="184.76" y1="415.69" x2="324.46" y2="364.57" style="stroke-width:7.36;stroke:rgb(153,153,153)"/>
<!-- Arc:    55   20 -->
<g transform="translate(553.94 429.52)">
<g transform="rotate(243.09)">
<path d="M 0 0 L -5.30 13.26 L 26.52 0 L -5.30 -13.26 z" style="fill:rgb(153,153,153)"/>
</g></g>
<line x1="606.05" y1="532.17" x2="553.94" y2="429.52" style="stroke-width:8.16;stroke:rgb(153,153,153)"/>
<!-- Arc:    56   58 -->
<g transform="translate(329.40 337.45)">
<g transform="rotate(382.67)">
<path d="M 0 0 L -3.86 9.66 L 19.31 0 L -3.86 -9.66 z" style="fill:rgb(153,153,153)"/>
</g></g>
<line x1="202.02" y1="284.25" x2="329.40" y2="337.45" style="stroke-width:5.94;stroke:rgb(153,153,153)"/>
<!-- Arc:    57   47 -->
<g transform="translate(722.20 458.46)">
<g transform="rotate(230.50)">
<path d="M 0 0 L -4.06 10.14 L 20.29 0 L -4.06 -10.14 z" style="fill:rgb(153,153,153)"/>
</g></g>
<line x1="771.52" y1="518.27" x2="722.20" y2="458.46" style="stroke-width:6.24;stroke:rgb(153,153,153)"/>
<!-- Edge:    20   58 -->
<line x1="534.84" y1="391.93" x2="361.63" y2="351.00" style="stroke-width:17.07;stroke:rgb(0,112,145)"/>

<!-- Vertex:     1 -->
<ellipse cx="145.17" cy="766.19" rx="14.40" ry="14.40" style="fill:rgb(255,255,0);stroke:rgb(102,0,0);stroke-width:0.50;"/>
<text x="145.17" y="771.19" style="font-family:Arial;font-weight: bold;font-size:15px;fill:rgb(173,0,0);text-anchor:middle;">AX</text>
<!-- Vertex:     2 -->
<ellipse cx="212.17" cy="133.58" rx="14.40" ry="14.40" style="fill:rgb(127,255,0);stroke:rgb(102,0,0);stroke-width:0.50;"/>
<text x="212.17" y="138.58" style="font-family:Arial;font-weight: bold;font-size:15px;fill:rgb(173,0,0);text-anchor:middle;">AL</text>
<!-- Vertex:     3 -->
<ellipse cx="65.98" cy="764.05" rx="14.40" ry="14.40" style="fill:rgb(204,204,255);stroke:rgb(102,0,0);stroke-width:0.50;"/>
<text x="65.98" y="769.05" style="font-family:Arial;font-weight: bold;font-size:15px;fill:rgb(173,0,0);text-anchor:middle;">AD</text>
<!-- Vertex:     4 -->
<ellipse cx="789.79" cy="346.23" rx="14.40" ry="14.40" style="fill:rgb(127,255,0);stroke:rgb(102,0,0);stroke-width:0.50;"/>
<text x="789.79" y="351.23" style="font-family:Arial;font-weight: bold;font-size:15px;fill:rgb(173,0,0);text-anchor:middle;">AM</text>
<!-- Vertex:     5 -->
<ellipse cx="628.38" cy="378.29" rx="14.40" ry="14.40" style="fill:rgb(127,255,0);stroke:rgb(102,0,0);stroke-width:0.50;"/>
<text x="628.38" y="383.29" style="font-family:Arial;font-weight: bold;font-size:15px;fill:rgb(173,0,0);text-anchor:middle;">AT</text>
<!-- Vertex:     6 -->
<ellipse cx="114.71" cy="247.92" rx="14.40" ry="14.40" style="fill:rgb(127,255,0);stroke:rgb(102,0,0);stroke-width:0.50;"/>
<text x="114.71" y="252.92" style="font-family:Arial;font-weight: bold;font-size:15px;fill:rgb(173,0,0);text-anchor:middle;">AZ</text>
<!-- Vertex:     7 -->
<ellipse cx="799.94" cy="478.73" rx="14.40" ry="14.40" style="fill:rgb(127,255,0);stroke:rgb(102,0,0);stroke-width:0.50;"/>
<text x="799.94" y="483.73" style="font-family:Arial;font-weight: bold;font-size:15px;fill:rgb(173,0,0);text-anchor:middle;">BY</text>
<!-- Vertex:     8 -->
<ellipse cx="712.64" cy="203.03" rx="14.40" ry="14.40" style="fill:rgb(127,255,0);stroke:rgb(102,0,0);stroke-width:0.50;"/>
<text x="712.64" y="208.03" style="font-family:Arial;font-weight: bold;font-size:15px;fill:rgb(173,0,0);text-anchor:middle;">BE</text>
<!-- Vertex:     9 -->
<ellipse cx="457.83" cy="630.48" rx="14.40" ry="14.40" style="fill:rgb(127,255,0);stroke:rgb(102,0,0);stroke-width:0.50;"/>
<text x="457.83" y="635.48" style="font-family:Arial;font-weight: bold;font-size:15px;fill:rgb(173,0,0);text-anchor:middle;">BA</text>
<!-- Vertex:    10 -->
<ellipse cx="597.92" cy="319.51" rx="14.40" ry="14.40" style="fill:rgb(127,255,0);stroke:rgb(102,0,0);stroke-width:0.50;"/>
<text x="597.92" y="324.51" style="font-family:Arial;font-weight: bold;font-size:15px;fill:rgb(173,0,0);text-anchor:middle;">BG</text>
<!-- Vertex:    11 -->
<ellipse cx="486.26" cy="540.71" rx="14.40" ry="14.40" style="fill:rgb(127,255,0);stroke:rgb(102,0,0);stroke-width:0.50;"/>
<text x="486.26" y="545.71" style="font-family:Arial;font-weight: bold;font-size:15px;fill:rgb(173,0,0);text-anchor:middle;">HR</text>
<!-- Vertex:    12 -->
<ellipse cx="296.42" cy="430.65" rx="14.40" ry="14.40" style="fill:rgb(127,255,0);stroke:rgb(102,0,0);stroke-width:0.50;"/>
<text x="296.42" y="435.65" style="font-family:Arial;font-weight: bold;font-size:15px;fill:rgb(173,0,0);text-anchor:middle;">CY</text>
<!-- Vertex:    13 -->
<ellipse cx="555.32" cy="548.30" rx="14.40" ry="14.40" style="fill:rgb(127,255,0);stroke:rgb(102,0,0);stroke-width:0.50;"/>
<text x="555.32" y="553.30" style="font-family:Arial;font-weight: bold;font-size:15px;fill:rgb(173,0,0);text-anchor:middle;">CZ</text>
<!-- Vertex:    14 -->
<ellipse cx="286.27" cy="505.45" rx="14.40" ry="14.40" style="fill:rgb(127,255,0);stroke:rgb(102,0,0);stroke-width:0.50;"/>
<text x="286.27" y="510.45" style="font-family:Arial;font-weight: bold;font-size:15px;fill:rgb(173,0,0);text-anchor:middle;">DK</text>
<!-- Vertex:    15 -->
<ellipse cx="87.30" cy="427.44" rx="14.40" ry="14.40" style="fill:rgb(127,255,0);stroke:rgb(102,0,0);stroke-width:0.50;"/>
<text x="87.30" y="432.44" style="font-family:Arial;font-weight: bold;font-size:15px;fill:rgb(173,0,0);text-anchor:middle;">EE</text>
<!-- Vertex:    16 -->
<ellipse cx="241.61" cy="590.94" rx="14.40" ry="14.40" style="fill:rgb(127,255,0);stroke:rgb(102,0,0);stroke-width:0.50;"/>
<text x="241.61" y="595.94" style="font-family:Arial;font-weight: bold;font-size:15px;fill:rgb(173,0,0);text-anchor:middle;">FO</text>
<!-- Vertex:    17 -->
<ellipse cx="103.55" cy="355.85" rx="14.40" ry="14.40" style="fill:rgb(127,255,0);stroke:rgb(102,0,0);stroke-width:0.50;"/>
<text x="103.55" y="360.85" style="font-family:Arial;font-weight: bold;font-size:15px;fill:rgb(173,0,0);text-anchor:middle;">FI</text>
<!-- Vertex:    18 -->
<ellipse cx="594.88" cy="247.92" rx="14.40" ry="14.40" style="fill:rgb(127,255,0);stroke:rgb(102,0,0);stroke-width:0.50;"/>
<text x="594.88" y="252.92" style="font-family:Arial;font-weight: bold;font-size:15px;fill:rgb(173,0,0);text-anchor:middle;">FR</text>
<!-- Vertex:    19 -->
<ellipse cx="808.06" cy="385.77" rx="14.40" ry="14.40" style="fill:rgb(127,255,0);stroke:rgb(102,0,0);stroke-width:0.50;"/>
<text x="808.06" y="390.77" style="font-family:Arial;font-weight: bold;font-size:15px;fill:rgb(173,0,0);text-anchor:middle;">GE</text>
<!-- Vertex:    20 -->
<ellipse cx="534.84" cy="391.93" rx="14.40" ry="14.40" style="fill:rgb(127,255,0);stroke:rgb(102,0,0);stroke-width:0.50;"/>
<text x="534.84" y="396.93" style="font-family:Arial;font-weight: bold;font-size:15px;fill:rgb(173,0,0);text-anchor:middle;">DE</text>
<!-- Vertex:    21 -->
<ellipse cx="261.91" cy="331.27" rx="14.40" ry="14.40" style="fill:rgb(127,255,0);stroke:rgb(102,0,0);stroke-width:0.50;"/>
<text x="261.91" y="336.27" style="font-family:Arial;font-weight: bold;font-size:15px;fill:rgb(173,0,0);text-anchor:middle;">GI</text>
<!-- Vertex:    22 -->
<ellipse cx="308.61" cy="260.74" rx="14.40" ry="14.40" style="fill:rgb(127,255,0);stroke:rgb(102,0,0);stroke-width:0.50;"/>
<text x="308.61" y="265.74" style="font-family:Arial;font-weight: bold;font-size:15px;fill:rgb(173,0,0);text-anchor:middle;">GR</text>
<!-- Vertex:    23 -->
<ellipse cx="430.42" cy="277.84" rx="14.40" ry="14.40" style="fill:rgb(127,255,0);stroke:rgb(102,0,0);stroke-width:0.50;"/>
<text x="430.42" y="282.84" style="font-family:Arial;font-weight: bold;font-size:15px;fill:rgb(173,0,0);text-anchor:middle;">GG</text>
<!-- Vertex:    24 -->
<ellipse cx="755.27" cy="279.97" rx="14.40" ry="14.40" style="fill:rgb(127,255,0);stroke:rgb(102,0,0);stroke-width:0.50;"/>
<text x="755.27" y="284.97" style="font-family:Arial;font-weight: bold;font-size:15px;fill:rgb(173,0,0);text-anchor:middle;">VA</text>
<!-- Vertex:    25 -->
<ellipse cx="600.97" cy="469.12" rx="14.40" ry="14.40" style="fill:rgb(127,255,0);stroke:rgb(102,0,0);stroke-width:0.50;"/>
<text x="600.97" y="474.12" style="font-family:Arial;font-weight: bold;font-size:15px;fill:rgb(173,0,0);text-anchor:middle;">HU</text>
<!-- Vertex:    26 -->
<ellipse cx="261.91" cy="366.53" rx="14.40" ry="14.40" style="fill:rgb(127,255,0);stroke:rgb(102,0,0);stroke-width:0.50;"/>
<text x="261.91" y="371.53" style="font-family:Arial;font-weight: bold;font-size:15px;fill:rgb(173,0,0);text-anchor:middle;">IS</text>
<!-- Vertex:    27 -->
<ellipse cx="446.67" cy="309.90" rx="14.40" ry="14.40" style="fill:rgb(127,255,0);stroke:rgb(102,0,0);stroke-width:0.50;"/>
<text x="446.67" y="314.90" style="font-family:Arial;font-weight: bold;font-size:15px;fill:rgb(173,0,0);text-anchor:middle;">IE</text>
<!-- Vertex:    28 -->
<ellipse cx="404.03" cy="252.19" rx="14.40" ry="14.40" style="fill:rgb(127,255,0);stroke:rgb(102,0,0);stroke-width:0.50;"/>
<text x="404.03" y="257.19" style="font-family:Arial;font-weight: bold;font-size:15px;fill:rgb(173,0,0);text-anchor:middle;">IM</text>
<!-- Vertex:    29 -->
<ellipse cx="314.70" cy="178.46" rx="14.40" ry="14.40" style="fill:rgb(127,255,0);stroke:rgb(102,0,0);stroke-width:0.50;"/>
<text x="314.70" y="183.46" style="font-family:Arial;font-weight: bold;font-size:15px;fill:rgb(173,0,0);text-anchor:middle;">IT</text>
<!-- Vertex:    30 -->
<ellipse cx="274.09" cy="402.86" rx="14.40" ry="14.40" style="fill:rgb(127,255,0);stroke:rgb(102,0,0);stroke-width:0.50;"/>
<text x="274.09" y="407.86" style="font-family:Arial;font-weight: bold;font-size:15px;fill:rgb(173,0,0);text-anchor:middle;">JE</text>
<!-- Vertex:    31 -->
<ellipse cx="810.09" cy="434.92" rx="14.40" ry="14.40" style="fill:rgb(127,255,0);stroke:rgb(102,0,0);stroke-width:0.50;"/>
<text x="810.09" y="439.92" style="font-family:Arial;font-weight: bold;font-size:15px;fill:rgb(173,0,0);text-anchor:middle;">KZ</text>
<!-- Vertex:    32 -->
<ellipse cx="284.24" cy="767.26" rx="14.40" ry="14.40" style="fill:rgb(204,255,255);stroke:rgb(102,0,0);stroke-width:0.50;"/>
<text x="284.24" y="772.26" style="font-family:Arial;font-weight: bold;font-size:15px;fill:rgb(173,0,0);text-anchor:middle;">XK</text>
<!-- Vertex:    33 -->
<ellipse cx="526.86" cy="489.42" rx="14.40" ry="14.40" style="fill:rgb(127,255,0);stroke:rgb(102,0,0);stroke-width:0.50;"/>
<text x="526.86" y="494.42" style="font-family:Arial;font-weight: bold;font-size:15px;fill:rgb(173,0,0);text-anchor:middle;">LV</text>
<!-- Vertex:    34 -->
<ellipse cx="648.68" cy="619.79" rx="14.40" ry="14.40" style="fill:rgb(127,255,0);stroke:rgb(102,0,0);stroke-width:0.50;"/>
<text x="648.68" y="624.79" style="font-family:Arial;font-weight: bold;font-size:15px;fill:rgb(173,0,0);text-anchor:middle;">LI</text>
<!-- Vertex:    35 -->
<ellipse cx="114.71" cy="486.22" rx="14.40" ry="14.40" style="fill:rgb(127,255,0);stroke:rgb(102,0,0);stroke-width:0.50;"/>
<text x="114.71" y="491.22" style="font-family:Arial;font-weight: bold;font-size:15px;fill:rgb(173,0,0);text-anchor:middle;">LT</text>
<!-- Vertex:    36 -->
<ellipse cx="560.36" cy="128.23" rx="14.40" ry="14.40" style="fill:rgb(127,255,0);stroke:rgb(102,0,0);stroke-width:0.50;"/>
<text x="560.36" y="133.23" style="font-family:Arial;font-weight: bold;font-size:15px;fill:rgb(173,0,0);text-anchor:middle;">LU</text>
<!-- Vertex:    37 -->
<ellipse cx="378.65" cy="450.95" rx="14.40" ry="14.40" style="fill:rgb(127,255,0);stroke:rgb(102,0,0);stroke-width:0.50;"/>
<text x="378.65" y="455.95" style="font-family:Arial;font-weight: bold;font-size:15px;fill:rgb(173,0,0);text-anchor:middle;">MK</text>
<!-- Vertex:    38 -->
<ellipse cx="284.24" cy="285.32" rx="14.40" ry="14.40" style="fill:rgb(127,255,0);stroke:rgb(102,0,0);stroke-width:0.50;"/>
<text x="284.24" y="290.32" style="font-family:Arial;font-weight: bold;font-size:15px;fill:rgb(173,0,0);text-anchor:middle;">MT</text>
<!-- Vertex:    39 -->
<ellipse cx="721.77" cy="544.99" rx="14.40" ry="14.40" style="fill:rgb(127,255,0);stroke:rgb(102,0,0);stroke-width:0.50;"/>
<text x="721.77" y="549.99" style="font-family:Arial;font-weight: bold;font-size:15px;fill:rgb(173,0,0);text-anchor:middle;">MD</text>
<!-- Vertex:    40 -->
<ellipse cx="675.08" cy="153.88" rx="14.40" ry="14.40" style="fill:rgb(127,255,0);stroke:rgb(102,0,0);stroke-width:0.50;"/>
<text x="675.08" y="158.88" style="font-family:Arial;font-weight: bold;font-size:15px;fill:rgb(173,0,0);text-anchor:middle;">MC</text>
<!-- Vertex:    41 -->
<ellipse cx="532.95" cy="726.65" rx="14.40" ry="14.40" style="fill:rgb(127,255,0);stroke:rgb(102,0,0);stroke-width:0.50;"/>
<text x="532.95" y="731.65" style="font-family:Arial;font-weight: bold;font-size:15px;fill:rgb(173,0,0);text-anchor:middle;">ME</text>
<!-- Vertex:    42 -->
<ellipse cx="344.14" cy="449.88" rx="14.40" ry="14.40" style="fill:rgb(127,255,0);stroke:rgb(102,0,0);stroke-width:0.50;"/>
<text x="344.14" y="454.88" style="font-family:Arial;font-weight: bold;font-size:15px;fill:rgb(173,0,0);text-anchor:middle;">NL</text>
<!-- Vertex:    43 -->
<ellipse cx="164.45" cy="522.55" rx="14.40" ry="14.40" style="fill:rgb(127,255,0);stroke:rgb(102,0,0);stroke-width:0.50;"/>
<text x="164.45" y="527.55" style="font-family:Arial;font-weight: bold;font-size:15px;fill:rgb(173,0,0);text-anchor:middle;">NO</text>
<!-- Vertex:    44 -->
<ellipse cx="678.12" cy="323.79" rx="14.40" ry="14.40" style="fill:rgb(127,255,0);stroke:rgb(102,0,0);stroke-width:0.50;"/>
<text x="678.12" y="328.79" style="font-family:Arial;font-weight: bold;font-size:15px;fill:rgb(173,0,0);text-anchor:middle;">PL</text>
<!-- Vertex:    45 -->
<ellipse cx="360.38" cy="243.64" rx="14.40" ry="14.40" style="fill:rgb(127,255,0);stroke:rgb(102,0,0);stroke-width:0.50;"/>
<text x="360.38" y="248.64" style="font-family:Arial;font-weight: bold;font-size:15px;fill:rgb(173,0,0);text-anchor:middle;">PT</text>
<!-- Vertex:    46 -->
<ellipse cx="356.32" cy="83.35" rx="14.40" ry="14.40" style="fill:rgb(127,255,0);stroke:rgb(102,0,0);stroke-width:0.50;"/>
<text x="356.32" y="88.35" style="font-family:Arial;font-weight: bold;font-size:15px;fill:rgb(173,0,0);text-anchor:middle;">RO</text>
<!-- Vertex:    47 -->
<ellipse cx="699.44" cy="430.65" rx="14.40" ry="14.40" style="fill:rgb(127,255,0);stroke:rgb(102,0,0);stroke-width:0.50;"/>
<text x="699.44" y="435.65" style="font-family:Arial;font-weight: bold;font-size:15px;fill:rgb(173,0,0);text-anchor:middle;">RU</text>
<!-- Vertex:    48 -->
<ellipse cx="277.14" cy="81.21" rx="14.40" ry="14.40" style="fill:rgb(127,255,0);stroke:rgb(102,0,0);stroke-width:0.50;"/>
<text x="277.14" y="86.21" style="font-family:Arial;font-weight: bold;font-size:15px;fill:rgb(173,0,0);text-anchor:middle;">SM</text>
<!-- Vertex:    49 -->
<ellipse cx="532.95" cy="648.64" rx="14.40" ry="14.40" style="fill:rgb(127,255,0);stroke:rgb(102,0,0);stroke-width:0.50;"/>
<text x="532.95" y="653.64" style="font-family:Arial;font-weight: bold;font-size:15px;fill:rgb(173,0,0);text-anchor:middle;">RS</text>
<!-- Vertex:    50 -->
<ellipse cx="598.94" cy="637.96" rx="14.40" ry="14.40" style="fill:rgb(127,255,0);stroke:rgb(102,0,0);stroke-width:0.50;"/>
<text x="598.94" y="642.96" style="font-family:Arial;font-weight: bold;font-size:15px;fill:rgb(173,0,0);text-anchor:middle;">SK</text>
<!-- Vertex:    51 -->
<ellipse cx="624.32" cy="434.92" rx="14.40" ry="14.40" style="fill:rgb(127,255,0);stroke:rgb(102,0,0);stroke-width:0.50;"/>
<text x="624.32" y="439.92" style="font-family:Arial;font-weight: bold;font-size:15px;fill:rgb(173,0,0);text-anchor:middle;">SI</text>
<!-- Vertex:    52 -->
<ellipse cx="623.30" cy="130.37" rx="14.40" ry="14.40" style="fill:rgb(127,255,0);stroke:rgb(102,0,0);stroke-width:0.50;"/>
<text x="623.30" y="135.37" style="font-family:Arial;font-weight: bold;font-size:15px;fill:rgb(173,0,0);text-anchor:middle;">ES</text>
<!-- Vertex:    53 -->
<ellipse cx="211.15" cy="767.26" rx="14.40" ry="14.40" style="fill:rgb(255,216,242);stroke:rgb(102,0,0);stroke-width:0.50;"/>
<text x="211.15" y="772.26" style="font-family:Arial;font-weight: bold;font-size:15px;fill:rgb(173,0,0);text-anchor:middle;">SJ</text>
<!-- Vertex:    54 -->
<ellipse cx="184.76" cy="415.69" rx="14.40" ry="14.40" style="fill:rgb(127,255,0);stroke:rgb(102,0,0);stroke-width:0.50;"/>
<text x="184.76" y="420.69" style="font-family:Arial;font-weight: bold;font-size:15px;fill:rgb(173,0,0);text-anchor:middle;">SE</text>
<!-- Vertex:    55 -->
<ellipse cx="606.05" cy="532.17" rx="14.40" ry="14.40" style="fill:rgb(127,255,0);stroke:rgb(102,0,0);stroke-width:0.50;"/>
<text x="606.05" y="537.17" style="font-family:Arial;font-weight: bold;font-size:15px;fill:rgb(173,0,0);text-anchor:middle;">CH</text>
<!-- Vertex:    56 -->
<ellipse cx="202.02" cy="284.25" rx="14.40" ry="14.40" style="fill:rgb(127,255,0);stroke:rgb(102,0,0);stroke-width:0.50;"/>
<text x="202.02" y="289.25" style="font-family:Arial;font-weight: bold;font-size:15px;fill:rgb(173,0,0);text-anchor:middle;">TR</text>
<!-- Vertex:    57 -->
<ellipse cx="771.52" cy="518.27" rx="14.40" ry="14.40" style="fill:rgb(127,255,0);stroke:rgb(102,0,0);stroke-width:0.50;"/>
<text x="771.52" y="523.27" style="font-family:Arial;font-weight: bold;font-size:15px;fill:rgb(173,0,0);text-anchor:middle;">UA</text>
<!-- Vertex:    58 -->
<ellipse cx="361.63" cy="351.00" rx="14.40" ry="14.40" style="fill:rgb(127,255,0);stroke:rgb(102,0,0);stroke-width:0.50;"/>
<text x="361.63" y="356.00" style="font-family:Arial;font-weight: bold;font-size:15px;fill:rgb(173,0,0);text-anchor:middle;">GB</text>
</g>         <!-- Layer Network -->
</svg>
