<?xml version="1.0" encoding="UTF-8"?>
<!-- Title: 6. EU 1-neighbors (58) -->
<!-- Creator: Pajek 5.19: http://mrvar.fdv.uni-lj.si/pajek -->
<!-- CreationDate: 05-25-2024, 16:46:10 -->
<svg xml:space="preserve" viewBox="0 0 1072 919" xmlns="http://www.w3.org/2000/svg" xmlns:xlink="http://www.w3.org/1999/xlink" xmlns:inkscape="http://www.inkscape.org/namespaces/inkscape">
<title>6. EU 1-neighbors (58)</title>
<g inkscape:groupmode="layer" id="PajekSig" inkscape:label="PajekSignature">
<g transform="translate(3 901)">
<g transform="scale(0.1)">
<g transform="matrix(1 0 0 -1 0 96)">
<path d="M   7.67  49.98 L  31.76  72.76 L  46.91  78.63
         L  57.23  80.49 M  72.86  65.23 L  65.73  83.25
         L  57.06  75.49 L  56.75  68.65 M  76.27  68.03
         L  75.65  84.50 L  93.92  91.02 L 107.24  74.87
         M  80.29  67.72 L  89.28  84.81 L 104.77  81.70
         L 116.23  73.31 L 121.18  59.33 M  56.75  81.08
         L  71.31  64.30"
         style="fill:none; stroke:saddlebrown; stroke-width:5;"/>
<path d="M  86.18  70.21 L  91.45  73.00 L  95.78  69.58
         M  91.14  60.88 L  96.09  62.75 L  98.26  59.33"
         style="fill:none; stroke:saddlebrown; stroke-width:1.5;"/>
<path d="M  81.07  49.08 L  87.81  49.08 L  93.30  54.38
         L  93.30  60.88 L  93.30  67.39 L  87.81  72.69
         L  81.07  72.69 L  74.33  72.69 L  68.83  67.39
         L  68.83  60.88 L  68.83  54.38 L  74.33  49.08
         L  81.07  49.08 z"
         style="fill:maroon; stroke:saddlebrown; stroke-width:1;"/>
<path d="M  54.63  37.53 L  68.53  43.56 L  75.39  55.85
         L  69.90  65.35 L  64.41  72.86 L  48.60  74.06
         L  34.71  68.04 L  20.81  55.02 L  15.95  40.72
         L  17.44  33.22 L  24.92  28.72 L  40.73  30.51
         L  54.63  37.53 z"
         style="fill:maroon; stroke:saddlebrown; stroke-width:1;" />
<path d="M  77.82  50.63 L 103.84  59.33 L 131.10  43.80
         L 139.46  27.95 L 139.15  15.83 M  35.99   5.27
         L  47.15  32.92 L  61.71  50.01 L  70.07  46.90
         L  82.77  45.04 L  83.39  27.02 L  65.42  12.11
         M  68.52  50.63 L  91.14  49.39 L 103.53  43.17
         L 117.16  22.67 L 115.30   8.38"
         style="fill:none; stroke:saddlebrown; stroke-width:5;"/>
<path d="M  41.57  54.98 L  60.16  64.61 M  52.41  66.17
         L  57.99  57.47"
         style="fill:none; stroke:white; stroke-width:5;"/>
</g>
</g>
<animateMotion dur="20s" path="M3 0 L1054 0" begin="120s" fill="freeze"/>
</g>
<g transform="translate(3 901)">
<g transform="scale(0.1)">
<text x="5" y="140" style="font-family:Brush Script MT;font-size:75px;fill:green;">Pajek</text>
</g>
<animateMotion dur="0.1s" path="M3 0 L1054 0" begin="120s" fill="freeze"/>
</g>
</g>      <!-- Layer Signature -->

<g inkscape:groupmode="layer" id="PajekNet" inkscape:label="PajekNetwork">

<!-- Arc:     2   29 -->
<g transform="translate(506.27 671.47)">
<g transform="rotate(249.38)">
<path d="M 0 0 L -1.10 2.75 L 5.50 0 L -1.10 -2.75 z" style="fill:rgb(153,153,153)"/>
</g></g>
<line x1="523.82" y1="718.10" x2="506.27" y2="671.47" style="stroke-width:1.69;stroke:rgb(153,153,153)"/>
<!-- Arc:     4   47 -->
<g transform="translate(323.73 158.19)">
<g transform="rotate(450.07)">
<path d="M 0 0 L -2.66 6.65 L 13.30 0 L -2.66 -6.65 z" style="fill:rgb(153,153,153)"/>
</g></g>
<line x1="323.83" y1="69.46" x2="323.73" y2="158.19" style="stroke-width:4.09;stroke:rgb(153,153,153)"/>
<!-- Arc:     5   20 -->
<g transform="translate(352.27 322.14)">
<g transform="rotate(407.77)">
<path d="M 0 0 L -4.65 11.62 L 23.25 0 L -4.65 -11.62 z" style="fill:rgb(153,153,153)"/>
</g></g>
<line x1="320.79" y1="287.45" x2="352.27" y2="322.14" style="stroke-width:7.15;stroke:rgb(153,153,153)"/>
<!-- Arc:     6   47 -->
<g transform="translate(305.37 167.36)">
<g transform="rotate(407.33)">
<path d="M 0 0 L -2.27 5.66 L 11.33 0 L -2.27 -5.66 z" style="fill:rgb(153,153,153)"/>
</g></g>
<line x1="245.67" y1="102.59" x2="305.37" y2="167.36" style="stroke-width:3.48;stroke:rgb(153,153,153)"/>
<!-- Arc:     7   47 -->
<g transform="translate(296.23 172.07)">
<g transform="rotate(388.51)">
<path d="M 0 0 L -3.14 7.85 L 15.69 0 L -3.14 -7.85 z" style="fill:rgb(153,153,153)"/>
</g></g>
<line x1="225.36" y1="133.58" x2="296.23" y2="172.07" style="stroke-width:4.83;stroke:rgb(153,153,153)"/>
<!-- Arc:     8   18 -->
<g transform="translate(529.34 300.19)">
<g transform="rotate(535.27)">
<path d="M 0 0 L -4.70 11.76 L 23.51 0 L -4.70 -11.76 z" style="fill:rgb(153,153,153)"/>
</g></g>
<line x1="592.85" y1="294.93" x2="529.34" y2="300.19" style="stroke-width:7.23;stroke:rgb(153,153,153)"/>
<!-- Arc:     9   49 -->
<g transform="translate(149.31 328.97)">
<g transform="rotate(329.44)">
<path d="M 0 0 L -1.81 4.54 L 9.07 0 L -1.81 -4.54 z" style="fill:rgb(153,153,153)"/>
</g></g>
<line x1="89.33" y1="364.39" x2="149.31" y2="328.97" style="stroke-width:2.79;stroke:rgb(153,153,153)"/>
<!-- Arc:    10   47 -->
<g transform="translate(311.16 154.66)">
<g transform="rotate(428.77)">
<path d="M 0 0 L -3.83 9.58 L 19.17 0 L -3.83 -9.58 z" style="fill:rgb(153,153,153)"/>
</g></g>
<line x1="282.21" y1="80.15" x2="311.16" y2="154.66" style="stroke-width:5.90;stroke:rgb(153,153,153)"/>
<!-- Arc:    11   20 -->
<g transform="translate(355.89 374.47)">
<g transform="rotate(313.54)">
<path d="M 0 0 L -3.37 8.43 L 16.87 0 L -3.37 -8.43 z" style="fill:rgb(153,153,153)"/>
</g></g>
<line x1="292.36" y1="441.33" x2="355.89" y2="374.47" style="stroke-width:5.19;stroke:rgb(153,153,153)"/>
<!-- Arc:    12   22 -->
<g transform="translate(408.51 691.58)">
<g transform="rotate(282.66)">
<path d="M 0 0 L -2.72 6.79 L 13.58 0 L -2.72 -6.79 z" style="fill:rgb(153,153,153)"/>
</g></g>
<line x1="398.95" y1="734.13" x2="408.51" y2="691.58" style="stroke-width:4.18;stroke:rgb(153,153,153)"/>
<!-- Arc:    13   20 -->
<g transform="translate(341.50 350.88)">
<g transform="rotate(360.26)">
<path d="M 0 0 L -4.24 10.61 L 21.22 0 L -4.24 -10.61 z" style="fill:rgb(153,153,153)"/>
</g></g>
<line x1="256.83" y1="350.50" x2="341.50" y2="350.88" style="stroke-width:6.53;stroke:rgb(153,153,153)"/>
<!-- Arc:    14   58 -->
<g transform="translate(421.14 536.82)">
<g transform="rotate(309.51)">
<path d="M 0 0 L -4.26 10.65 L 21.31 0 L -4.26 -10.65 z" style="fill:rgb(153,153,153)"/>
</g></g>
<line x1="339.63" y1="635.67" x2="421.14" y2="536.82" style="stroke-width:6.56;stroke:rgb(153,153,153)"/>
<!-- Arc:    15   47 -->
<g transform="translate(333.89 159.59)">
<g transform="rotate(470.53)">
<path d="M 0 0 L -2.74 6.86 L 13.71 0 L -2.74 -6.86 z" style="fill:rgb(153,153,153)"/>
</g></g>
<line x1="364.44" y1="78.01" x2="333.89" y2="159.59" style="stroke-width:4.22;stroke:rgb(153,153,153)"/>
<!-- Arc:    16   14 -->
<g transform="translate(323.22 653.36)">
<g transform="rotate(312.61)">
<path d="M 0 0 L -1.70 4.24 L 8.48 0 L -1.70 -4.24 z" style="fill:rgb(153,153,153)"/>
</g></g>
<line x1="286.27" y1="693.52" x2="323.22" y2="653.36" style="stroke-width:2.61;stroke:rgb(153,153,153)"/>
<!-- Arc:    17   54 -->
<g transform="translate(637.91 551.87)">
<g transform="rotate(528.45)">
<path d="M 0 0 L -3.90 9.76 L 19.51 0 L -3.90 -9.76 z" style="fill:rgb(153,153,153)"/>
</g></g>
<line x1="687.26" y1="541.78" x2="637.91" y2="551.87" style="stroke-width:6.00;stroke:rgb(153,153,153)"/>
<!-- Arc:    18   20 -->
<g transform="translate(416.04 335.00)">
<g transform="rotate(517.01)">
<path d="M 0 0 L -5.05 12.63 L 25.27 0 L -5.05 -12.63 z" style="fill:rgb(153,153,153)"/>
</g></g>
<line x1="490.32" y1="303.48" x2="416.04" y2="335.00" style="stroke-width:7.77;stroke:rgb(153,153,153)"/>
<!-- Arc:    19   47 -->
<g transform="translate(344.31 163.24)">
<g transform="rotate(490.55)">
<path d="M 0 0 L -3.18 7.95 L 15.90 0 L -3.18 -7.95 z" style="fill:rgb(153,153,153)"/>
</g></g>
<line x1="398.95" y1="99.38" x2="344.31" y2="163.24" style="stroke-width:4.89;stroke:rgb(153,153,153)"/>
<!-- Arc:    21   58 -->
<g transform="translate(446.03 533.07)">
<g transform="rotate(267.10)">
<path d="M 0 0 L -1.81 4.54 L 9.07 0 L -1.81 -4.54 z" style="fill:rgb(153,153,153)"/>
</g></g>
<line x1="449.71" y1="605.90" x2="446.03" y2="533.07" style="stroke-width:2.79;stroke:rgb(153,153,153)"/>
<!-- Arc:    22   58 -->
<g transform="translate(438.18 542.40)">
<g transform="rotate(280.88)">
<path d="M 0 0 L -3.80 9.50 L 18.99 0 L -3.80 -9.50 z" style="fill:rgb(153,153,153)"/>
</g></g>
<line x1="415.00" y1="663.08" x2="438.18" y2="542.40" style="stroke-width:5.84;stroke:rgb(153,153,153)"/>
<!-- Arc:    23   58 -->
<g transform="translate(457.14 525.53)">
<g transform="rotate(234.51)">
<path d="M 0 0 L -1.10 2.75 L 5.50 0 L -1.10 -2.75 z" style="fill:rgb(153,153,153)"/>
</g></g>
<line x1="501.48" y1="587.73" x2="457.14" y2="525.53" style="stroke-width:1.69;stroke:rgb(153,153,153)"/>
<!-- Arc:    24   44 -->
<g transform="translate(244.78 406.48)">
<g transform="rotate(334.80)">
<path d="M 0 0 L -1.10 2.75 L 5.50 0 L -1.10 -2.75 z" style="fill:rgb(153,153,153)"/>
</g></g>
<line x1="197.95" y1="428.51" x2="244.78" y2="406.48" style="stroke-width:1.69;stroke:rgb(153,153,153)"/>
<!-- Arc:    25   20 -->
<g transform="translate(385.49 315.44)">
<g transform="rotate(461.52)">
<path d="M 0 0 L -4.12 10.30 L 20.60 0 L -4.12 -10.30 z" style="fill:rgb(153,153,153)"/>
</g></g>
<line x1="394.89" y1="269.29" x2="385.49" y2="315.44" style="stroke-width:6.34;stroke:rgb(153,153,153)"/>
<!-- Arc:    26   58 -->
<g transform="translate(430.72 535.62)">
<g transform="rotate(297.49)">
<path d="M 0 0 L -3.00 7.49 L 14.99 0 L -3.00 -7.49 z" style="fill:rgb(153,153,153)"/>
</g></g>
<line x1="396.92" y1="600.56" x2="430.72" y2="535.62" style="stroke-width:4.61;stroke:rgb(153,153,153)"/>
<!-- Arc:    27   58 -->
<g transform="translate(407.58 511.79)">
<g transform="rotate(354.61)">
<path d="M 0 0 L -4.34 10.84 L 21.68 0 L -4.34 -10.84 z" style="fill:rgb(153,153,153)"/>
</g></g>
<line x1="350.23" y1="517.20" x2="407.58" y2="511.79" style="stroke-width:6.67;stroke:rgb(153,153,153)"/>
<!-- Arc:    28   58 -->
<g transform="translate(467.93 501.66)">
<g transform="rotate(523.58)">
<path d="M 0 0 L -1.70 4.24 L 8.48 0 L -1.70 -4.24 z" style="fill:rgb(153,153,153)"/>
</g></g>
<line x1="542.09" y1="479.80" x2="467.93" y2="501.66" style="stroke-width:2.61;stroke:rgb(153,153,153)"/>
<!-- Arc:    29   58 -->
<g transform="translate(458.98 545.81)">
<g transform="rotate(249.30)">
<path d="M 0 0 L -4.88 12.19 L 24.38 0 L -4.88 -12.19 z" style="fill:rgb(153,153,153)"/>
</g></g>
<line x1="498.97" y1="651.62" x2="458.98" y2="545.81" style="stroke-width:7.50;stroke:rgb(153,153,153)"/>
<!-- Arc:    30   58 -->
<g transform="translate(428.24 517.58)">
<g transform="rotate(330.48)">
<path d="M 0 0 L -0.65 1.62 L 3.25 0 L -0.65 -1.62 z" style="fill:rgb(153,153,153)"/>
</g></g>
<line x1="355.30" y1="558.88" x2="428.24" y2="517.58" style="stroke-width:1.00;stroke:rgb(153,153,153)"/>
<!-- Arc:    31   47 -->
<g transform="translate(300.97 199.82)">
<g transform="rotate(330.68)">
<path d="M 0 0 L -2.08 5.20 L 10.39 0 L -2.08 -5.20 z" style="fill:rgb(153,153,153)"/>
</g></g>
<line x1="232.47" y1="238.30" x2="300.97" y2="199.82" style="stroke-width:3.20;stroke:rgb(153,153,153)"/>
<!-- Arc:    32   49 -->
<g transform="translate(153.67 303.56)">
<g transform="rotate(397.19)">
<path d="M 0 0 L -1.10 2.75 L 5.50 0 L -1.10 -2.75 z" style="fill:rgb(153,153,153)"/>
</g></g>
<line x1="94.41" y1="258.60" x2="153.67" y2="303.56" style="stroke-width:1.69;stroke:rgb(153,153,153)"/>
<!-- Arc:    33   47 -->
<g transform="translate(350.01 171.42)">
<g transform="rotate(509.23)">
<path d="M 0 0 L -3.00 7.49 L 14.99 0 L -3.00 -7.49 z" style="fill:rgb(153,153,153)"/>
</g></g>
<line x1="424.33" y1="127.16" x2="350.01" y2="171.42" style="stroke-width:4.61;stroke:rgb(153,153,153)"/>
<!-- Arc:    34   55 -->
<g transform="translate(470.81 235.10)">
<g transform="rotate(487.62)">
<path d="M 0 0 L -0.65 1.62 L 3.25 0 L -0.65 -1.62 z" style="fill:rgb(153,153,153)"/>
</g></g>
<line x1="500.47" y1="196.62" x2="470.81" y2="235.10" style="stroke-width:1.00;stroke:rgb(153,153,153)"/>
<!-- Arc:    35   47 -->
<g transform="translate(296.42 182.39)">
<g transform="rotate(369.71)">
<path d="M 0 0 L -2.41 6.03 L 12.05 0 L -2.41 -6.03 z" style="fill:rgb(153,153,153)"/>
</g></g>
<line x1="217.24" y1="168.84" x2="296.42" y2="182.39" style="stroke-width:3.71;stroke:rgb(153,153,153)"/>
<!-- Arc:    36   18 -->
<g transform="translate(515.21 290.86)">
<g transform="rotate(513.24)">
<path d="M 0 0 L -2.45 6.13 L 12.26 0 L -2.45 -6.13 z" style="fill:rgb(153,153,153)"/>
</g></g>
<line x1="589.80" y1="253.26" x2="515.21" y2="290.86" style="stroke-width:3.77;stroke:rgb(153,153,153)"/>
<!-- Arc:    37   11 -->
<g transform="translate(276.74 457.49)">
<g transform="rotate(314.12)">
<path d="M 0 0 L -1.36 3.41 L 6.82 0 L -1.36 -3.41 z" style="fill:rgb(153,153,153)"/>
</g></g>
<line x1="240.59" y1="494.76" x2="276.74" y2="457.49" style="stroke-width:2.10;stroke:rgb(153,153,153)"/>
<!-- Arc:    38   58 -->
<g transform="translate(465.81 492.49)">
<g transform="rotate(502.93)">
<path d="M 0 0 L -2.15 5.37 L 10.73 0 L -2.15 -5.37 z" style="fill:rgb(153,153,153)"/>
</g></g>
<line x1="527.88" y1="445.61" x2="465.81" y2="492.49" style="stroke-width:3.30;stroke:rgb(153,153,153)"/>
<!-- Arc:    40   18 -->
<g transform="translate(514.27 314.54)">
<g transform="rotate(204.53)">
<path d="M 0 0 L -2.15 5.37 L 10.73 0 L -2.15 -5.37 z" style="fill:rgb(153,153,153)"/>
</g></g>
<line x1="583.71" y1="346.23" x2="514.27" y2="314.54" style="stroke-width:3.30;stroke:rgb(153,153,153)"/>
<!-- Arc:    41   58 -->
<g transform="translate(463.63 509.34)">
<g transform="rotate(182.53)">
<path d="M 0 0 L -0.65 1.62 L 3.25 0 L -0.65 -1.62 z" style="fill:rgb(153,153,153)"/>
</g></g>
<line x1="545.14" y1="512.93" x2="463.63" y2="509.34" style="stroke-width:1.00;stroke:rgb(153,153,153)"/>
<!-- Arc:    42   20 -->
<g transform="translate(371.58 390.14)">
<g transform="rotate(279.76)">
<path d="M 0 0 L -4.82 12.05 L 24.09 0 L -4.82 -12.05 z" style="fill:rgb(153,153,153)"/>
</g></g>
<line x1="362.41" y1="443.47" x2="371.58" y2="390.14" style="stroke-width:7.41;stroke:rgb(153,153,153)"/>
<!-- Arc:    43   54 -->
<g transform="translate(622.46 589.47)">
<g transform="rotate(238.11)">
<path d="M 0 0 L -4.05 10.12 L 20.23 0 L -4.05 -10.12 z" style="fill:rgb(153,153,153)"/>
</g></g>
<line x1="646.65" y1="628.34" x2="622.46" y2="589.47" style="stroke-width:6.23;stroke:rgb(153,153,153)"/>
<!-- Arc:    44   20 -->
<g transform="translate(342.88 365.39)">
<g transform="rotate(337.85)">
<path d="M 0 0 L -4.53 11.33 L 22.66 0 L -4.53 -11.33 z" style="fill:rgb(153,153,153)"/>
</g></g>
<line x1="263.94" y1="397.52" x2="342.88" y2="365.39" style="stroke-width:6.97;stroke:rgb(153,153,153)"/>
<!-- Arc:    45   58 -->
<g transform="translate(472.98 528.00)">
<g transform="rotate(214.66)">
<path d="M 0 0 L -3.75 9.36 L 18.73 0 L -3.75 -9.36 z" style="fill:rgb(153,153,153)"/>
</g></g>
<line x1="523.82" y1="563.15" x2="472.98" y2="528.00" style="stroke-width:5.76;stroke:rgb(153,153,153)"/>
<!-- Arc:    46   20 -->
<g transform="translate(406.17 353.47)">
<g transform="rotate(185.24)">
<path d="M 0 0 L -2.45 6.13 L 12.26 0 L -2.45 -6.13 z" style="fill:rgb(153,153,153)"/>
</g></g>
<line x1="466.97" y1="359.05" x2="406.17" y2="353.47" style="stroke-width:3.77;stroke:rgb(153,153,153)"/>
<!-- Arc:    47   20 -->
<g transform="translate(366.35 314.64)">
<g transform="rotate(431.51)">
<path d="M 0 0 L -4.53 11.32 L 22.63 0 L -4.53 -11.32 z" style="fill:rgb(153,153,153)"/>
</g></g>
<line x1="323.72" y1="187.14" x2="366.35" y2="314.64" style="stroke-width:6.96;stroke:rgb(153,153,153)"/>
<!-- Arc:    49   13 -->
<g transform="translate(228.73 339.28)">
<g transform="rotate(381.55)">
<path d="M 0 0 L -2.92 7.31 L 14.61 0 L -2.92 -7.31 z" style="fill:rgb(153,153,153)"/>
</g></g>
<line x1="170.55" y1="316.31" x2="228.73" y2="339.28" style="stroke-width:4.50;stroke:rgb(153,153,153)"/>
<!-- Arc:    50   13 -->
<g transform="translate(224.94 364.88)">
<g transform="rotate(335.55)">
<path d="M 0 0 L -3.87 9.67 L 19.33 0 L -3.87 -9.67 z" style="fill:rgb(153,153,153)"/>
</g></g>
<line x1="176.64" y1="386.83" x2="224.94" y2="364.88" style="stroke-width:5.95;stroke:rgb(153,153,153)"/>
<!-- Arc:    51   20 -->
<g transform="translate(348.99 340.94)">
<g transform="rotate(378.75)">
<path d="M 0 0 L -3.08 7.70 L 15.40 0 L -3.08 -7.70 z" style="fill:rgb(153,153,153)"/>
</g></g>
<line x1="298.45" y1="323.79" x2="348.99" y2="340.94" style="stroke-width:4.74;stroke:rgb(153,153,153)"/>
<!-- Arc:    52   18 -->
<g transform="translate(513.45 272.97)">
<g transform="rotate(487.27)">
<path d="M 0 0 L -4.53 11.32 L 22.64 0 L -4.53 -11.32 z" style="fill:rgb(153,153,153)"/>
</g></g>
<line x1="555.29" y1="218.00" x2="513.45" y2="272.97" style="stroke-width:6.97;stroke:rgb(153,153,153)"/>
<!-- Arc:    54   58 -->
<g transform="translate(480.99 520.01)">
<g transform="rotate(197.66)">
<path d="M 0 0 L -4.48 11.20 L 22.41 0 L -4.48 -11.20 z" style="fill:rgb(153,153,153)"/>
</g></g>
<line x1="603.48" y1="559.02" x2="480.99" y2="520.01" style="stroke-width:6.89;stroke:rgb(153,153,153)"/>
<!-- Arc:    55   20 -->
<g transform="translate(403.87 319.24)">
<g transform="rotate(488.64)">
<path d="M 0 0 L -5.01 12.53 L 25.06 0 L -5.01 -12.53 z" style="fill:rgb(153,153,153)"/>
</g></g>
<line x1="459.20" y1="250.01" x2="403.87" y2="319.24" style="stroke-width:7.71;stroke:rgb(153,153,153)"/>
<!-- Arc:    56   20 -->
<g transform="translate(401.78 370.75)">
<g transform="rotate(220.34)">
<path d="M 0 0 L -3.00 7.49 L 14.99 0 L -3.00 -7.49 z" style="fill:rgb(153,153,153)"/>
</g></g>
<line x1="444.64" y1="407.14" x2="401.78" y2="370.75" style="stroke-width:4.61;stroke:rgb(153,153,153)"/>
<!-- Arc:    57   47 -->
<g transform="translate(292.38 192.56)">
<g transform="rotate(350.34)">
<path d="M 0 0 L -3.23 8.08 L 16.15 0 L -3.23 -8.08 z" style="fill:rgb(153,153,153)"/>
</g></g>
<line x1="218.26" y1="205.17" x2="292.38" y2="192.56" style="stroke-width:4.97;stroke:rgb(153,153,153)"/>
<!-- Edge:    20   58 -->
<line x1="378.37" y1="350.98" x2="444.75" y2="508.38" style="stroke-width:15.77;stroke:rgb(0,112,145)"/>

<!-- Vertex:     1 -->
<ellipse cx="170.55" cy="683.91" rx="14.40" ry="14.40" style="fill:rgb(255,255,0);stroke:rgb(102,0,0);stroke-width:0.50;"/>
<text x="170.55" y="688.91" style="font-family:Arial;font-weight: bold;font-size:15px;fill:rgb(173,0,0);text-anchor:middle;">AX</text>
<!-- Vertex:     2 -->
<ellipse cx="523.82" cy="718.10" rx="14.40" ry="14.40" style="fill:rgb(127,255,0);stroke:rgb(102,0,0);stroke-width:0.50;"/>
<text x="523.82" y="723.10" style="font-family:Arial;font-weight: bold;font-size:15px;fill:rgb(173,0,0);text-anchor:middle;">AL</text>
<!-- Vertex:     3 -->
<ellipse cx="49.74" cy="682.84" rx="14.40" ry="14.40" style="fill:rgb(204,204,255);stroke:rgb(102,0,0);stroke-width:0.50;"/>
<text x="49.74" y="687.84" style="font-family:Arial;font-weight: bold;font-size:15px;fill:rgb(173,0,0);text-anchor:middle;">AD</text>
<!-- Vertex:     4 -->
<ellipse cx="323.83" cy="69.46" rx="14.40" ry="14.40" style="fill:rgb(127,255,0);stroke:rgb(102,0,0);stroke-width:0.50;"/>
<text x="323.83" y="74.46" style="font-family:Arial;font-weight: bold;font-size:15px;fill:rgb(173,0,0);text-anchor:middle;">AM</text>
<!-- Vertex:     5 -->
<ellipse cx="320.79" cy="287.45" rx="14.40" ry="14.40" style="fill:rgb(127,255,0);stroke:rgb(102,0,0);stroke-width:0.50;"/>
<text x="320.79" y="292.45" style="font-family:Arial;font-weight: bold;font-size:15px;fill:rgb(173,0,0);text-anchor:middle;">AT</text>
<!-- Vertex:     6 -->
<ellipse cx="245.67" cy="102.59" rx="14.40" ry="14.40" style="fill:rgb(127,255,0);stroke:rgb(102,0,0);stroke-width:0.50;"/>
<text x="245.67" y="107.59" style="font-family:Arial;font-weight: bold;font-size:15px;fill:rgb(173,0,0);text-anchor:middle;">AZ</text>
<!-- Vertex:     7 -->
<ellipse cx="225.36" cy="133.58" rx="14.40" ry="14.40" style="fill:rgb(127,255,0);stroke:rgb(102,0,0);stroke-width:0.50;"/>
<text x="225.36" y="138.58" style="font-family:Arial;font-weight: bold;font-size:15px;fill:rgb(173,0,0);text-anchor:middle;">BY</text>
<!-- Vertex:     8 -->
<ellipse cx="592.85" cy="294.93" rx="14.40" ry="14.40" style="fill:rgb(127,255,0);stroke:rgb(102,0,0);stroke-width:0.50;"/>
<text x="592.85" y="299.93" style="font-family:Arial;font-weight: bold;font-size:15px;fill:rgb(173,0,0);text-anchor:middle;">BE</text>
<!-- Vertex:     9 -->
<ellipse cx="89.33" cy="364.39" rx="14.40" ry="14.40" style="fill:rgb(127,255,0);stroke:rgb(102,0,0);stroke-width:0.50;"/>
<text x="89.33" y="369.39" style="font-family:Arial;font-weight: bold;font-size:15px;fill:rgb(173,0,0);text-anchor:middle;">BA</text>
<!-- Vertex:    10 -->
<ellipse cx="282.21" cy="80.15" rx="14.40" ry="14.40" style="fill:rgb(127,255,0);stroke:rgb(102,0,0);stroke-width:0.50;"/>
<text x="282.21" y="85.15" style="font-family:Arial;font-weight: bold;font-size:15px;fill:rgb(173,0,0);text-anchor:middle;">BG</text>
<!-- Vertex:    11 -->
<ellipse cx="292.36" cy="441.33" rx="14.40" ry="14.40" style="fill:rgb(127,255,0);stroke:rgb(102,0,0);stroke-width:0.50;"/>
<text x="292.36" y="446.33" style="font-family:Arial;font-weight: bold;font-size:15px;fill:rgb(173,0,0);text-anchor:middle;">HR</text>
<!-- Vertex:    12 -->
<ellipse cx="398.95" cy="734.13" rx="14.40" ry="14.40" style="fill:rgb(127,255,0);stroke:rgb(102,0,0);stroke-width:0.50;"/>
<text x="398.95" y="739.13" style="font-family:Arial;font-weight: bold;font-size:15px;fill:rgb(173,0,0);text-anchor:middle;">CY</text>
<!-- Vertex:    13 -->
<ellipse cx="256.83" cy="350.50" rx="14.40" ry="14.40" style="fill:rgb(127,255,0);stroke:rgb(102,0,0);stroke-width:0.50;"/>
<text x="256.83" y="355.50" style="font-family:Arial;font-weight: bold;font-size:15px;fill:rgb(173,0,0);text-anchor:middle;">CZ</text>
<!-- Vertex:    14 -->
<ellipse cx="339.63" cy="635.67" rx="14.40" ry="14.40" style="fill:rgb(127,255,0);stroke:rgb(102,0,0);stroke-width:0.50;"/>
<text x="339.63" y="640.67" style="font-family:Arial;font-weight: bold;font-size:15px;fill:rgb(173,0,0);text-anchor:middle;">DK</text>
<!-- Vertex:    15 -->
<ellipse cx="364.44" cy="78.01" rx="14.40" ry="14.40" style="fill:rgb(127,255,0);stroke:rgb(102,0,0);stroke-width:0.50;"/>
<text x="364.44" y="83.01" style="font-family:Arial;font-weight: bold;font-size:15px;fill:rgb(173,0,0);text-anchor:middle;">EE</text>
<!-- Vertex:    16 -->
<ellipse cx="286.27" cy="693.52" rx="14.40" ry="14.40" style="fill:rgb(127,255,0);stroke:rgb(102,0,0);stroke-width:0.50;"/>
<text x="286.27" y="698.52" style="font-family:Arial;font-weight: bold;font-size:15px;fill:rgb(173,0,0);text-anchor:middle;">FO</text>
<!-- Vertex:    17 -->
<ellipse cx="687.26" cy="541.78" rx="14.40" ry="14.40" style="fill:rgb(127,255,0);stroke:rgb(102,0,0);stroke-width:0.50;"/>
<text x="687.26" y="546.78" style="font-family:Arial;font-weight: bold;font-size:15px;fill:rgb(173,0,0);text-anchor:middle;">FI</text>
<!-- Vertex:    18 -->
<ellipse cx="490.32" cy="303.48" rx="14.40" ry="14.40" style="fill:rgb(127,255,0);stroke:rgb(102,0,0);stroke-width:0.50;"/>
<text x="490.32" y="308.48" style="font-family:Arial;font-weight: bold;font-size:15px;fill:rgb(173,0,0);text-anchor:middle;">FR</text>
<!-- Vertex:    19 -->
<ellipse cx="398.95" cy="99.38" rx="14.40" ry="14.40" style="fill:rgb(127,255,0);stroke:rgb(102,0,0);stroke-width:0.50;"/>
<text x="398.95" y="104.38" style="font-family:Arial;font-weight: bold;font-size:15px;fill:rgb(173,0,0);text-anchor:middle;">GE</text>
<!-- Vertex:    20 -->
<ellipse cx="378.37" cy="350.98" rx="14.40" ry="14.40" style="fill:rgb(127,255,0);stroke:rgb(102,0,0);stroke-width:0.50;"/>
<text x="378.37" y="355.98" style="font-family:Arial;font-weight: bold;font-size:15px;fill:rgb(173,0,0);text-anchor:middle;">DE</text>
<!-- Vertex:    21 -->
<ellipse cx="449.71" cy="605.90" rx="14.40" ry="14.40" style="fill:rgb(127,255,0);stroke:rgb(102,0,0);stroke-width:0.50;"/>
<text x="449.71" y="610.90" style="font-family:Arial;font-weight: bold;font-size:15px;fill:rgb(173,0,0);text-anchor:middle;">GI</text>
<!-- Vertex:    22 -->
<ellipse cx="415.00" cy="663.08" rx="14.40" ry="14.40" style="fill:rgb(127,255,0);stroke:rgb(102,0,0);stroke-width:0.50;"/>
<text x="415.00" y="668.08" style="font-family:Arial;font-weight: bold;font-size:15px;fill:rgb(173,0,0);text-anchor:middle;">GR</text>
<!-- Vertex:    23 -->
<ellipse cx="501.48" cy="587.73" rx="14.40" ry="14.40" style="fill:rgb(127,255,0);stroke:rgb(102,0,0);stroke-width:0.50;"/>
<text x="501.48" y="592.73" style="font-family:Arial;font-weight: bold;font-size:15px;fill:rgb(173,0,0);text-anchor:middle;">GG</text>
<!-- Vertex:    24 -->
<ellipse cx="197.95" cy="428.51" rx="14.40" ry="14.40" style="fill:rgb(127,255,0);stroke:rgb(102,0,0);stroke-width:0.50;"/>
<text x="197.95" y="433.51" style="font-family:Arial;font-weight: bold;font-size:15px;fill:rgb(173,0,0);text-anchor:middle;">VA</text>
<!-- Vertex:    25 -->
<ellipse cx="394.89" cy="269.29" rx="14.40" ry="14.40" style="fill:rgb(127,255,0);stroke:rgb(102,0,0);stroke-width:0.50;"/>
<text x="394.89" y="274.29" style="font-family:Arial;font-weight: bold;font-size:15px;fill:rgb(173,0,0);text-anchor:middle;">HU</text>
<!-- Vertex:    26 -->
<ellipse cx="396.92" cy="600.56" rx="14.40" ry="14.40" style="fill:rgb(127,255,0);stroke:rgb(102,0,0);stroke-width:0.50;"/>
<text x="396.92" y="605.56" style="font-family:Arial;font-weight: bold;font-size:15px;fill:rgb(173,0,0);text-anchor:middle;">IS</text>
<!-- Vertex:    27 -->
<ellipse cx="350.23" cy="517.20" rx="14.40" ry="14.40" style="fill:rgb(127,255,0);stroke:rgb(102,0,0);stroke-width:0.50;"/>
<text x="350.23" y="522.20" style="font-family:Arial;font-weight: bold;font-size:15px;fill:rgb(173,0,0);text-anchor:middle;">IE</text>
<!-- Vertex:    28 -->
<ellipse cx="542.09" cy="479.80" rx="14.40" ry="14.40" style="fill:rgb(127,255,0);stroke:rgb(102,0,0);stroke-width:0.50;"/>
<text x="542.09" y="484.80" style="font-family:Arial;font-weight: bold;font-size:15px;fill:rgb(173,0,0);text-anchor:middle;">IM</text>
<!-- Vertex:    29 -->
<ellipse cx="498.97" cy="651.62" rx="14.40" ry="14.40" style="fill:rgb(127,255,0);stroke:rgb(102,0,0);stroke-width:0.50;"/>
<text x="498.97" y="656.62" style="font-family:Arial;font-weight: bold;font-size:15px;fill:rgb(173,0,0);text-anchor:middle;">IT</text>
<!-- Vertex:    30 -->
<ellipse cx="355.30" cy="558.88" rx="14.40" ry="14.40" style="fill:rgb(127,255,0);stroke:rgb(102,0,0);stroke-width:0.50;"/>
<text x="355.30" y="563.88" style="font-family:Arial;font-weight: bold;font-size:15px;fill:rgb(173,0,0);text-anchor:middle;">JE</text>
<!-- Vertex:    31 -->
<ellipse cx="232.47" cy="238.30" rx="14.40" ry="14.40" style="fill:rgb(127,255,0);stroke:rgb(102,0,0);stroke-width:0.50;"/>
<text x="232.47" y="243.30" style="font-family:Arial;font-weight: bold;font-size:15px;fill:rgb(173,0,0);text-anchor:middle;">KZ</text>
<!-- Vertex:    32 -->
<ellipse cx="94.41" cy="258.60" rx="14.40" ry="14.40" style="fill:rgb(127,255,0);stroke:rgb(102,0,0);stroke-width:0.50;"/>
<text x="94.41" y="263.60" style="font-family:Arial;font-weight: bold;font-size:15px;fill:rgb(173,0,0);text-anchor:middle;">XK</text>
<!-- Vertex:    33 -->
<ellipse cx="424.33" cy="127.16" rx="14.40" ry="14.40" style="fill:rgb(127,255,0);stroke:rgb(102,0,0);stroke-width:0.50;"/>
<text x="424.33" y="132.16" style="font-family:Arial;font-weight: bold;font-size:15px;fill:rgb(173,0,0);text-anchor:middle;">LV</text>
<!-- Vertex:    34 -->
<ellipse cx="500.47" cy="196.62" rx="14.40" ry="14.40" style="fill:rgb(127,255,0);stroke:rgb(102,0,0);stroke-width:0.50;"/>
<text x="500.47" y="201.62" style="font-family:Arial;font-weight: bold;font-size:15px;fill:rgb(173,0,0);text-anchor:middle;">LI</text>
<!-- Vertex:    35 -->
<ellipse cx="217.24" cy="168.84" rx="14.40" ry="14.40" style="fill:rgb(127,255,0);stroke:rgb(102,0,0);stroke-width:0.50;"/>
<text x="217.24" y="173.84" style="font-family:Arial;font-weight: bold;font-size:15px;fill:rgb(173,0,0);text-anchor:middle;">LT</text>
<!-- Vertex:    36 -->
<ellipse cx="589.80" cy="253.26" rx="14.40" ry="14.40" style="fill:rgb(127,255,0);stroke:rgb(102,0,0);stroke-width:0.50;"/>
<text x="589.80" y="258.26" style="font-family:Arial;font-weight: bold;font-size:15px;fill:rgb(173,0,0);text-anchor:middle;">LU</text>
<!-- Vertex:    37 -->
<ellipse cx="240.59" cy="494.76" rx="14.40" ry="14.40" style="fill:rgb(127,255,0);stroke:rgb(102,0,0);stroke-width:0.50;"/>
<text x="240.59" y="499.76" style="font-family:Arial;font-weight: bold;font-size:15px;fill:rgb(173,0,0);text-anchor:middle;">MK</text>
<!-- Vertex:    38 -->
<ellipse cx="527.88" cy="445.61" rx="14.40" ry="14.40" style="fill:rgb(127,255,0);stroke:rgb(102,0,0);stroke-width:0.50;"/>
<text x="527.88" y="450.61" style="font-family:Arial;font-weight: bold;font-size:15px;fill:rgb(173,0,0);text-anchor:middle;">MT</text>
<!-- Vertex:    39 -->
<ellipse cx="110.65" cy="737.34" rx="14.40" ry="14.40" style="fill:rgb(204,255,255);stroke:rgb(102,0,0);stroke-width:0.50;"/>
<text x="110.65" y="742.34" style="font-family:Arial;font-weight: bold;font-size:15px;fill:rgb(173,0,0);text-anchor:middle;">MD</text>
<!-- Vertex:    40 -->
<ellipse cx="583.71" cy="346.23" rx="14.40" ry="14.40" style="fill:rgb(127,255,0);stroke:rgb(102,0,0);stroke-width:0.50;"/>
<text x="583.71" y="351.23" style="font-family:Arial;font-weight: bold;font-size:15px;fill:rgb(173,0,0);text-anchor:middle;">MC</text>
<!-- Vertex:    41 -->
<ellipse cx="545.14" cy="512.93" rx="14.40" ry="14.40" style="fill:rgb(127,255,0);stroke:rgb(102,0,0);stroke-width:0.50;"/>
<text x="545.14" y="517.93" style="font-family:Arial;font-weight: bold;font-size:15px;fill:rgb(173,0,0);text-anchor:middle;">ME</text>
<!-- Vertex:    42 -->
<ellipse cx="362.41" cy="443.47" rx="14.40" ry="14.40" style="fill:rgb(127,255,0);stroke:rgb(102,0,0);stroke-width:0.50;"/>
<text x="362.41" y="448.47" style="font-family:Arial;font-weight: bold;font-size:15px;fill:rgb(173,0,0);text-anchor:middle;">NL</text>
<!-- Vertex:    43 -->
<ellipse cx="646.65" cy="628.34" rx="14.40" ry="14.40" style="fill:rgb(127,255,0);stroke:rgb(102,0,0);stroke-width:0.50;"/>
<text x="646.65" y="633.34" style="font-family:Arial;font-weight: bold;font-size:15px;fill:rgb(173,0,0);text-anchor:middle;">NO</text>
<!-- Vertex:    44 -->
<ellipse cx="263.94" cy="397.52" rx="14.40" ry="14.40" style="fill:rgb(127,255,0);stroke:rgb(102,0,0);stroke-width:0.50;"/>
<text x="263.94" y="402.52" style="font-family:Arial;font-weight: bold;font-size:15px;fill:rgb(173,0,0);text-anchor:middle;">PL</text>
<!-- Vertex:    45 -->
<ellipse cx="523.82" cy="563.15" rx="14.40" ry="14.40" style="fill:rgb(127,255,0);stroke:rgb(102,0,0);stroke-width:0.50;"/>
<text x="523.82" y="568.15" style="font-family:Arial;font-weight: bold;font-size:15px;fill:rgb(173,0,0);text-anchor:middle;">PT</text>
<!-- Vertex:    46 -->
<ellipse cx="466.97" cy="359.05" rx="14.40" ry="14.40" style="fill:rgb(127,255,0);stroke:rgb(102,0,0);stroke-width:0.50;"/>
<text x="466.97" y="364.05" style="font-family:Arial;font-weight: bold;font-size:15px;fill:rgb(173,0,0);text-anchor:middle;">RO</text>
<!-- Vertex:    47 -->
<ellipse cx="323.72" cy="187.14" rx="14.40" ry="14.40" style="fill:rgb(127,255,0);stroke:rgb(102,0,0);stroke-width:0.50;"/>
<text x="323.72" y="192.14" style="font-family:Arial;font-weight: bold;font-size:15px;fill:rgb(173,0,0);text-anchor:middle;">RU</text>
<!-- Vertex:    48 -->
<ellipse cx="48.73" cy="736.27" rx="14.40" ry="14.40" style="fill:rgb(255,216,242);stroke:rgb(102,0,0);stroke-width:0.50;"/>
<text x="48.73" y="741.27" style="font-family:Arial;font-weight: bold;font-size:15px;fill:rgb(173,0,0);text-anchor:middle;">SM</text>
<!-- Vertex:    49 -->
<ellipse cx="170.55" cy="316.31" rx="14.40" ry="14.40" style="fill:rgb(127,255,0);stroke:rgb(102,0,0);stroke-width:0.50;"/>
<text x="170.55" y="321.31" style="font-family:Arial;font-weight: bold;font-size:15px;fill:rgb(173,0,0);text-anchor:middle;">RS</text>
<!-- Vertex:    50 -->
<ellipse cx="176.64" cy="386.83" rx="14.40" ry="14.40" style="fill:rgb(127,255,0);stroke:rgb(102,0,0);stroke-width:0.50;"/>
<text x="176.64" y="391.83" style="font-family:Arial;font-weight: bold;font-size:15px;fill:rgb(173,0,0);text-anchor:middle;">SK</text>
<!-- Vertex:    51 -->
<ellipse cx="298.45" cy="323.79" rx="14.40" ry="14.40" style="fill:rgb(127,255,0);stroke:rgb(102,0,0);stroke-width:0.50;"/>
<text x="298.45" y="328.79" style="font-family:Arial;font-weight: bold;font-size:15px;fill:rgb(173,0,0);text-anchor:middle;">SI</text>
<!-- Vertex:    52 -->
<ellipse cx="555.29" cy="218.00" rx="14.40" ry="14.40" style="fill:rgb(127,255,0);stroke:rgb(102,0,0);stroke-width:0.50;"/>
<text x="555.29" y="223.00" style="font-family:Arial;font-weight: bold;font-size:15px;fill:rgb(173,0,0);text-anchor:middle;">ES</text>
<!-- Vertex:    53 -->
<ellipse cx="109.64" cy="681.77" rx="14.40" ry="14.40" style="fill:rgb(255,255,255);stroke:rgb(102,0,0);stroke-width:0.50;"/>
<text x="109.64" y="686.77" style="font-family:Arial;font-weight: bold;font-size:15px;fill:rgb(173,0,0);text-anchor:middle;">SJ</text>
<!-- Vertex:    54 -->
<ellipse cx="603.48" cy="559.02" rx="14.40" ry="14.40" style="fill:rgb(127,255,0);stroke:rgb(102,0,0);stroke-width:0.50;"/>
<text x="603.48" y="564.02" style="font-family:Arial;font-weight: bold;font-size:15px;fill:rgb(173,0,0);text-anchor:middle;">SE</text>
<!-- Vertex:    55 -->
<ellipse cx="459.20" cy="250.01" rx="14.40" ry="14.40" style="fill:rgb(127,255,0);stroke:rgb(102,0,0);stroke-width:0.50;"/>
<text x="459.20" y="255.01" style="font-family:Arial;font-weight: bold;font-size:15px;fill:rgb(173,0,0);text-anchor:middle;">CH</text>
<!-- Vertex:    56 -->
<ellipse cx="444.64" cy="407.14" rx="14.40" ry="14.40" style="fill:rgb(127,255,0);stroke:rgb(102,0,0);stroke-width:0.50;"/>
<text x="444.64" y="412.14" style="font-family:Arial;font-weight: bold;font-size:15px;fill:rgb(173,0,0);text-anchor:middle;">TR</text>
<!-- Vertex:    57 -->
<ellipse cx="218.26" cy="205.17" rx="14.40" ry="14.40" style="fill:rgb(127,255,0);stroke:rgb(102,0,0);stroke-width:0.50;"/>
<text x="218.26" y="210.17" style="font-family:Arial;font-weight: bold;font-size:15px;fill:rgb(173,0,0);text-anchor:middle;">UA</text>
<!-- Vertex:    58 -->
<ellipse cx="444.75" cy="508.38" rx="14.40" ry="14.40" style="fill:rgb(127,255,0);stroke:rgb(102,0,0);stroke-width:0.50;"/>
<text x="444.75" y="513.38" style="font-family:Arial;font-weight: bold;font-size:15px;fill:rgb(173,0,0);text-anchor:middle;">GB</text>
</g>         <!-- Layer Network -->
</svg>
