<?xml version="1.0" encoding="UTF-8"?>
<!-- Title: 13. EU 2020 1-neighbors (58) -->
<!-- Creator: Pajek 5.19: http://mrvar.fdv.uni-lj.si/pajek -->
<!-- CreationDate: 05-25-2024, 3:15:42 -->
<svg xml:space="preserve" viewBox="0 0 877 858" xmlns="http://www.w3.org/2000/svg" xmlns:xlink="http://www.w3.org/1999/xlink" xmlns:inkscape="http://www.inkscape.org/namespaces/inkscape">
<title>13. EU 2020 1-neighbors (58)</title>
<g inkscape:groupmode="layer" id="PajekSig" inkscape:label="PajekSignature">
<g transform="translate(3 840)">
<g transform="scale(0.1)">
<g transform="matrix(1 0 0 -1 0 96)">
<path d="M   7.67  49.98 L  31.76  72.76 L  46.91  78.63
         L  57.23  80.49 M  72.86  65.23 L  65.73  83.25
         L  57.06  75.49 L  56.75  68.65 M  76.27  68.03
         L  75.65  84.50 L  93.92  91.02 L 107.24  74.87
         M  80.29  67.72 L  89.28  84.81 L 104.77  81.70
         L 116.23  73.31 L 121.18  59.33 M  56.75  81.08
         L  71.31  64.30"
         style="fill:none; stroke:saddlebrown; stroke-width:5;"/>
<path d="M  86.18  70.21 L  91.45  73.00 L  95.78  69.58
         M  91.14  60.88 L  96.09  62.75 L  98.26  59.33"
         style="fill:none; stroke:saddlebrown; stroke-width:1.5;"/>
<path d="M  81.07  49.08 L  87.81  49.08 L  93.30  54.38
         L  93.30  60.88 L  93.30  67.39 L  87.81  72.69
         L  81.07  72.69 L  74.33  72.69 L  68.83  67.39
         L  68.83  60.88 L  68.83  54.38 L  74.33  49.08
         L  81.07  49.08 z"
         style="fill:maroon; stroke:saddlebrown; stroke-width:1;"/>
<path d="M  54.63  37.53 L  68.53  43.56 L  75.39  55.85
         L  69.90  65.35 L  64.41  72.86 L  48.60  74.06
         L  34.71  68.04 L  20.81  55.02 L  15.95  40.72
         L  17.44  33.22 L  24.92  28.72 L  40.73  30.51
         L  54.63  37.53 z"
         style="fill:maroon; stroke:saddlebrown; stroke-width:1;" />
<path d="M  77.82  50.63 L 103.84  59.33 L 131.10  43.80
         L 139.46  27.95 L 139.15  15.83 M  35.99   5.27
         L  47.15  32.92 L  61.71  50.01 L  70.07  46.90
         L  82.77  45.04 L  83.39  27.02 L  65.42  12.11
         M  68.52  50.63 L  91.14  49.39 L 103.53  43.17
         L 117.16  22.67 L 115.30   8.38"
         style="fill:none; stroke:saddlebrown; stroke-width:5;"/>
<path d="M  41.57  54.98 L  60.16  64.61 M  52.41  66.17
         L  57.99  57.47"
         style="fill:none; stroke:white; stroke-width:5;"/>
</g>
</g>
<animateMotion dur="20s" path="M3 0 L859 0" begin="120s" fill="freeze"/>
</g>
<g transform="translate(3 840)">
<g transform="scale(0.1)">
<text x="5" y="140" style="font-family:Brush Script MT;font-size:75px;fill:green;">Pajek</text>
</g>
<animateMotion dur="0.1s" path="M3 0 L859 0" begin="120s" fill="freeze"/>
</g>
</g>      <!-- Layer Signature -->

<g inkscape:groupmode="layer" id="PajekNet" inkscape:label="PajekNetwork">

<!-- Arc:     1   54 -->
<g transform="translate(195.41 499.95)">
<g transform="rotate(330.80)">
<path d="M 0 0 L -1.10 2.75 L 5.50 0 L -1.10 -2.75 z" style="fill:rgb(153,153,153)"/>
</g></g>
<line x1="144.64" y1="528.33" x2="195.41" y2="499.95" style="stroke-width:1.69;stroke:rgb(153,153,153)"/>
<!-- Arc:     2   29 -->
<g transform="translate(395.06 242.96)">
<g transform="rotate(528.66)">
<path d="M 0 0 L -4.13 10.33 L 20.66 0 L -4.13 -10.33 z" style="fill:rgb(153,153,153)"/>
</g></g>
<line x1="455.31" y1="230.88" x2="395.06" y2="242.96" style="stroke-width:6.36;stroke:rgb(153,153,153)"/>
<!-- Arc:     3   52 -->
<g transform="translate(167.06 439.33)">
<g transform="rotate(332.76)">
<path d="M 0 0 L -3.05 7.62 L 15.24 0 L -3.05 -7.62 z" style="fill:rgb(153,153,153)"/>
</g></g>
<line x1="113.06" y1="467.12" x2="167.06" y2="439.33" style="stroke-width:4.69;stroke:rgb(153,153,153)"/>
<!-- Arc:     4   47 -->
<g transform="translate(619.52 666.74)">
<g transform="rotate(183.25)">
<path d="M 0 0 L -4.26 10.65 L 21.30 0 L -4.26 -10.65 z" style="fill:rgb(153,153,153)"/>
</g></g>
<line x1="678.38" y1="670.08" x2="619.52" y2="666.74" style="stroke-width:6.55;stroke:rgb(153,153,153)"/>
<!-- Arc:     5   20 -->
<g transform="translate(460.36 558.13)">
<g transform="rotate(528.14)">
<path d="M 0 0 L -6.64 16.59 L 33.19 0 L -6.64 -16.59 z" style="fill:rgb(153,153,153)"/>
</g></g>
<line x1="535.77" y1="542.29" x2="460.36" y2="558.13" style="stroke-width:10.21;stroke:rgb(153,153,153)"/>
<!-- Arc:     6   47 -->
<g transform="translate(609.20 690.36)">
<g transform="rotate(223.98)">
<path d="M 0 0 L -4.26 10.64 L 21.28 0 L -4.26 -10.64 z" style="fill:rgb(153,153,153)"/>
</g></g>
<line x1="654.95" y1="734.51" x2="609.20" y2="690.36" style="stroke-width:6.55;stroke:rgb(153,153,153)"/>
<!-- Arc:     7   47 -->
<g transform="translate(589.24 705.88)">
<g transform="rotate(260.82)">
<path d="M 0 0 L -5.21 13.02 L 26.05 0 L -5.21 -13.02 z" style="fill:rgb(153,153,153)"/>
</g></g>
<line x1="599.95" y1="772.09" x2="589.24" y2="705.88" style="stroke-width:8.01;stroke:rgb(153,153,153)"/>
<!-- Arc:     8   58 -->
<g transform="translate(331.61 383.37)">
<g transform="rotate(396.13)">
<path d="M 0 0 L -6.51 16.28 L 32.57 0 L -6.51 -16.28 z" style="fill:rgb(153,153,153)"/>
</g></g>
<line x1="293.35" y1="355.44" x2="331.61" y2="383.37" style="stroke-width:10.02;stroke:rgb(153,153,153)"/>
<!-- Arc:     9   49 -->
<g transform="translate(178.17 203.02)">
<g transform="rotate(339.17)">
<path d="M 0 0 L -4.74 11.84 L 23.69 0 L -4.74 -11.84 z" style="fill:rgb(153,153,153)"/>
</g></g>
<line x1="130.38" y1="221.21" x2="178.17" y2="203.02" style="stroke-width:7.29;stroke:rgb(153,153,153)"/>
<!-- Arc:    10   20 -->
<g transform="translate(450.98 580.87)">
<g transform="rotate(198.41)">
<path d="M 0 0 L -4.96 12.40 L 24.80 0 L -4.96 -12.40 z" style="fill:rgb(153,153,153)"/>
</g></g>
<line x1="528.64" y1="606.72" x2="450.98" y2="580.87" style="stroke-width:7.63;stroke:rgb(153,153,153)"/>
<!-- Arc:    11   29 -->
<g transform="translate(376.31 212.45)">
<g transform="rotate(474.28)">
<path d="M 0 0 L -5.11 12.77 L 25.53 0 L -5.11 -12.77 z" style="fill:rgb(153,153,153)"/>
</g></g>
<line x1="403.36" y1="152.49" x2="376.31" y2="212.45" style="stroke-width:7.86;stroke:rgb(153,153,153)"/>
<!-- Arc:    12   22 -->
<g transform="translate(590.73 410.21)">
<g transform="rotate(180.00)">
<path d="M 0 0 L -5.21 13.03 L 26.06 0 L -5.21 -13.03 z" style="fill:rgb(153,153,153)"/>
</g></g>
<line x1="638.65" y1="410.21" x2="590.73" y2="410.21" style="stroke-width:8.02;stroke:rgb(153,153,153)"/>
<!-- Arc:    13   20 -->
<g transform="translate(398.58 611.64)">
<g transform="rotate(287.78)">
<path d="M 0 0 L -6.00 15.00 L 29.99 0 L -6.00 -15.00 z" style="fill:rgb(153,153,153)"/>
</g></g>
<line x1="362.62" y1="723.77" x2="398.58" y2="611.64" style="stroke-width:9.23;stroke:rgb(153,153,153)"/>
<!-- Arc:    14   58 -->
<g transform="translate(415.81 426.66)">
<g transform="rotate(198.30)">
<path d="M 0 0 L -6.39 15.99 L 31.97 0 L -6.39 -15.99 z" style="fill:rgb(153,153,153)"/>
</g></g>
<line x1="531.70" y1="464.97" x2="415.81" y2="426.66" style="stroke-width:9.84;stroke:rgb(153,153,153)"/>
<!-- Arc:    15   20 -->
<g transform="translate(436.66 601.12)">
<g transform="rotate(233.70)">
<path d="M 0 0 L -5.03 12.57 L 25.14 0 L -5.03 -12.57 z" style="fill:rgb(153,153,153)"/>
</g></g>
<line x1="481.79" y1="662.56" x2="436.66" y2="601.12" style="stroke-width:7.74;stroke:rgb(153,153,153)"/>
<!-- Arc:    16   14 -->
<g transform="translate(561.75 475.74)">
<g transform="rotate(199.48)">
<path d="M 0 0 L -3.25 8.14 L 16.27 0 L -3.25 -8.14 z" style="fill:rgb(153,153,153)"/>
</g></g>
<line x1="625.41" y1="498.26" x2="561.75" y2="475.74" style="stroke-width:5.01;stroke:rgb(153,153,153)"/>
<!-- Arc:    17   58 -->
<g transform="translate(399.67 447.26)">
<g transform="rotate(230.47)">
<path d="M 0 0 L -6.05 15.12 L 30.24 0 L -6.05 -15.12 z" style="fill:rgb(153,153,153)"/>
</g></g>
<line x1="432.90" y1="487.52" x2="399.67" y2="447.26" style="stroke-width:9.30;stroke:rgb(153,153,153)"/>
<!-- Arc:    18   58 -->
<g transform="translate(419.69 398.75)">
<g transform="rotate(525.20)">
<path d="M 0 0 L -7.03 17.58 L 35.17 0 L -7.03 -17.58 z" style="fill:rgb(153,153,153)"/>
</g></g>
<line x1="542.90" y1="366.18" x2="419.69" y2="398.75" style="stroke-width:10.82;stroke:rgb(153,153,153)"/>
<!-- Arc:    19   20 -->
<g transform="translate(440.19 591.52)">
<g transform="rotate(220.30)">
<path d="M 0 0 L -4.10 10.25 L 20.50 0 L -4.10 -10.25 z" style="fill:rgb(153,153,153)"/>
</g></g>
<line x1="506.24" y1="647.53" x2="440.19" y2="591.52" style="stroke-width:6.31;stroke:rgb(153,153,153)"/>
<!-- Arc:    21   58 -->
<g transform="translate(360.12 439.08)">
<g transform="rotate(290.88)">
<path d="M 0 0 L -2.72 6.79 L 13.58 0 L -2.72 -6.79 z" style="fill:rgb(153,153,153)"/>
</g></g>
<line x1="339.19" y1="493.97" x2="360.12" y2="439.08" style="stroke-width:4.18;stroke:rgb(153,153,153)"/>
<!-- Arc:    22   58 -->
<g transform="translate(416.54 411.27)">
<g transform="rotate(539.54)">
<path d="M 0 0 L -6.06 15.16 L 30.32 0 L -6.06 -15.16 z" style="fill:rgb(153,153,153)"/>
</g></g>
<line x1="549.02" y1="410.21" x2="416.54" y2="411.27" style="stroke-width:9.33;stroke:rgb(153,153,153)"/>
<!-- Arc:    23   58 -->
<g transform="translate(351.18 430.53)">
<g transform="rotate(315.90)">
<path d="M 0 0 L -2.27 5.66 L 11.33 0 L -2.27 -5.66 z" style="fill:rgb(153,153,153)"/>
</g></g>
<line x1="304.56" y1="475.71" x2="351.18" y2="430.53" style="stroke-width:3.48;stroke:rgb(153,153,153)"/>
<!-- Arc:    24   29 -->
<g transform="translate(332.42 253.42)">
<g transform="rotate(352.62)">
<path d="M 0 0 L -2.32 5.79 L 11.59 0 L -2.32 -5.79 z" style="fill:rgb(153,153,153)"/>
</g></g>
<line x1="257.70" y1="263.09" x2="332.42" y2="253.42" style="stroke-width:3.56;stroke:rgb(153,153,153)"/>
<!-- Arc:    25   20 -->
<g transform="translate(427.51 609.24)">
<g transform="rotate(249.99)">
<path d="M 0 0 L -5.61 14.01 L 28.03 0 L -5.61 -14.01 z" style="fill:rgb(153,153,153)"/>
</g></g>
<line x1="451.23" y1="674.37" x2="427.51" y2="609.24" style="stroke-width:8.62;stroke:rgb(153,153,153)"/>
<!-- Arc:    26   58 -->
<g transform="translate(331.90 407.50)">
<g transform="rotate(366.51)">
<path d="M 0 0 L -4.65 11.63 L 23.26 0 L -4.65 -11.63 z" style="fill:rgb(153,153,153)"/>
</g></g>
<line x1="270.94" y1="400.54" x2="331.90" y2="407.50" style="stroke-width:7.16;stroke:rgb(153,153,153)"/>
<!-- Arc:    27   58 -->
<g transform="translate(325.08 423.73)">
<g transform="rotate(345.40)">
<path d="M 0 0 L -6.28 15.69 L 31.38 0 L -6.28 -15.69 z" style="fill:rgb(153,153,153)"/>
</g></g>
<line x1="278.07" y1="435.98" x2="325.08" y2="423.73" style="stroke-width:9.66;stroke:rgb(153,153,153)"/>
<!-- Arc:    28   58 -->
<g transform="translate(378.00 385.58)">
<g transform="rotate(465.63)">
<path d="M 0 0 L -2.32 5.79 L 11.59 0 L -2.32 -5.79 z" style="fill:rgb(153,153,153)"/>
</g></g>
<line x1="397.25" y1="316.78" x2="378.00" y2="385.58" style="stroke-width:3.56;stroke:rgb(153,153,153)"/>
<!-- Arc:    29   58 -->
<g transform="translate(367.06 360.91)">
<g transform="rotate(446.07)">
<path d="M 0 0 L -7.07 17.67 L 35.34 0 L -7.07 -17.67 z" style="fill:rgb(153,153,153)"/>
</g></g>
<line x1="359.44" y1="250.01" x2="367.06" y2="360.91" style="stroke-width:10.88;stroke:rgb(153,153,153)"/>
<!-- Arc:    30   58 -->
<g transform="translate(393.88 426.32)">
<g transform="rotate(211.89)">
<path d="M 0 0 L -2.37 5.91 L 11.83 0 L -2.37 -5.91 z" style="fill:rgb(153,153,153)"/>
</g></g>
<line x1="454.29" y1="463.90" x2="393.88" y2="426.32" style="stroke-width:3.64;stroke:rgb(153,153,153)"/>
<!-- Arc:    31   47 -->
<g transform="translate(619.22 643.39)">
<g transform="rotate(509.65)">
<path d="M 0 0 L -5.34 13.35 L 26.70 0 L -5.34 -13.35 z" style="fill:rgb(153,153,153)"/>
</g></g>
<line x1="676.34" y1="609.94" x2="619.22" y2="643.39" style="stroke-width:8.22;stroke:rgb(153,153,153)"/>
<!-- Arc:    32   37 -->
<g transform="translate(541.10 288.81)">
<g transform="rotate(505.10)">
<path d="M 0 0 L -3.64 9.09 L 18.18 0 L -3.64 -9.09 z" style="fill:rgb(153,153,153)"/>
</g></g>
<line x1="588.74" y1="255.57" x2="541.10" y2="288.81" style="stroke-width:5.60;stroke:rgb(153,153,153)"/>
<!-- Arc:    33   20 -->
<g transform="translate(450.03 571.05)">
<g transform="rotate(184.56)">
<path d="M 0 0 L -4.38 10.96 L 21.91 0 L -4.38 -10.96 z" style="fill:rgb(153,153,153)"/>
</g></g>
<line x1="533.74" y1="577.73" x2="450.03" y2="571.05" style="stroke-width:6.74;stroke:rgb(153,153,153)"/>
<!-- Arc:    34   20 -->
<g transform="translate(394.79 595.48)">
<g transform="rotate(303.16)">
<path d="M 0 0 L -3.38 8.46 L 16.92 0 L -3.38 -8.46 z" style="fill:rgb(153,153,153)"/>
</g></g>
<line x1="354.47" y1="657.19" x2="394.79" y2="595.48" style="stroke-width:5.20;stroke:rgb(153,153,153)"/>
<!-- Arc:    35   58 -->
<g transform="translate(394.86 380.88)">
<g transform="rotate(488.27)">
<path d="M 0 0 L -4.73 11.83 L 23.66 0 L -4.73 -11.83 z" style="fill:rgb(153,153,153)"/>
</g></g>
<line x1="431.88" y1="333.96" x2="394.86" y2="380.88" style="stroke-width:7.28;stroke:rgb(153,153,153)"/>
<!-- Arc:    36   20 -->
<g transform="translate(414.03 608.30)">
<g transform="rotate(267.88)">
<path d="M 0 0 L -4.90 12.24 L 24.48 0 L -4.90 -12.24 z" style="fill:rgb(153,153,153)"/>
</g></g>
<line x1="416.60" y1="677.59" x2="414.03" y2="608.30" style="stroke-width:7.53;stroke:rgb(153,153,153)"/>
<!-- Arc:    37   58 -->
<g transform="translate(399.48 390.80)">
<g transform="rotate(504.05)">
<path d="M 0 0 L -4.01 10.04 L 20.07 0 L -4.01 -10.04 z" style="fill:rgb(153,153,153)"/>
</g></g>
<line x1="513.37" y1="308.19" x2="399.48" y2="390.80" style="stroke-width:6.18;stroke:rgb(153,153,153)"/>
<!-- Arc:    38   58 -->
<g transform="translate(408.16 417.63)">
<g transform="rotate(188.75)">
<path d="M 0 0 L -4.48 11.19 L 22.39 0 L -4.48 -11.19 z" style="fill:rgb(153,153,153)"/>
</g></g>
<line x1="471.60" y1="427.39" x2="408.16" y2="417.63" style="stroke-width:6.89;stroke:rgb(153,153,153)"/>
<!-- Arc:    39   46 -->
<g transform="translate(510.38 134.13)">
<g transform="rotate(506.55)">
<path d="M 0 0 L -3.95 9.88 L 19.76 0 L -3.95 -9.88 z" style="fill:rgb(153,153,153)"/>
</g></g>
<line x1="562.26" y1="99.87" x2="510.38" y2="134.13" style="stroke-width:6.08;stroke:rgb(153,153,153)"/>
<!-- Arc:    40   18 -->
<g transform="translate(577.77 357.98)">
<g transform="rotate(526.61)">
<path d="M 0 0 L -4.03 10.08 L 20.16 0 L -4.03 -10.08 z" style="fill:rgb(153,153,153)"/>
</g></g>
<line x1="633.56" y1="344.70" x2="577.77" y2="357.98" style="stroke-width:6.20;stroke:rgb(153,153,153)"/>
<!-- Arc:    41   49 -->
<g transform="translate(205.73 153.93)">
<g transform="rotate(435.52)">
<path d="M 0 0 L -4.12 10.30 L 20.60 0 L -4.12 -10.30 z" style="fill:rgb(153,153,153)"/>
</g></g>
<line x1="191.49" y1="98.79" x2="205.73" y2="153.93" style="stroke-width:6.34;stroke:rgb(153,153,153)"/>
<!-- Arc:    42   58 -->
<g transform="translate(347.87 366.99)">
<g transform="rotate(423.18)">
<path d="M 0 0 L -6.91 17.28 L 34.56 0 L -6.91 -17.28 z" style="fill:rgb(153,153,153)"/>
</g></g>
<line x1="329.00" y1="329.67" x2="347.87" y2="366.99" style="stroke-width:10.64;stroke:rgb(153,153,153)"/>
<!-- Arc:    43   58 -->
<g transform="translate(326.31 396.77)">
<g transform="rotate(378.61)">
<path d="M 0 0 L -6.22 15.54 L 31.08 0 L -6.22 -15.54 z" style="fill:rgb(153,153,153)"/>
</g></g>
<line x1="206.77" y1="356.52" x2="326.31" y2="396.77" style="stroke-width:9.56;stroke:rgb(153,153,153)"/>
<!-- Arc:    44   20 -->
<g transform="translate(378.18 599.47)">
<g transform="rotate(317.59)">
<path d="M 0 0 L -6.17 15.42 L 30.83 0 L -6.17 -15.42 z" style="fill:rgb(153,153,153)"/>
</g></g>
<line x1="290.30" y1="679.74" x2="378.18" y2="599.47" style="stroke-width:9.49;stroke:rgb(153,153,153)"/>
<!-- Arc:    45   52 -->
<g transform="translate(149.38 413.19)">
<g transform="rotate(374.91)">
<path d="M 0 0 L -6.22 15.55 L 31.10 0 L -6.22 -15.55 z" style="fill:rgb(153,153,153)"/>
</g></g>
<line x1="105.93" y1="401.62" x2="149.38" y2="413.19" style="stroke-width:9.57;stroke:rgb(153,153,153)"/>
<!-- Arc:    46   29 -->
<g transform="translate(392.86 223.57)">
<g transform="rotate(501.47)">
<path d="M 0 0 L -5.39 13.48 L 26.96 0 L -5.39 -13.48 z" style="fill:rgb(153,153,153)"/>
</g></g>
<line x1="480.77" y1="153.56" x2="392.86" y2="223.57" style="stroke-width:8.30;stroke:rgb(153,153,153)"/>
<!-- Arc:    47   20 -->
<g transform="translate(453.62 591.59)">
<g transform="rotate(209.54)">
<path d="M 0 0 L -6.32 15.80 L 31.60 0 L -6.32 -15.80 z" style="fill:rgb(153,153,153)"/>
</g></g>
<line x1="582.63" y1="664.71" x2="453.62" y2="591.59" style="stroke-width:9.72;stroke:rgb(153,153,153)"/>
<!-- Arc:    48   29 -->
<g transform="translate(339.78 225.80)">
<g transform="rotate(410.85)">
<path d="M 0 0 L -3.11 7.77 L 15.55 0 L -3.11 -7.77 z" style="fill:rgb(153,153,153)"/>
</g></g>
<line x1="292.33" y1="167.52" x2="339.78" y2="225.80" style="stroke-width:4.78;stroke:rgb(153,153,153)"/>
<!-- Arc:    49   29 -->
<g transform="translate(321.79 234.09)">
<g transform="rotate(382.88)">
<path d="M 0 0 L -5.05 12.61 L 25.23 0 L -5.05 -12.61 z" style="fill:rgb(153,153,153)"/>
</g></g>
<line x1="214.92" y1="189.00" x2="321.79" y2="234.09" style="stroke-width:7.76;stroke:rgb(153,153,153)"/>
<!-- Arc:    50   13 -->
<g transform="translate(347.24 764.20)">
<g transform="rotate(290.73)">
<path d="M 0 0 L -5.52 13.80 L 27.60 0 L -5.52 -13.80 z" style="fill:rgb(153,153,153)"/>
</g></g>
<line x1="332.06" y1="804.31" x2="347.24" y2="764.20" style="stroke-width:8.49;stroke:rgb(153,153,153)"/>
<!-- Arc:    51   29 -->
<g transform="translate(354.29 208.94)">
<g transform="rotate(442.77)">
<path d="M 0 0 L -5.15 12.87 L 25.75 0 L -5.15 -12.87 z" style="fill:rgb(153,153,153)"/>
</g></g>
<line x1="346.32" y1="146.04" x2="354.29" y2="208.94" style="stroke-width:7.92;stroke:rgb(153,153,153)"/>
<!-- Arc:    52   58 -->
<g transform="translate(320.65 415.52)">
<g transform="rotate(355.59)">
<path d="M 0 0 L -6.88 17.21 L 34.41 0 L -6.88 -17.21 z" style="fill:rgb(153,153,153)"/>
</g></g>
<line x1="194.55" y1="425.24" x2="320.65" y2="415.52" style="stroke-width:10.59;stroke:rgb(153,153,153)"/>
<!-- Arc:    53   43 -->
<g transform="translate(179.39 345.92)">
<g transform="rotate(381.31)">
<path d="M 0 0 L -2.74 6.86 L 13.71 0 L -2.74 -6.86 z" style="fill:rgb(153,153,153)"/>
</g></g>
<line x1="121.21" y1="323.23" x2="179.39" y2="345.92" style="stroke-width:4.22;stroke:rgb(153,153,153)"/>
<!-- Arc:    54   58 -->
<g transform="translate(327.01 433.34)">
<g transform="rotate(333.52)">
<path d="M 0 0 L -6.59 16.47 L 32.95 0 L -6.59 -16.47 z" style="fill:rgb(153,153,153)"/>
</g></g>
<line x1="213.90" y1="489.67" x2="327.01" y2="433.34" style="stroke-width:10.14;stroke:rgb(153,153,153)"/>
<!-- Arc:    55   20 -->
<g transform="translate(366.45 587.78)">
<g transform="rotate(337.00)">
<path d="M 0 0 L -6.89 17.23 L 34.46 0 L -6.89 -17.23 z" style="fill:rgb(153,153,153)"/>
</g></g>
<line x1="311.69" y1="611.02" x2="366.45" y2="587.78" style="stroke-width:10.60;stroke:rgb(153,153,153)"/>
<!-- Arc:    56   58 -->
<g transform="translate(410.97 392.00)">
<g transform="rotate(513.87)">
<path d="M 0 0 L -5.87 14.67 L 29.34 0 L -5.87 -14.67 z" style="fill:rgb(153,153,153)"/>
</g></g>
<line x1="461.42" y1="367.25" x2="410.97" y2="392.00" style="stroke-width:9.03;stroke:rgb(153,153,153)"/>
<!-- Arc:    57   44 -->
<g transform="translate(259.11 709.56)">
<g transform="rotate(316.42)">
<path d="M 0 0 L -5.50 13.75 L 27.50 0 L -5.50 -13.75 z" style="fill:rgb(153,153,153)"/>
</g></g>
<line x1="226.13" y1="740.95" x2="259.11" y2="709.56" style="stroke-width:8.46;stroke:rgb(153,153,153)"/>
<!-- Edge:    20   58 -->
<line x1="412.57" y1="568.20" x2="370.57" y2="411.78" style="stroke-width:22.37;stroke:rgb(0,112,145)"/>

<!-- Vertex:     1 -->
<ellipse cx="144.64" cy="528.33" rx="14.40" ry="14.40" style="fill:rgb(255,255,0);stroke:rgb(102,0,0);stroke-width:0.50;"/>
<text x="144.64" y="533.33" style="font-family:Arial;font-weight: bold;font-size:15px;fill:rgb(173,0,0);text-anchor:middle;">AX</text>
<!-- Vertex:     2 -->
<ellipse cx="455.31" cy="230.88" rx="14.40" ry="14.40" style="fill:rgb(255,255,0);stroke:rgb(102,0,0);stroke-width:0.50;"/>
<text x="455.31" y="235.88" style="font-family:Arial;font-weight: bold;font-size:15px;fill:rgb(173,0,0);text-anchor:middle;">AL</text>
<!-- Vertex:     3 -->
<ellipse cx="113.06" cy="467.12" rx="14.40" ry="14.40" style="fill:rgb(255,255,0);stroke:rgb(102,0,0);stroke-width:0.50;"/>
<text x="113.06" y="472.12" style="font-family:Arial;font-weight: bold;font-size:15px;fill:rgb(173,0,0);text-anchor:middle;">AD</text>
<!-- Vertex:     4 -->
<ellipse cx="678.38" cy="670.08" rx="14.40" ry="14.40" style="fill:rgb(255,255,0);stroke:rgb(102,0,0);stroke-width:0.50;"/>
<text x="678.38" y="675.08" style="font-family:Arial;font-weight: bold;font-size:15px;fill:rgb(173,0,0);text-anchor:middle;">AM</text>
<!-- Vertex:     5 -->
<ellipse cx="535.77" cy="542.29" rx="14.40" ry="14.40" style="fill:rgb(255,255,0);stroke:rgb(102,0,0);stroke-width:0.50;"/>
<text x="535.77" y="547.29" style="font-family:Arial;font-weight: bold;font-size:15px;fill:rgb(173,0,0);text-anchor:middle;">AT</text>
<!-- Vertex:     6 -->
<ellipse cx="654.95" cy="734.51" rx="14.40" ry="14.40" style="fill:rgb(255,255,0);stroke:rgb(102,0,0);stroke-width:0.50;"/>
<text x="654.95" y="739.51" style="font-family:Arial;font-weight: bold;font-size:15px;fill:rgb(173,0,0);text-anchor:middle;">AZ</text>
<!-- Vertex:     7 -->
<ellipse cx="599.95" cy="772.09" rx="14.40" ry="14.40" style="fill:rgb(255,255,0);stroke:rgb(102,0,0);stroke-width:0.50;"/>
<text x="599.95" y="777.09" style="font-family:Arial;font-weight: bold;font-size:15px;fill:rgb(173,0,0);text-anchor:middle;">BY</text>
<!-- Vertex:     8 -->
<ellipse cx="293.35" cy="355.44" rx="14.40" ry="14.40" style="fill:rgb(255,255,0);stroke:rgb(102,0,0);stroke-width:0.50;"/>
<text x="293.35" y="360.44" style="font-family:Arial;font-weight: bold;font-size:15px;fill:rgb(173,0,0);text-anchor:middle;">BE</text>
<!-- Vertex:     9 -->
<ellipse cx="130.38" cy="221.21" rx="14.40" ry="14.40" style="fill:rgb(255,255,0);stroke:rgb(102,0,0);stroke-width:0.50;"/>
<text x="130.38" y="226.21" style="font-family:Arial;font-weight: bold;font-size:15px;fill:rgb(173,0,0);text-anchor:middle;">BA</text>
<!-- Vertex:    10 -->
<ellipse cx="528.64" cy="606.72" rx="14.40" ry="14.40" style="fill:rgb(255,255,0);stroke:rgb(102,0,0);stroke-width:0.50;"/>
<text x="528.64" y="611.72" style="font-family:Arial;font-weight: bold;font-size:15px;fill:rgb(173,0,0);text-anchor:middle;">BG</text>
<!-- Vertex:    11 -->
<ellipse cx="403.36" cy="152.49" rx="14.40" ry="14.40" style="fill:rgb(255,255,0);stroke:rgb(102,0,0);stroke-width:0.50;"/>
<text x="403.36" y="157.49" style="font-family:Arial;font-weight: bold;font-size:15px;fill:rgb(173,0,0);text-anchor:middle;">HR</text>
<!-- Vertex:    12 -->
<ellipse cx="638.65" cy="410.21" rx="14.40" ry="14.40" style="fill:rgb(255,255,0);stroke:rgb(102,0,0);stroke-width:0.50;"/>
<text x="638.65" y="415.21" style="font-family:Arial;font-weight: bold;font-size:15px;fill:rgb(173,0,0);text-anchor:middle;">CY</text>
<!-- Vertex:    13 -->
<ellipse cx="362.62" cy="723.77" rx="14.40" ry="14.40" style="fill:rgb(255,255,0);stroke:rgb(102,0,0);stroke-width:0.50;"/>
<text x="362.62" y="728.77" style="font-family:Arial;font-weight: bold;font-size:15px;fill:rgb(173,0,0);text-anchor:middle;">CZ</text>
<!-- Vertex:    14 -->
<ellipse cx="531.70" cy="464.97" rx="14.40" ry="14.40" style="fill:rgb(255,255,0);stroke:rgb(102,0,0);stroke-width:0.50;"/>
<text x="531.70" y="469.97" style="font-family:Arial;font-weight: bold;font-size:15px;fill:rgb(173,0,0);text-anchor:middle;">DK</text>
<!-- Vertex:    15 -->
<ellipse cx="481.79" cy="662.56" rx="14.40" ry="14.40" style="fill:rgb(255,255,0);stroke:rgb(102,0,0);stroke-width:0.50;"/>
<text x="481.79" y="667.56" style="font-family:Arial;font-weight: bold;font-size:15px;fill:rgb(173,0,0);text-anchor:middle;">EE</text>
<!-- Vertex:    16 -->
<ellipse cx="625.41" cy="498.26" rx="14.40" ry="14.40" style="fill:rgb(255,255,0);stroke:rgb(102,0,0);stroke-width:0.50;"/>
<text x="625.41" y="503.26" style="font-family:Arial;font-weight: bold;font-size:15px;fill:rgb(173,0,0);text-anchor:middle;">FO</text>
<!-- Vertex:    17 -->
<ellipse cx="432.90" cy="487.52" rx="14.40" ry="14.40" style="fill:rgb(255,255,0);stroke:rgb(102,0,0);stroke-width:0.50;"/>
<text x="432.90" y="492.52" style="font-family:Arial;font-weight: bold;font-size:15px;fill:rgb(173,0,0);text-anchor:middle;">FI</text>
<!-- Vertex:    18 -->
<ellipse cx="542.90" cy="366.18" rx="14.40" ry="14.40" style="fill:rgb(255,255,0);stroke:rgb(102,0,0);stroke-width:0.50;"/>
<text x="542.90" y="371.18" style="font-family:Arial;font-weight: bold;font-size:15px;fill:rgb(173,0,0);text-anchor:middle;">FR</text>
<!-- Vertex:    19 -->
<ellipse cx="506.24" cy="647.53" rx="14.40" ry="14.40" style="fill:rgb(255,255,0);stroke:rgb(102,0,0);stroke-width:0.50;"/>
<text x="506.24" y="652.53" style="font-family:Arial;font-weight: bold;font-size:15px;fill:rgb(173,0,0);text-anchor:middle;">GE</text>
<!-- Vertex:    20 -->
<ellipse cx="412.57" cy="568.20" rx="14.40" ry="14.40" style="fill:rgb(255,255,0);stroke:rgb(102,0,0);stroke-width:0.50;"/>
<text x="412.57" y="573.20" style="font-family:Arial;font-weight: bold;font-size:15px;fill:rgb(173,0,0);text-anchor:middle;">DE</text>
<!-- Vertex:    21 -->
<ellipse cx="339.19" cy="493.97" rx="14.40" ry="14.40" style="fill:rgb(255,255,0);stroke:rgb(102,0,0);stroke-width:0.50;"/>
<text x="339.19" y="498.97" style="font-family:Arial;font-weight: bold;font-size:15px;fill:rgb(173,0,0);text-anchor:middle;">GI</text>
<!-- Vertex:    22 -->
<ellipse cx="549.02" cy="410.21" rx="14.40" ry="14.40" style="fill:rgb(255,255,0);stroke:rgb(102,0,0);stroke-width:0.50;"/>
<text x="549.02" y="415.21" style="font-family:Arial;font-weight: bold;font-size:15px;fill:rgb(173,0,0);text-anchor:middle;">GR</text>
<!-- Vertex:    23 -->
<ellipse cx="304.56" cy="475.71" rx="14.40" ry="14.40" style="fill:rgb(255,255,0);stroke:rgb(102,0,0);stroke-width:0.50;"/>
<text x="304.56" y="480.71" style="font-family:Arial;font-weight: bold;font-size:15px;fill:rgb(173,0,0);text-anchor:middle;">GG</text>
<!-- Vertex:    24 -->
<ellipse cx="257.70" cy="263.09" rx="14.40" ry="14.40" style="fill:rgb(255,255,0);stroke:rgb(102,0,0);stroke-width:0.50;"/>
<text x="257.70" y="268.09" style="font-family:Arial;font-weight: bold;font-size:15px;fill:rgb(173,0,0);text-anchor:middle;">VA</text>
<!-- Vertex:    25 -->
<ellipse cx="451.23" cy="674.37" rx="14.40" ry="14.40" style="fill:rgb(255,255,0);stroke:rgb(102,0,0);stroke-width:0.50;"/>
<text x="451.23" y="679.37" style="font-family:Arial;font-weight: bold;font-size:15px;fill:rgb(173,0,0);text-anchor:middle;">HU</text>
<!-- Vertex:    26 -->
<ellipse cx="270.94" cy="400.54" rx="14.40" ry="14.40" style="fill:rgb(255,255,0);stroke:rgb(102,0,0);stroke-width:0.50;"/>
<text x="270.94" y="405.54" style="font-family:Arial;font-weight: bold;font-size:15px;fill:rgb(173,0,0);text-anchor:middle;">IS</text>
<!-- Vertex:    27 -->
<ellipse cx="278.07" cy="435.98" rx="14.40" ry="14.40" style="fill:rgb(255,255,0);stroke:rgb(102,0,0);stroke-width:0.50;"/>
<text x="278.07" y="440.98" style="font-family:Arial;font-weight: bold;font-size:15px;fill:rgb(173,0,0);text-anchor:middle;">IE</text>
<!-- Vertex:    28 -->
<ellipse cx="397.25" cy="316.78" rx="14.40" ry="14.40" style="fill:rgb(255,255,0);stroke:rgb(102,0,0);stroke-width:0.50;"/>
<text x="397.25" y="321.78" style="font-family:Arial;font-weight: bold;font-size:15px;fill:rgb(173,0,0);text-anchor:middle;">IM</text>
<!-- Vertex:    29 -->
<ellipse cx="359.44" cy="250.01" rx="14.40" ry="14.40" style="fill:rgb(255,255,0);stroke:rgb(102,0,0);stroke-width:0.50;"/>
<text x="359.44" y="255.01" style="font-family:Arial;font-weight: bold;font-size:15px;fill:rgb(173,0,0);text-anchor:middle;">IT</text>
<!-- Vertex:    30 -->
<ellipse cx="454.29" cy="463.90" rx="14.40" ry="14.40" style="fill:rgb(255,255,0);stroke:rgb(102,0,0);stroke-width:0.50;"/>
<text x="454.29" y="468.90" style="font-family:Arial;font-weight: bold;font-size:15px;fill:rgb(173,0,0);text-anchor:middle;">JE</text>
<!-- Vertex:    31 -->
<ellipse cx="676.34" cy="609.94" rx="14.40" ry="14.40" style="fill:rgb(255,255,0);stroke:rgb(102,0,0);stroke-width:0.50;"/>
<text x="676.34" y="614.94" style="font-family:Arial;font-weight: bold;font-size:15px;fill:rgb(173,0,0);text-anchor:middle;">KZ</text>
<!-- Vertex:    32 -->
<ellipse cx="588.74" cy="255.57" rx="14.40" ry="14.40" style="fill:rgb(255,255,0);stroke:rgb(102,0,0);stroke-width:0.50;"/>
<text x="588.74" y="260.57" style="font-family:Arial;font-weight: bold;font-size:15px;fill:rgb(173,0,0);text-anchor:middle;">XK</text>
<!-- Vertex:    33 -->
<ellipse cx="533.74" cy="577.73" rx="14.40" ry="14.40" style="fill:rgb(255,255,0);stroke:rgb(102,0,0);stroke-width:0.50;"/>
<text x="533.74" y="582.73" style="font-family:Arial;font-weight: bold;font-size:15px;fill:rgb(173,0,0);text-anchor:middle;">LV</text>
<!-- Vertex:    34 -->
<ellipse cx="354.47" cy="657.19" rx="14.40" ry="14.40" style="fill:rgb(255,255,0);stroke:rgb(102,0,0);stroke-width:0.50;"/>
<text x="354.47" y="662.19" style="font-family:Arial;font-weight: bold;font-size:15px;fill:rgb(173,0,0);text-anchor:middle;">LI</text>
<!-- Vertex:    35 -->
<ellipse cx="431.88" cy="333.96" rx="14.40" ry="14.40" style="fill:rgb(255,255,0);stroke:rgb(102,0,0);stroke-width:0.50;"/>
<text x="431.88" y="338.96" style="font-family:Arial;font-weight: bold;font-size:15px;fill:rgb(173,0,0);text-anchor:middle;">LT</text>
<!-- Vertex:    36 -->
<ellipse cx="416.60" cy="677.59" rx="14.40" ry="14.40" style="fill:rgb(255,255,0);stroke:rgb(102,0,0);stroke-width:0.50;"/>
<text x="416.60" y="682.59" style="font-family:Arial;font-weight: bold;font-size:15px;fill:rgb(173,0,0);text-anchor:middle;">LU</text>
<!-- Vertex:    37 -->
<ellipse cx="513.37" cy="308.19" rx="14.40" ry="14.40" style="fill:rgb(255,255,0);stroke:rgb(102,0,0);stroke-width:0.50;"/>
<text x="513.37" y="313.19" style="font-family:Arial;font-weight: bold;font-size:15px;fill:rgb(173,0,0);text-anchor:middle;">MK</text>
<!-- Vertex:    38 -->
<ellipse cx="471.60" cy="427.39" rx="14.40" ry="14.40" style="fill:rgb(255,255,0);stroke:rgb(102,0,0);stroke-width:0.50;"/>
<text x="471.60" y="432.39" style="font-family:Arial;font-weight: bold;font-size:15px;fill:rgb(173,0,0);text-anchor:middle;">MT</text>
<!-- Vertex:    39 -->
<ellipse cx="562.26" cy="99.87" rx="14.40" ry="14.40" style="fill:rgb(255,255,0);stroke:rgb(102,0,0);stroke-width:0.50;"/>
<text x="562.26" y="104.87" style="font-family:Arial;font-weight: bold;font-size:15px;fill:rgb(173,0,0);text-anchor:middle;">MD</text>
<!-- Vertex:    40 -->
<ellipse cx="633.56" cy="344.70" rx="14.40" ry="14.40" style="fill:rgb(255,255,0);stroke:rgb(102,0,0);stroke-width:0.50;"/>
<text x="633.56" y="349.70" style="font-family:Arial;font-weight: bold;font-size:15px;fill:rgb(173,0,0);text-anchor:middle;">MC</text>
<!-- Vertex:    41 -->
<ellipse cx="191.49" cy="98.79" rx="14.40" ry="14.40" style="fill:rgb(255,255,0);stroke:rgb(102,0,0);stroke-width:0.50;"/>
<text x="191.49" y="103.79" style="font-family:Arial;font-weight: bold;font-size:15px;fill:rgb(173,0,0);text-anchor:middle;">ME</text>
<!-- Vertex:    42 -->
<ellipse cx="329.00" cy="329.67" rx="14.40" ry="14.40" style="fill:rgb(255,255,0);stroke:rgb(102,0,0);stroke-width:0.50;"/>
<text x="329.00" y="334.67" style="font-family:Arial;font-weight: bold;font-size:15px;fill:rgb(173,0,0);text-anchor:middle;">NL</text>
<!-- Vertex:    43 -->
<ellipse cx="206.77" cy="356.52" rx="14.40" ry="14.40" style="fill:rgb(255,255,0);stroke:rgb(102,0,0);stroke-width:0.50;"/>
<text x="206.77" y="361.52" style="font-family:Arial;font-weight: bold;font-size:15px;fill:rgb(173,0,0);text-anchor:middle;">NO</text>
<!-- Vertex:    44 -->
<ellipse cx="290.30" cy="679.74" rx="14.40" ry="14.40" style="fill:rgb(255,255,0);stroke:rgb(102,0,0);stroke-width:0.50;"/>
<text x="290.30" y="684.74" style="font-family:Arial;font-weight: bold;font-size:15px;fill:rgb(173,0,0);text-anchor:middle;">PL</text>
<!-- Vertex:    45 -->
<ellipse cx="105.93" cy="401.62" rx="14.40" ry="14.40" style="fill:rgb(255,255,0);stroke:rgb(102,0,0);stroke-width:0.50;"/>
<text x="105.93" y="406.62" style="font-family:Arial;font-weight: bold;font-size:15px;fill:rgb(173,0,0);text-anchor:middle;">PT</text>
<!-- Vertex:    46 -->
<ellipse cx="480.77" cy="153.56" rx="14.40" ry="14.40" style="fill:rgb(255,255,0);stroke:rgb(102,0,0);stroke-width:0.50;"/>
<text x="480.77" y="158.56" style="font-family:Arial;font-weight: bold;font-size:15px;fill:rgb(173,0,0);text-anchor:middle;">RO</text>
<!-- Vertex:    47 -->
<ellipse cx="582.63" cy="664.71" rx="14.40" ry="14.40" style="fill:rgb(255,255,0);stroke:rgb(102,0,0);stroke-width:0.50;"/>
<text x="582.63" y="669.71" style="font-family:Arial;font-weight: bold;font-size:15px;fill:rgb(173,0,0);text-anchor:middle;">RU</text>
<!-- Vertex:    48 -->
<ellipse cx="292.33" cy="167.52" rx="14.40" ry="14.40" style="fill:rgb(255,255,0);stroke:rgb(102,0,0);stroke-width:0.50;"/>
<text x="292.33" y="172.52" style="font-family:Arial;font-weight: bold;font-size:15px;fill:rgb(173,0,0);text-anchor:middle;">SM</text>
<!-- Vertex:    49 -->
<ellipse cx="214.92" cy="189.00" rx="14.40" ry="14.40" style="fill:rgb(255,255,0);stroke:rgb(102,0,0);stroke-width:0.50;"/>
<text x="214.92" y="194.00" style="font-family:Arial;font-weight: bold;font-size:15px;fill:rgb(173,0,0);text-anchor:middle;">RS</text>
<!-- Vertex:    50 -->
<ellipse cx="332.06" cy="804.31" rx="14.40" ry="14.40" style="fill:rgb(255,255,0);stroke:rgb(102,0,0);stroke-width:0.50;"/>
<text x="332.06" y="809.31" style="font-family:Arial;font-weight: bold;font-size:15px;fill:rgb(173,0,0);text-anchor:middle;">SK</text>
<!-- Vertex:    51 -->
<ellipse cx="346.32" cy="146.04" rx="14.40" ry="14.40" style="fill:rgb(255,255,0);stroke:rgb(102,0,0);stroke-width:0.50;"/>
<text x="346.32" y="151.04" style="font-family:Arial;font-weight: bold;font-size:15px;fill:rgb(173,0,0);text-anchor:middle;">SI</text>
<!-- Vertex:    52 -->
<ellipse cx="194.55" cy="425.24" rx="14.40" ry="14.40" style="fill:rgb(255,255,0);stroke:rgb(102,0,0);stroke-width:0.50;"/>
<text x="194.55" y="430.24" style="font-family:Arial;font-weight: bold;font-size:15px;fill:rgb(173,0,0);text-anchor:middle;">ES</text>
<!-- Vertex:    53 -->
<ellipse cx="121.21" cy="323.23" rx="14.40" ry="14.40" style="fill:rgb(255,255,0);stroke:rgb(102,0,0);stroke-width:0.50;"/>
<text x="121.21" y="328.23" style="font-family:Arial;font-weight: bold;font-size:15px;fill:rgb(173,0,0);text-anchor:middle;">SJ</text>
<!-- Vertex:    54 -->
<ellipse cx="213.90" cy="489.67" rx="14.40" ry="14.40" style="fill:rgb(255,255,0);stroke:rgb(102,0,0);stroke-width:0.50;"/>
<text x="213.90" y="494.67" style="font-family:Arial;font-weight: bold;font-size:15px;fill:rgb(173,0,0);text-anchor:middle;">SE</text>
<!-- Vertex:    55 -->
<ellipse cx="311.69" cy="611.02" rx="14.40" ry="14.40" style="fill:rgb(255,255,0);stroke:rgb(102,0,0);stroke-width:0.50;"/>
<text x="311.69" y="616.02" style="font-family:Arial;font-weight: bold;font-size:15px;fill:rgb(173,0,0);text-anchor:middle;">CH</text>
<!-- Vertex:    56 -->
<ellipse cx="461.42" cy="367.25" rx="14.40" ry="14.40" style="fill:rgb(255,255,0);stroke:rgb(102,0,0);stroke-width:0.50;"/>
<text x="461.42" y="372.25" style="font-family:Arial;font-weight: bold;font-size:15px;fill:rgb(173,0,0);text-anchor:middle;">TR</text>
<!-- Vertex:    57 -->
<ellipse cx="226.13" cy="740.95" rx="14.40" ry="14.40" style="fill:rgb(255,255,0);stroke:rgb(102,0,0);stroke-width:0.50;"/>
<text x="226.13" y="745.95" style="font-family:Arial;font-weight: bold;font-size:15px;fill:rgb(173,0,0);text-anchor:middle;">UA</text>
<!-- Vertex:    58 -->
<ellipse cx="370.57" cy="411.78" rx="14.40" ry="14.40" style="fill:rgb(255,255,0);stroke:rgb(102,0,0);stroke-width:0.50;"/>
<text x="370.57" y="416.78" style="font-family:Arial;font-weight: bold;font-size:15px;fill:rgb(173,0,0);text-anchor:middle;">GB</text>
</g>         <!-- Layer Network -->
</svg>
