<?xml version="1.0" encoding="UTF-8" standalone="no"?>
<!-- Created with Inkscape (http://www.inkscape.org/) -->

<svg
   width="141.36292mm"
   height="204.86378mm"
   viewBox="0 0 141.36291 204.86379"
   version="1.1"
   id="svg1"
   xml:space="preserve"
   inkscape:version="1.3.2 (091e20e, 2023-11-25, custom)"
   sodipodi:docname="EUdend2020.svg"
   xmlns:inkscape="http://www.inkscape.org/namespaces/inkscape"
   xmlns:sodipodi="http://sodipodi.sourceforge.net/DTD/sodipodi-0.dtd"
   xmlns="http://www.w3.org/2000/svg"
   xmlns:svg="http://www.w3.org/2000/svg"><sodipodi:namedview
     id="namedview1"
     pagecolor="#ffffff"
     bordercolor="#666666"
     borderopacity="1.0"
     inkscape:showpageshadow="2"
     inkscape:pageopacity="0.0"
     inkscape:pagecheckerboard="0"
     inkscape:deskcolor="#d1d1d1"
     inkscape:document-units="mm"
     inkscape:zoom="0.7786055"
     inkscape:cx="162.46995"
     inkscape:cy="332.64599"
     inkscape:window-width="1920"
     inkscape:window-height="1112"
     inkscape:window-x="-8"
     inkscape:window-y="-8"
     inkscape:window-maximized="1"
     inkscape:current-layer="g1"><inkscape:page
       x="0"
       y="0"
       width="141.36292"
       height="204.86378"
       id="page1"
       margin="0"
       bleed="0" /><inkscape:page
       x="-15.799589"
       y="-4.8805041"
       width="164.04166"
       height="215.54723"
       id="page2"
       margin="0"
       bleed="0" /></sodipodi:namedview><defs
     id="defs1" /><g
     inkscape:label="Layer 1"
     inkscape:groupmode="layer"
     id="layer1"
     transform="translate(-235.79959,-4.8805041)" /><g
     id="g1"
     inkscape:groupmode="layer"
     inkscape:label="1"
     transform="matrix(0.26458333,0,0,0.26458334,-15.799578,-4.8805041)"><path
       id="path1"
       d="m 98.234856,25.187436 h 2.437504 c 0.60937,0 1.09375,-0.1875 1.5,-0.5625 0.46875,-0.421875 0.67187,-0.921875 0.67187,-1.640625 0,-1.453125 -0.85937,-2.28125 -2.39062,-2.28125 h -3.218754 v 7.78125 h 1 z m 0,-0.875 v -2.734375 h 2.062504 c 0.95312,0 1.51562,0.515625 1.51562,1.375 0,0.84375 -0.5625,1.359375 -1.51562,1.359375 z m 21.519534,3.65625 c -0.0937,0.01563 -0.125,0.01563 -0.1875,0.01563 -0.3125,0 -0.48438,-0.15625 -0.48438,-0.4375 v -3.28125 c 0,-1 -0.71875,-1.53125 -2.09375,-1.53125 -0.8125,0 -1.48437,0.234375 -1.85937,0.65625 -0.25,0.28125 -0.35938,0.59375 -0.39063,1.15625 h 0.90625 c 0.0781,-0.6875 0.48438,-1 1.3125,-1 0.79688,0 1.25,0.3125 1.25,0.84375 v 0.234375 c 0,0.375 -0.23437,0.53125 -0.9375,0.609375 -1.25,0.171875 -1.45312,0.203125 -1.78125,0.34375 -0.65625,0.265625 -0.98437,0.765625 -0.98437,1.5 0,1.015625 0.70312,1.65625 1.82812,1.65625 0.70313,0 1.26563,-0.25 1.90625,-0.828125 0.0625,0.5625 0.34375,0.828125 0.90625,0.828125 0.1875,0 0.32813,-0.03125 0.60938,-0.09375 z m -1.54688,-1.25 c 0,0.296875 -0.0937,0.484375 -0.35937,0.734375 -0.35938,0.328125 -0.79688,0.5 -1.32813,0.5 -0.6875,0 -1.09375,-0.328125 -1.09375,-0.90625 0,-0.578125 0.39063,-0.875 1.34375,-1.015625 0.9375,-0.125 1.14063,-0.171875 1.4375,-0.3125 z m 11.42188,-3.828125 v 6.40625 c 0,0.546875 -0.1875,0.734375 -0.73438,0.734375 -0.0312,0 -0.0312,0 -0.20312,-0.01563 v 0.765625 c 0.10937,0.01563 0.15625,0.03125 0.29687,0.03125 1,0 1.51563,-0.40625 1.51563,-1.171875 v -6.749999 z m 0.875,-2.1875 h -0.875 v 1.125 h 0.875 z m 9.76562,5.28125 c 0,-0.84375 -0.0625,-1.359375 -0.21875,-1.78125 -0.35937,-0.921875 -1.21875,-1.46875 -2.26562,-1.46875 -1.54688,0 -2.5625,1.1875 -2.5625,3.03125 0,1.828125 0.96875,2.96875 2.54687,2.96875 1.28125,0 2.17188,-0.734375 2.39063,-1.953125 h -0.90625 c -0.23438,0.75 -0.73438,1.125 -1.45313,1.125 -0.5625,0 -1.04687,-0.25 -1.34375,-0.71875 -0.21875,-0.328125 -0.29687,-0.640625 -0.29687,-1.203125 z m -4.09375,-0.71875 c 0.0781,-1.046875 0.70313,-1.71875 1.60938,-1.71875 0.875,0 1.54687,0.734375 1.54687,1.65625 0,0.01563 0,0.03125 -0.0156,0.0625 z m 14.94922,-4.5625 h -0.875 v 7.78125 h 0.875 v -2.171875 l 0.875,-0.859375 1.89062,3.03125 h 1.09375 l -2.28125,-3.65625 1.9375,-1.9375 h -1.14062 l -2.375,2.375 z m 22.27734,4.453125 h -2.54687 v 0.765625 h 2.54687 z m 21.19922,3.328125 1.98438,-7.78125 h -1.125 l -1.42188,6.3125 -1.76562,-6.3125 h -1.07813 l -1.71875,6.3125 -1.46875,-6.3125 h -1.10937 l 2,7.78125 h 1.07812 l 1.75,-6.390625 1.78125,6.390625 z m 22.94141,-0.515625 c -0.0937,0.01563 -0.125,0.01563 -0.1875,0.01563 -0.3125,0 -0.48438,-0.15625 -0.48438,-0.4375 v -3.28125 c 0,-1 -0.71875,-1.53125 -2.09375,-1.53125 -0.8125,0 -1.48437,0.234375 -1.85937,0.65625 -0.25,0.28125 -0.35938,0.59375 -0.39063,1.15625 h 0.90625 c 0.0781,-0.6875 0.48438,-1 1.3125,-1 0.79688,0 1.25,0.3125 1.25,0.84375 v 0.234375 c 0,0.375 -0.23437,0.53125 -0.9375,0.609375 -1.25,0.171875 -1.45312,0.203125 -1.78125,0.34375 -0.65625,0.265625 -0.98437,0.765625 -0.98437,1.5 0,1.015625 0.70312,1.65625 1.82812,1.65625 0.70313,0 1.26563,-0.25 1.90625,-0.828125 0.0625,0.5625 0.34375,0.828125 0.90625,0.828125 0.1875,0 0.32813,-0.03125 0.60938,-0.09375 z m -1.54688,-1.25 c 0,0.296875 -0.0937,0.484375 -0.35937,0.734375 -0.35938,0.328125 -0.79688,0.5 -1.32813,0.5 -0.6875,0 -1.09375,-0.328125 -1.09375,-0.90625 0,-0.578125 0.39063,-0.875 1.34375,-1.015625 0.9375,-0.125 1.14063,-0.171875 1.4375,-0.3125 z m 11.40235,-3.828125 v 5.59375 h 0.89062 v -2.90625 c 0,-0.796875 0.20313,-1.3125 0.64063,-1.625 0.28124,-0.203125 0.54687,-0.265625 1.15624,-0.28125 v -0.90625 c -0.14061,-0.01563 -0.21875,-0.03125 -0.34375,-0.03125 -0.56249,0 -0.99999,0.343749 -1.51562,1.171874 V 22.89056 Z m 13.42969,-2.1875 h -0.89063 v 2.890625 c -0.375,-0.5625 -0.96876,-0.859375 -1.71876,-0.859375 -1.43749,0 -2.39061,1.15625 -2.39061,2.9375 0,1.890625 0.92187,3.0625 2.42187,3.0625 0.78125,0 1.3125,-0.296875 1.79688,-0.984375 v 0.734375 h 0.78125 z m -2.45313,2.859375 c 0.95313,0 1.5625,0.859375 1.5625,2.1875 0,1.296875 -0.60937,2.140625 -1.54688,2.140625 -0.98437,0 -1.64062,-0.859375 -1.64062,-2.15625 0,-1.3125 0.65625,-2.171875 1.625,-2.171875 z m 22.08202,-2.859375 h -1.98437 v 10.046875 h 1.98437 v -0.765625 h -1.10937 v -8.515625 h 1.10937 z m 7.6797,0.21875 c -0.70312,0 -1.34375,0.3125 -1.75,0.828125 -0.48438,0.65625 -0.73438,1.671875 -0.73438,3.078125 0,2.546875 0.85938,3.90625 2.48438,3.90625 1.59374,0 2.46874,-1.359375 2.46874,-3.84375 0,-1.46875 -0.23437,-2.453125 -0.73437,-3.140625 -0.39063,-0.53125 -1.01563,-0.828125 -1.73437,-0.828125 z m 0,0.828125 c 1.01562,0 1.51562,1.03125 1.51562,3.046875 0,2.15625 -0.5,3.15625 -1.54688,3.15625 -0.98437,0 -1.48437,-1.046875 -1.48437,-3.125 0,-2.0625 0.5,-3.078125 1.51563,-3.078125 z m 13.92187,5.625 h -1.10937 v 1.109375 h 1.10937 z m 8.3164,-6.453125 c -0.70312,0 -1.34374,0.3125 -1.75,0.828125 -0.48437,0.65625 -0.73437,1.671875 -0.73437,3.078125 0,2.546875 0.85937,3.90625 2.48437,3.90625 1.59375,0 2.46875,-1.359375 2.46875,-3.84375 0,-1.46875 -0.23437,-2.453125 -0.73437,-3.140625 -0.39063,-0.53125 -1.01563,-0.828125 -1.73438,-0.828125 z m 0,0.828125 c 1.01563,0 1.51563,1.03125 1.51563,3.046875 0,2.15625 -0.5,3.15625 -1.54688,3.15625 -0.98437,0 -1.48437,-1.046875 -1.48437,-3.125 0,-2.0625 0.5,-3.078125 1.51562,-3.078125 z m 14.82812,-0.828125 c -0.70312,0 -1.34374,0.3125 -1.75,0.828125 -0.48437,0.65625 -0.73437,1.671875 -0.73437,3.078125 0,2.546875 0.85937,3.90625 2.48437,3.90625 1.59376,0 2.46876,-1.359375 2.46876,-3.84375 0,-1.46875 -0.23437,-2.453125 -0.73437,-3.140625 -0.39063,-0.53125 -1.01563,-0.828125 -1.73439,-0.828125 z m 0,0.828125 c 1.01563,0 1.51563,1.03125 1.51563,3.046875 0,2.15625 -0.5,3.15625 -1.54687,3.15625 -0.98437,0 -1.48437,-1.046875 -1.48437,-3.125 0,-2.0625 0.5,-3.078125 1.51561,-3.078125 z m 12.81251,5.625 v 1.109375 h 0.64063 v 0.1875 c 0,0.734375 -0.12494,0.953125 -0.64063,0.96875 v 0.40625 c 0.75,0 1.125,-0.46875 1.125,-1.390625 v -1.28125 z m 11.5664,-6.453125 h -3.90624 l -0.56251,4.109375 h 0.85938 c 0.4375,-0.515625 0.79688,-0.703125 1.39062,-0.703125 1.01563,0 1.65626,0.703125 1.65626,1.8125 0,1.09375 -0.625,1.75 -1.65626,1.75 -0.82812,0 -1.32812,-0.40625 -1.54686,-1.265625 h -0.93751 c 0.12493,0.625 0.23437,0.921875 0.45312,1.203125 0.43751,0.578125 1.20313,0.90625 2.04688,0.90625 1.53125,0 2.59375,-1.109375 2.59375,-2.71875 0,-1.484375 -0.98438,-2.515625 -2.4375,-2.515625 -0.53125,0 -0.95313,0.140625 -1.40625,0.453125 l 0.31251,-2.109375 h 3.14061 z m 15.06251,1.96875 c -0.17188,-1.234375 -0.98438,-1.96875 -2.14063,-1.96875 -0.82812,0 -1.57812,0.40625 -2.03125,1.078125 -0.46875,0.734375 -0.6875,1.65625 -0.6875,3.03125 0,1.28125 0.20312,2.09375 0.64063,2.765625 0.40624,0.609375 1.07812,0.9375 1.90624,0.9375 1.43751,0 2.46876,-1.078125 2.46876,-2.5625 0,-1.40625 -0.95313,-2.390625 -2.31251,-2.390625 -0.75,0 -1.32812,0.28125 -1.73437,0.84375 0.0156,-1.84375 0.60937,-2.875 1.68751,-2.875 0.65624,0 1.10937,0.421875 1.26561,1.140625 z m -2.26563,1.71875 c 0.90625,0 1.46875,0.625 1.46875,1.640625 0,0.953125 -0.64063,1.640625 -1.5,1.640625 -0.875,0 -1.54687,-0.71875 -1.54687,-1.6875 0,-0.9375 0.64063,-1.59375 1.57812,-1.59375 z m 14.71875,-3.6875 c -0.70312,0 -1.34375,0.3125 -1.75,0.828125 -0.48438,0.65625 -0.73438,1.671875 -0.73438,3.078125 0,2.546875 0.85938,3.90625 2.48438,3.90625 1.59376,0 2.46876,-1.359375 2.46876,-3.84375 0,-1.46875 -0.23439,-2.453125 -0.73439,-3.140625 -0.39061,-0.53125 -1.01561,-0.828125 -1.73437,-0.828125 z m 0,0.828125 c 1.01562,0 1.51562,1.03125 1.51562,3.046875 0,2.15625 -0.5,3.15625 -1.54686,3.15625 -0.98439,0 -1.48439,-1.046875 -1.48439,-3.125 0,-2.0625 0.5,-3.078125 1.51563,-3.078125 z m 13.91797,5.625 h -1.10937 v 1.109375 h 1.10937 z m 10.46093,-6.453125 h -3.90624 l -0.5625,4.109375 h 0.85937 c 0.43751,-0.515625 0.79688,-0.703125 1.39063,-0.703125 1.01562,0 1.65625,0.703125 1.65625,1.8125 0,1.09375 -0.625,1.75 -1.65625,1.75 -0.82812,0 -1.32812,-0.40625 -1.54688,-1.265625 h -0.9375 c 0.12494,0.625 0.23438,0.921875 0.45312,1.203125 0.43751,0.578125 1.20314,0.90625 2.04688,0.90625 1.53126,0 2.59375,-1.109375 2.59375,-2.71875 0,-1.484375 -0.98437,-2.515625 -2.43749,-2.515625 -0.53126,0 -0.95314,0.140625 -1.40626,0.453125 l 0.3125,-2.109375 h 3.14062 z m 15.06251,1.96875 c -0.17188,-1.234375 -0.98437,-1.96875 -2.14063,-1.96875 -0.82812,0 -1.57812,0.40625 -2.03125,1.078125 -0.46875,0.734375 -0.68749,1.65625 -0.68749,3.03125 0,1.28125 0.20312,2.09375 0.64062,2.765625 0.40624,0.609375 1.07812,0.9375 1.90624,0.9375 1.43751,0 2.46876,-1.078125 2.46876,-2.5625 0,-1.40625 -0.95313,-2.390625 -2.3125,-2.390625 -0.75,0 -1.32812,0.28125 -1.73438,0.84375 0.0156,-1.84375 0.60938,-2.875 1.6875,-2.875 0.65625,0 1.10938,0.421875 1.26562,1.140625 z m -2.26563,1.71875 c 0.90626,0 1.46875,0.625 1.46875,1.640625 0,0.953125 -0.64063,1.640625 -1.5,1.640625 -0.875,0 -1.54687,-0.71875 -1.54687,-1.6875 0,-0.9375 0.64062,-1.59375 1.57812,-1.59375 z m 12.02735,6.140625 h 1.98437 V 20.703061 h -1.98437 v 0.765625 h 1.09375 v 8.515625 h -1.09375 z M 106.79345,92.374934 h -3.23438 v 0.875 h 2.35938 v 0.21875 c 0,1.390626 -1.01563,2.390626 -2.4375,2.390626 -0.79688,0 -1.5,-0.296876 -1.96875,-0.796876 -0.51563,-0.546875 -0.8125,-1.484375 -0.8125,-2.4375 0,-1.921875 1.07812,-3.171875 2.71875,-3.171875 1.1875,0 2.04687,0.609375 2.26562,1.609375 h 1 c -0.26562,-1.578124 -1.46875,-2.484375 -3.25,-2.484375 -0.95312,0 -1.71875,0.25 -2.32812,0.75 -0.89063,0.75 -1.40625,1.953125 -1.40625,3.343751 0,2.390624 1.46875,4.0625 3.5625,4.0625 1.0625,0 1.90625,-0.406251 2.65625,-1.25 l 0.25,1.046874 h 0.625 z m 8.30078,0 h -3.23437 v 0.875 h 2.35937 v 0.21875 c 0,1.390626 -1.01562,2.390626 -2.4375,2.390626 -0.79687,0 -1.5,-0.296876 -1.96875,-0.796876 -0.51562,-0.546875 -0.8125,-1.484375 -0.8125,-2.4375 0,-1.921875 1.07813,-3.171875 2.71875,-3.171875 1.1875,0 2.04688,0.609375 2.26563,1.609375 h 1 c -0.26563,-1.578124 -1.46875,-2.484375 -3.25,-2.484375 -0.95313,0 -1.71875,0.25 -2.32813,0.75 -0.89062,0.75 -1.40625,1.953125 -1.40625,3.343751 0,2.390624 1.46875,4.0625 3.5625,4.0625 1.0625,0 1.90625,-0.406251 2.65625,-1.25 l 0.25,1.046874 h 0.625 z m -12.31641,8.328126 v 5.46875 c 0,0.625 -0.0625,0.98437 -0.23437,1.25 -0.20313,0.29687 -0.5625,0.46875 -0.95313,0.46875 -0.75,0 -1.17187,-0.5 -1.17187,-1.40625 v -0.5 h -1 v 0.6875 c 0,1.25 0.82812,2.0625 2.15625,2.0625 1.35937,0 2.20312,-0.84375 2.20312,-2.1875 v -5.84375 z m 3.73829,4.23437 h 4.23437 v -0.875 h -4.23437 v -2.48437 h 4.39062 v -0.875 h -5.39062 v 7.78125 h 5.59375 v -0.875 h -4.59375 z m 0,0"
       style="fill:#000000;fill-opacity:1;fill-rule:nonzero;stroke:none;stroke-width:1.33333"
       aria-label="Pajek - Ward [0.00,560.56]&#10; GG        &#10; JE        " /><path
       id="path2"
       d="m 950,5330 h 10 v 90 h -10"
       style="fill:none;stroke:#000000;stroke-width:10;stroke-linecap:butt;stroke-linejoin:miter;stroke-miterlimit:10;stroke-dasharray:none;stroke-opacity:1"
       transform="matrix(0.13333333,0,0,-0.13333333,0,814.66667)" /><path
       id="path3"
       d="m 101.30908,112.70306 h -1.01563 v 7.78125 h 1.01563 z m 5.88671,7.78125 2.1875,-6.51562 v 6.51562 h 0.9375 v -7.78125 h -1.375 l -2.26562,6.78125 -2.3125,-6.78125 h -1.375 v 7.78125 h 0.9375 v -6.51562 l 2.21875,6.51562 z m 0,0"
       style="fill:#000000;fill-opacity:1;fill-rule:nonzero;stroke:none;stroke-width:1.33333"
       aria-label=" IM        " /><path
       id="path4"
       d="m 950,5240 h 20 v 130 h -10"
       style="fill:none;stroke:#000000;stroke-width:10;stroke-linecap:butt;stroke-linejoin:miter;stroke-miterlimit:10;stroke-dasharray:none;stroke-opacity:1"
       transform="matrix(0.13333333,0,0,-0.13333333,0,814.66667)" /><path
       id="path5"
       d="m 103.40282,128.49994 2.625,-3.79688 h -1.1875 l -2,3.04688 -1.99999,-3.04688 H 99.6372 l 2.57812,3.79688 -2.749995,3.98437 h 1.203125 l 2.14062,-3.25 2.125,3.25 h 1.21875 z m 4.76954,1.26562 1.28125,-1.26562 2.73437,3.98437 h 1.17188 l -3.1875,-4.60937 3.15625,-3.17188 h -1.28125 l -3.875,3.9375 v -3.9375 h -0.98438 v 7.78125 h 0.98438 z m 0,0"
       style="fill:#000000;fill-opacity:1;fill-rule:nonzero;stroke:none;stroke-width:1.33333"
       aria-label=" XK        " /><path
       id="path6"
       d="m 950,5150 h 20 v 150"
       style="fill:none;stroke:#000000;stroke-width:10;stroke-linecap:butt;stroke-linejoin:miter;stroke-miterlimit:10;stroke-dasharray:none;stroke-opacity:1"
       transform="matrix(0.13333333,0,0,-0.13333333,0,814.66667)" /><path
       id="path7"
       d="m 103.41845,144.48431 2.70312,-7.78125 h -1.0625 l -2.15625,6.59375 -2.28124,-6.59375 h -1.07813 l 2.79687,7.78125 z m 7.98828,-2.34375 0.79688,2.34375 h 1.10937 l -2.73437,-7.78125 h -1.28125 l -2.76563,7.78125 h 1.04688 l 0.82812,-2.34375 z m -0.28125,-0.82812 h -2.46875 l 1.26563,-3.54688 z m 0,0"
       style="fill:#000000;fill-opacity:1;fill-rule:nonzero;stroke:none;stroke-width:1.33333"
       aria-label=" VA        " /><path
       id="path8"
       d="m 950,5060 h 20 v 160"
       style="fill:none;stroke:#000000;stroke-width:10;stroke-linecap:butt;stroke-linejoin:miter;stroke-miterlimit:10;stroke-dasharray:none;stroke-opacity:1"
       transform="matrix(0.13333333,0,0,-0.13333333,0,814.66667)" /><path
       id="path9"
       d="m 101.18408,152.93744 h 3.71874 v -0.875 h -3.71874 v -2.48438 h 4.21874 v -0.875 h -5.21875 v 7.78125 h 1.00001 z m 8.72265,-4.35938 c -2.23437,0 -3.75,1.64063 -3.75,4.07813 0,2.4375 1.51563,4.07812 3.75,4.07812 0.9375,0 1.78125,-0.29687 2.42188,-0.82812 0.84375,-0.71875 1.34375,-1.92188 1.34375,-3.1875 0,-2.51563 -1.48438,-4.14063 -3.76563,-4.14063 z m 0,0.875 c 1.6875,0 2.76563,1.28125 2.76563,3.25 0,1.875 -1.10938,3.15625 -2.76563,3.15625 -1.64062,0 -2.76562,-1.28125 -2.76562,-3.20312 0,-1.92188 1.125,-3.20313 2.76562,-3.20313 z m -3.11328,14.92188 h -3.23438 v 0.875 h 2.35938 v 0.21875 c 0,1.39062 -1.01563,2.39062 -2.4375,2.39062 -0.79688,0 -1.5,-0.29687 -1.96875,-0.79687 -0.51562,-0.54688 -0.8125,-1.48438 -0.8125,-2.4375 0,-1.92188 1.07812,-3.17188 2.71875,-3.17188 1.1875,0 2.04687,0.60938 2.26562,1.60938 h 1 c -0.26562,-1.57813 -1.46875,-2.48438 -3.25,-2.48438 -0.95312,0 -1.71875,0.25 -2.32812,0.75 -0.89063,0.75 -1.40625,1.95313 -1.40625,3.34375 0,2.39063 1.46875,4.0625 3.5625,4.0625 1.0625,0 1.90625,-0.40625 2.65625,-1.25 l 0.25,1.04688 h 0.625 z m 2.81641,-3.67188 h -1.01563 v 7.78125 h 1.01563 z m 0,0"
       style="fill:#000000;fill-opacity:1;fill-rule:nonzero;stroke:none;stroke-width:1.33333"
       aria-label=" FO        &#10; GI        " /><path
       id="path10"
       d="m 950,4880 h 30 v 90 h -30"
       style="fill:none;stroke:#000000;stroke-width:10;stroke-linecap:butt;stroke-linejoin:miter;stroke-miterlimit:10;stroke-dasharray:none;stroke-opacity:1"
       transform="matrix(0.13333333,0,0,-0.13333333,0,814.66667)" /><path
       id="path11"
       d="m 980,4920 h 10 v 220 h -20"
       style="fill:none;stroke:#000000;stroke-width:10;stroke-linecap:butt;stroke-linejoin:miter;stroke-miterlimit:10;stroke-dasharray:none;stroke-opacity:1"
       transform="matrix(0.13333333,0,0,-0.13333333,0,814.66667)" /><path
       id="path12"
       d="m 100.0747,180.48431 h 3.51562 c 0.73438,0 1.28125,-0.20312 1.6875,-0.65625 0.39063,-0.40625 0.60938,-0.95312 0.60938,-1.5625 0,-0.9375 -0.4375,-1.5 -1.42188,-1.89062 0.70313,-0.32813 1.07813,-0.90625 1.07813,-1.70313 0,-0.5625 -0.21875,-1.0625 -0.625,-1.42187 -0.40625,-0.375 -0.9375,-0.54688 -1.6875,-0.54688 h -3.15625 z m 0.98438,-4.42187 v -2.48438 h 1.92187 c 0.5625,0 0.875,0.0781 1.14062,0.28125 0.28125,0.21875 0.42188,0.53125 0.42188,0.95313 0,0.42187 -0.14063,0.75 -0.42188,0.96875 -0.26562,0.20312 -0.57812,0.28125 -1.14062,0.28125 z m 0,3.54687 v -2.67187 h 2.43749 c 0.46875,0 0.79688,0.10937 1.03125,0.35937 0.23438,0.25 0.35938,0.59375 0.35938,0.98438 0,0.375 -0.125,0.70312 -0.35938,0.95312 -0.23437,0.25 -0.5625,0.375 -1.03125,0.375 z m 10.34765,-1.46875 0.79688,2.34375 h 1.10937 l -2.73437,-7.78125 h -1.28125 l -2.76563,7.78125 h 1.04688 l 0.82812,-2.34375 z m -0.28125,-0.82812 h -2.46875 l 1.26563,-3.54688 z m -6.89453,15.17187 2.1875,-6.51562 v 6.51562 h 0.9375 v -7.78125 h -1.375 l -2.26563,6.78125 -2.31249,-6.78125 h -1.37501 v 7.78125 h 0.93751 v -6.51562 l 2.21874,6.51562 z m 5.83984,-3.54687 h 4.23438 v -0.875 h -4.23438 v -2.48438 h 4.39063 v -0.875 h -5.39063 v 7.78125 h 5.59375 v -0.875 h -4.59375 z m 0,0"
       style="fill:#000000;fill-opacity:1;fill-rule:nonzero;stroke:none;stroke-width:1.33333"
       aria-label=" BA        &#10; ME        " /><path
       id="path13"
       d="m 950,4700 h 30 v 90 h -30"
       style="fill:none;stroke:#000000;stroke-width:10;stroke-linecap:butt;stroke-linejoin:miter;stroke-miterlimit:10;stroke-dasharray:none;stroke-opacity:1"
       transform="matrix(0.13333333,0,0,-0.13333333,0,814.66667)" /><path
       id="path14"
       d="m 104.23095,204.48431 2.1875,-6.51562 v 6.51562 h 0.9375 v -7.78125 h -1.375 l -2.26563,6.78125 -2.31249,-6.78125 h -1.37501 v 7.78125 h 0.93751 v -6.51562 l 2.21874,6.51562 z m 5.71484,-2.71875 1.28125,-1.26562 2.73438,3.98437 h 1.17187 l -3.1875,-4.60937 3.15625,-3.17188 h -1.28125 l -3.875,3.9375 v -3.9375 h -0.98437 v 7.78125 h 0.98437 z m 0,0"
       style="fill:#000000;fill-opacity:1;fill-rule:nonzero;stroke:none;stroke-width:1.33333"
       aria-label=" MK        " /><path
       id="path15"
       d="m 950,4610 h 40 v 130 h -10"
       style="fill:none;stroke:#000000;stroke-width:10;stroke-linecap:butt;stroke-linejoin:miter;stroke-miterlimit:10;stroke-dasharray:none;stroke-opacity:1"
       transform="matrix(0.13333333,0,0,-0.13333333,0,814.66667)" /><path
       id="path16"
       d="m 101.0747,208.70306 h -0.98438 v 7.78125 h 4.82813 v -0.875 h -3.84375 z m 6.16406,0 h -1.01562 v 7.78125 h 1.01562 z m 0,0"
       style="fill:#000000;fill-opacity:1;fill-rule:nonzero;stroke:none;stroke-width:1.33333"
       aria-label=" LI        " /><path
       id="path17"
       d="m 950,4520 h 50 v 150 h -10"
       style="fill:none;stroke:#000000;stroke-width:10;stroke-linecap:butt;stroke-linejoin:miter;stroke-miterlimit:10;stroke-dasharray:none;stroke-opacity:1"
       transform="matrix(0.13333333,0,0,-0.13333333,0,814.66667)" /><path
       id="path18"
       d="m 104.29345,226.14056 0.79687,2.34375 h 1.10938 l -2.73438,-7.78125 h -1.28125 l -2.76562,7.78125 h 1.04687 l 0.82813,-2.34375 z m -0.28125,-0.82812 h -2.46875 l 1.26562,-3.54688 z m 4.17578,-4.60938 h -0.98437 v 7.78125 h 4.82812 v -0.875 h -3.84375 z m -3.95703,19.78125 2.1875,-6.51562 v 6.51562 h 0.9375 v -7.78125 h -1.375 l -2.26563,6.78125 -2.31249,-6.78125 h -1.37501 v 7.78125 h 0.93751 v -6.51562 l 2.21874,6.51562 z m 10.94922,-5.375 c -0.3125,-1.70312 -1.28125,-2.53125 -3,-2.53125 -1.04688,0 -1.89063,0.32813 -2.46875,0.96875 -0.70313,0.76563 -1.07813,1.875 -1.07813,3.14063 0,1.28125 0.39063,2.375 1.125,3.14062 0.59375,0.60938 1.375,0.90625 2.375,0.90625 1.90625,0 2.96875,-1.03125 3.20313,-3.09375 h -1.01563 c -0.0937,0.53125 -0.1875,0.90625 -0.35937,1.21875 -0.3125,0.625 -0.98438,1 -1.8125,1 -1.54688,0 -2.53125,-1.25 -2.53125,-3.1875 0,-2 0.9375,-3.21875 2.45312,-3.21875 0.625,0 1.21875,0.1875 1.53125,0.48438 0.29688,0.26562 0.45313,0.60937 0.5625,1.17187 z m 0,0"
       style="fill:#000000;fill-opacity:1;fill-rule:nonzero;stroke:none;stroke-width:1.33333"
       aria-label=" AL        &#10; MC        " /><path
       id="path19"
       d="m 950,4340 h 30 v 90 h -30"
       style="fill:none;stroke:#000000;stroke-width:10;stroke-linecap:butt;stroke-linejoin:miter;stroke-miterlimit:10;stroke-dasharray:none;stroke-opacity:1"
       transform="matrix(0.13333333,0,0,-0.13333333,0,814.66667)" /><path
       id="path20"
       d="m 980,4380 h 20 v 210"
       style="fill:none;stroke:#000000;stroke-width:10;stroke-linecap:butt;stroke-linejoin:miter;stroke-miterlimit:10;stroke-dasharray:none;stroke-opacity:1"
       transform="matrix(0.13333333,0,0,-0.13333333,0,814.66667)" /><path
       id="path21"
       d="m 1000,4480 h 30 v 550 h -40"
       style="fill:none;stroke:#000000;stroke-width:10;stroke-linecap:butt;stroke-linejoin:miter;stroke-miterlimit:10;stroke-dasharray:none;stroke-opacity:1"
       transform="matrix(0.13333333,0,0,-0.13333333,0,814.66667)" /><path
       id="path22"
       d="m 104.29345,250.14056 0.79687,2.34375 h 1.10938 l -2.73438,-7.78125 h -1.28125 l -2.76562,7.78125 h 1.04687 l 0.82813,-2.34375 z m -0.28125,-0.82812 h -2.46875 l 1.26562,-3.54688 z m 6.50391,-0.8125 2.625,-3.79688 h -1.1875 l -2,3.04688 -2,-3.04688 h -1.20313 l 2.57813,3.79688 -2.75,3.98437 h 1.20312 l 2.14063,-3.25 2.125,3.25 h 1.21875 z m -6.22266,13.64062 0.79687,2.34375 h 1.10938 l -2.73438,-7.78125 h -1.28125 l -2.76562,7.78125 h 1.04687 l 0.82813,-2.34375 z m -0.28125,-0.82812 h -2.46875 l 1.26562,-3.54688 z m 3.28516,3.17187 h 3 c 1.95312,0 3.17187,-1.46875 3.17187,-3.89062 0,-2.42188 -1.20312,-3.89063 -3.17187,-3.89063 h -3 z m 0.98437,-0.875 v -6.03125 h 1.84375 c 1.53125,0 2.34375,1.03125 2.34375,3.01563 0,1.96875 -0.8125,3.01562 -2.34375,3.01562 z m 0,0"
       style="fill:#000000;fill-opacity:1;fill-rule:nonzero;stroke:none;stroke-width:1.33333"
       aria-label=" AX        &#10; AD        " /><path
       id="path23"
       d="m 950,4160 v 0 90"
       style="fill:none;stroke:#000000;stroke-width:10;stroke-linecap:butt;stroke-linejoin:miter;stroke-miterlimit:10;stroke-dasharray:none;stroke-opacity:1"
       transform="matrix(0.13333333,0,0,-0.13333333,0,814.66667)" /><path
       id="path24"
       d="m 105.59032,270.98431 c -0.0156,-1.51562 -1.0625,-2.40625 -2.84375,-2.40625 -1.71874,0 -2.76562,0.875 -2.76562,2.28125 0,0.95313 0.5,1.54688 1.51563,1.8125 l 1.93749,0.51563 c 0.98438,0.25 1.4375,0.65625 1.4375,1.26562 0,0.40625 -0.23437,0.84375 -0.5625,1.07813 -0.3125,0.20312 -0.79687,0.32812 -1.42187,0.32812 -0.84375,0 -1.42187,-0.20312 -1.79687,-0.65625 -0.29688,-0.34375 -0.42188,-0.71875 -0.40625,-1.1875 h -0.937505 c 0,0.70313 0.140625,1.17188 0.453125,1.60938 0.53125,0.71875 1.4375,1.10937 2.60937,1.10937 0.9375,0 1.6875,-0.21875 2.20313,-0.60937 0.51562,-0.40625 0.84375,-1.10938 0.84375,-1.78125 0,-0.95313 -0.59375,-1.65625 -1.65625,-1.95313 l -1.95313,-0.51562 c -0.93749,-0.25 -1.28124,-0.5625 -1.28124,-1.15625 0,-0.78125 0.70312,-1.3125 1.74999,-1.3125 1.23438,0 1.92188,0.5625 1.9375,1.57812 z m 4.30079,-2.28125 v 5.46875 c 0,0.625 -0.0625,0.98438 -0.23438,1.25 -0.20312,0.29688 -0.5625,0.46875 -0.95312,0.46875 -0.75,0 -1.17188,-0.5 -1.17188,-1.40625 v -0.5 h -1 v 0.6875 c 0,1.25 0.82813,2.0625 2.15625,2.0625 1.35938,0 2.20313,-0.84375 2.20313,-2.1875 v -5.84375 z m 0,0"
       style="fill:#000000;fill-opacity:1;fill-rule:nonzero;stroke:none;stroke-width:1.33333"
       aria-label=" SJ        " /><path
       id="path25"
       d="m 950,4070 v 0 130"
       style="fill:none;stroke:#000000;stroke-width:10;stroke-linecap:butt;stroke-linejoin:miter;stroke-miterlimit:10;stroke-dasharray:none;stroke-opacity:1"
       transform="matrix(0.13333333,0,0,-0.13333333,0,814.66667)" /><path
       id="path26"
       d="m 105.59032,282.98431 c -0.0156,-1.51562 -1.0625,-2.40625 -2.84375,-2.40625 -1.71874,0 -2.76562,0.875 -2.76562,2.28125 0,0.95313 0.5,1.54688 1.51563,1.8125 l 1.93749,0.51563 c 0.98438,0.25 1.4375,0.65625 1.4375,1.26562 0,0.40625 -0.23437,0.84375 -0.5625,1.07813 -0.3125,0.20312 -0.79687,0.32812 -1.42187,0.32812 -0.84375,0 -1.42187,-0.20312 -1.79687,-0.65625 -0.29688,-0.34375 -0.42188,-0.71875 -0.40625,-1.1875 h -0.937505 c 0,0.70313 0.140625,1.17188 0.453125,1.60938 0.53125,0.71875 1.4375,1.10937 2.60937,1.10937 0.9375,0 1.6875,-0.21875 2.20313,-0.60937 0.51562,-0.40625 0.84375,-1.10938 0.84375,-1.78125 0,-0.95313 -0.59375,-1.65625 -1.65625,-1.95313 l -1.95313,-0.51562 c -0.93749,-0.25 -1.28124,-0.5625 -1.28124,-1.15625 0,-0.78125 0.70312,-1.3125 1.74999,-1.3125 1.23438,0 1.92188,0.5625 1.9375,1.57812 z m 5.75391,5.5 2.1875,-6.51562 v 6.51562 h 0.9375 v -7.78125 h -1.375 l -2.26562,6.78125 -2.3125,-6.78125 h -1.375 v 7.78125 h 0.9375 v -6.51562 l 2.21875,6.51562 z m 0,0"
       style="fill:#000000;fill-opacity:1;fill-rule:nonzero;stroke:none;stroke-width:1.33333"
       aria-label=" SM        " /><path
       id="path27"
       d="m 950,3980 h 20 v 150 h -20"
       style="fill:none;stroke:#000000;stroke-width:10;stroke-linecap:butt;stroke-linejoin:miter;stroke-miterlimit:10;stroke-dasharray:none;stroke-opacity:1"
       transform="matrix(0.13333333,0,0,-0.13333333,0,814.66667)" /><path
       id="path28"
       d="m 970,4050 h 80 v 700 h -20"
       style="fill:none;stroke:#000000;stroke-width:10;stroke-linecap:butt;stroke-linejoin:miter;stroke-miterlimit:10;stroke-dasharray:none;stroke-opacity:1"
       transform="matrix(0.13333333,0,0,-0.13333333,0,814.66667)" /><path
       id="path29"
       d="m 106.79345,296.37494 h -3.23438 v 0.875 h 2.35938 v 0.21875 c 0,1.39062 -1.01563,2.39062 -2.4375,2.39062 -0.79688,0 -1.5,-0.29687 -1.96875,-0.79687 -0.51562,-0.54688 -0.8125,-1.48438 -0.8125,-2.4375 0,-1.92188 1.07812,-3.17188 2.71875,-3.17188 1.1875,0 2.04687,0.60938 2.26562,1.60938 h 1 c -0.26562,-1.57813 -1.46875,-2.48438 -3.25,-2.48438 -0.95312,0 -1.71875,0.25 -2.32812,0.75 -0.89063,0.75 -1.40625,1.95313 -1.40625,3.34375 0,2.39063 1.46875,4.0625 3.5625,4.0625 1.0625,0 1.90625,-0.40625 2.65625,-1.25 l 0.25,1.04688 h 0.625 z m 2.69141,0.5625 h 4.23437 v -0.875 h -4.23437 v -2.48438 h 4.39062 v -0.875 h -5.39062 v 7.78125 h 5.59375 v -0.875 h -4.59375 z m -8.41016,7.76562 h -0.98438 v 7.78125 h 4.82813 v -0.875 h -3.84375 z m 7.86719,0.875 h 2.54687 v -0.875 h -6.10937 v 0.875 h 2.5625 v 6.90625 h 1 z m 0,0"
       style="fill:#000000;fill-opacity:1;fill-rule:nonzero;stroke:none;stroke-width:1.33333"
       aria-label=" GE        &#10; LT        " /><path
       id="path30"
       d="m 950,3800 h 60 v 90 h -60"
       style="fill:none;stroke:#000000;stroke-width:10;stroke-linecap:butt;stroke-linejoin:miter;stroke-miterlimit:10;stroke-dasharray:none;stroke-opacity:1"
       transform="matrix(0.13333333,0,0,-0.13333333,0,814.66667)" /><path
       id="path31"
       d="m 104.29345,322.14056 0.79687,2.34375 h 1.10938 l -2.73438,-7.78125 h -1.28125 l -2.76562,7.78125 h 1.04687 l 0.82813,-2.34375 z m -0.28125,-0.82812 h -2.46875 l 1.26562,-3.54688 z m 7.33203,3.17187 2.1875,-6.51562 v 6.51562 h 0.9375 v -7.78125 h -1.375 l -2.26562,6.78125 -2.3125,-6.78125 h -1.375 v 7.78125 h 0.9375 v -6.51562 l 2.21875,6.51562 z m 0,0"
       style="fill:#000000;fill-opacity:1;fill-rule:nonzero;stroke:none;stroke-width:1.33333"
       aria-label=" AM        " /><path
       id="path32"
       d="m 950,3710 h 60 v 130"
       style="fill:none;stroke:#000000;stroke-width:10;stroke-linecap:butt;stroke-linejoin:miter;stroke-miterlimit:10;stroke-dasharray:none;stroke-opacity:1"
       transform="matrix(0.13333333,0,0,-0.13333333,0,814.66667)" /><path
       id="path33"
       d="m 101.30908,328.70306 h -1.01563 v 7.78125 h 1.01563 z m 7.24609,2.28125 c -0.0156,-1.51562 -1.0625,-2.40625 -2.84375,-2.40625 -1.71875,0 -2.76563,0.875 -2.76563,2.28125 0,0.95313 0.5,1.54688 1.51563,1.8125 l 1.9375,0.51563 c 0.98437,0.25 1.4375,0.65625 1.4375,1.26562 0,0.40625 -0.23438,0.84375 -0.5625,1.07813 -0.3125,0.20312 -0.79688,0.32812 -1.42188,0.32812 -0.84375,0 -1.42187,-0.20312 -1.79687,-0.65625 -0.29688,-0.34375 -0.42188,-0.71875 -0.40625,-1.1875 h -0.9375 c 0,0.70313 0.14062,1.17188 0.45312,1.60938 0.53125,0.71875 1.4375,1.10937 2.60938,1.10937 0.9375,0 1.6875,-0.21875 2.20312,-0.60937 0.51563,-0.40625 0.84375,-1.10938 0.84375,-1.78125 0,-0.95313 -0.59375,-1.65625 -1.65625,-1.95313 l -1.95312,-0.51562 c -0.9375,-0.25 -1.28125,-0.5625 -1.28125,-1.15625 0,-0.78125 0.70312,-1.3125 1.75,-1.3125 1.23437,0 1.92187,0.5625 1.9375,1.57812 z m -7.48047,9.71875 h -0.98438 v 7.78125 h 4.82813 v -0.875 h -3.84375 z m 9.97656,0 v 5.46875 c 0,1.04688 -0.75,1.6875 -2,1.6875 -0.57812,0 -1.04687,-0.14062 -1.42187,-0.40625 -0.39063,-0.29687 -0.5625,-0.70312 -0.5625,-1.28125 v -5.46875 h -1 v 5.46875 c 0,1.57813 1.125,2.5625 2.98437,2.5625 1.8125,0 3,-1 3,-2.5625 v -5.46875 z m 0,0"
       style="fill:#000000;fill-opacity:1;fill-rule:nonzero;stroke:none;stroke-width:1.33333"
       aria-label=" IS        &#10; LU        " /><path
       id="path34"
       d="m 950,3530 h 60 v 90 h -60"
       style="fill:none;stroke:#000000;stroke-width:10;stroke-linecap:butt;stroke-linejoin:miter;stroke-miterlimit:10;stroke-dasharray:none;stroke-opacity:1"
       transform="matrix(0.13333333,0,0,-0.13333333,0,814.66667)" /><path
       id="path35"
       d="m 1010,3570 h 20 v 200 h -20"
       style="fill:none;stroke:#000000;stroke-width:10;stroke-linecap:butt;stroke-linejoin:miter;stroke-miterlimit:10;stroke-dasharray:none;stroke-opacity:1"
       transform="matrix(0.13333333,0,0,-0.13333333,0,814.66667)" /><path
       id="path36"
       d="m 101.18408,356.93744 h 4.23437 v -0.875 h -4.23437 v -2.48438 h 4.39062 v -0.875 h -5.39063 v 7.78125 h 5.59375 v -0.875 h -4.59374 z m 7.11328,0 h 4.23437 v -0.875 h -4.23437 v -2.48438 h 4.39062 v -0.875 h -5.39062 v 7.78125 h 5.59375 v -0.875 h -4.59375 z m -7.22266,7.76562 h -0.98438 v 7.78125 h 4.82813 v -0.875 h -3.84375 z m 8.27344,7.78125 2.70312,-7.78125 h -1.0625 l -2.15625,6.59375 -2.28125,-6.59375 h -1.07812 l 2.79687,7.78125 z m 0,0"
       style="fill:#000000;fill-opacity:1;fill-rule:nonzero;stroke:none;stroke-width:1.33333"
       aria-label=" EE        &#10; LV        " /><path
       id="path37"
       d="m 950,3350 h 50 v 90 h -50"
       style="fill:none;stroke:#000000;stroke-width:10;stroke-linecap:butt;stroke-linejoin:miter;stroke-miterlimit:10;stroke-dasharray:none;stroke-opacity:1"
       transform="matrix(0.13333333,0,0,-0.13333333,0,814.66667)" /><path
       id="path38"
       d="m 100.0747,384.48431 h 3.51562 c 0.73438,0 1.28125,-0.20312 1.6875,-0.65625 0.39063,-0.40625 0.60938,-0.95312 0.60938,-1.5625 0,-0.9375 -0.4375,-1.5 -1.42188,-1.89062 0.70313,-0.32813 1.07813,-0.90625 1.07813,-1.70313 0,-0.5625 -0.21875,-1.0625 -0.625,-1.42187 -0.40625,-0.375 -0.9375,-0.54688 -1.6875,-0.54688 h -3.15625 z m 0.98438,-4.42187 v -2.48438 h 1.92187 c 0.5625,0 0.875,0.0781 1.14062,0.28125 0.28125,0.21875 0.42188,0.53125 0.42188,0.95313 0,0.42187 -0.14063,0.75 -0.42188,0.96875 -0.26562,0.20312 -0.57812,0.28125 -1.14062,0.28125 z m 0,3.54687 v -2.67187 h 2.43749 c 0.46875,0 0.79688,0.10937 1.03125,0.35937 0.23438,0.25 0.35938,0.59375 0.35938,0.98438 0,0.375 -0.125,0.70312 -0.35938,0.95312 -0.23437,0.25 -0.5625,0.375 -1.03125,0.375 z m 9.41015,-2.17187 2.92188,-4.73438 h -1.17188 l -2.21875,3.79688 -2.29687,-3.79688 h -1.21875 l 3,4.73438 v 3.04687 h 0.98437 z m 0,0"
       style="fill:#000000;fill-opacity:1;fill-rule:nonzero;stroke:none;stroke-width:1.33333"
       aria-label=" BY        " /><path
       id="path39"
       d="m 950,3260 h 70 v 130 h -20"
       style="fill:none;stroke:#000000;stroke-width:10;stroke-linecap:butt;stroke-linejoin:miter;stroke-miterlimit:10;stroke-dasharray:none;stroke-opacity:1"
       transform="matrix(0.13333333,0,0,-0.13333333,0,814.66667)" /><path
       id="path40"
       d="m 1020,3320 h 40 v 350 h -30"
       style="fill:none;stroke:#000000;stroke-width:10;stroke-linecap:butt;stroke-linejoin:miter;stroke-miterlimit:10;stroke-dasharray:none;stroke-opacity:1"
       transform="matrix(0.13333333,0,0,-0.13333333,0,814.66667)" /><path
       id="path41"
       d="m 104.29345,394.14056 0.79687,2.34375 h 1.10938 l -2.73438,-7.78125 h -1.28125 l -2.76562,7.78125 h 1.04687 l 0.82813,-2.34375 z m -0.28125,-0.82812 h -2.46875 l 1.26562,-3.54688 z m 8.53516,-4.60938 h -5.60938 v 0.875 h 4.375 l -4.67187,6.03125 v 0.875 h 5.92187 v -0.875 h -4.67187 l 4.65625,-6.01562 z m -11.48828,17.0625 1.28124,-1.26562 2.73438,3.98437 h 1.17187 l -3.1875,-4.60937 3.15625,-3.17188 h -1.28125 l -3.87499,3.9375 v -3.9375 h -0.98438 v 7.78125 h 0.98438 z m 11.48828,-5.0625 h -5.60938 v 0.875 h 4.375 l -4.67187,6.03125 v 0.875 h 5.92187 v -0.875 h -4.67187 l 4.65625,-6.01562 z m 0,0"
       style="fill:#000000;fill-opacity:1;fill-rule:nonzero;stroke:none;stroke-width:1.33333"
       aria-label=" AZ        &#10; KZ        " /><path
       id="path42"
       d="m 950,3080 h 60 v 90 h -60"
       style="fill:none;stroke:#000000;stroke-width:10;stroke-linecap:butt;stroke-linejoin:miter;stroke-miterlimit:10;stroke-dasharray:none;stroke-opacity:1"
       transform="matrix(0.13333333,0,0,-0.13333333,0,814.66667)" /><path
       id="path43"
       d="m 104.23095,420.48431 2.1875,-6.51562 v 6.51562 h 0.9375 v -7.78125 h -1.375 l -2.26563,6.78125 -2.31249,-6.78125 h -1.37501 v 7.78125 h 0.93751 v -6.51562 l 2.21874,6.51562 z m 4.83984,0 h 3 c 1.95313,0 3.17188,-1.46875 3.17188,-3.89062 0,-2.42188 -1.20313,-3.89063 -3.17188,-3.89063 h -3 z m 0.98438,-0.875 v -6.03125 h 1.84375 c 1.53125,0 2.34375,1.03125 2.34375,3.01563 0,1.96875 -0.8125,3.01562 -2.34375,3.01562 z m 0,0"
       style="fill:#000000;fill-opacity:1;fill-rule:nonzero;stroke:none;stroke-width:1.33333"
       aria-label=" MD        " /><path
       id="path44"
       d="m 950,2990 h 70 v 130 h -10"
       style="fill:none;stroke:#000000;stroke-width:10;stroke-linecap:butt;stroke-linejoin:miter;stroke-miterlimit:10;stroke-dasharray:none;stroke-opacity:1"
       transform="matrix(0.13333333,0,0,-0.13333333,0,814.66667)" /><path
       id="path45"
       d="m 106.29345,427.10931 c -0.3125,-1.70312 -1.28125,-2.53125 -3,-2.53125 -1.04688,0 -1.89062,0.32813 -2.46875,0.96875 -0.70313,0.76563 -1.078125,1.875 -1.078125,3.14063 0,1.28125 0.390625,2.375 1.125005,3.14062 0.59375,0.60938 1.37499,0.90625 2.37499,0.90625 1.90625,0 2.96875,-1.03125 3.20313,-3.09375 h -1.01563 c -0.0937,0.53125 -0.1875,0.90625 -0.35937,1.21875 -0.3125,0.625 -0.98438,1 -1.8125,1 -1.54688,0 -2.53125,-1.25 -2.53125,-3.1875 0,-2 0.9375,-3.21875 2.45312,-3.21875 0.625,0 1.21875,0.1875 1.53125,0.48438 0.29688,0.26562 0.45313,0.60937 0.5625,1.17187 z m 4.76562,2.32813 2.92188,-4.73438 h -1.17187 l -2.21876,3.79688 -2.29687,-3.79688 h -1.21875 l 3,4.73438 v 3.04687 h 0.98437 z m -6.82812,15.04687 2.1875,-6.51562 v 6.51562 h 0.9375 v -7.78125 h -1.375 l -2.26563,6.78125 -2.31249,-6.78125 h -1.37501 v 7.78125 h 0.93751 v -6.51562 l 2.21874,6.51562 z m 7.66797,-6.90625 h 2.54687 v -0.875 h -6.10937 v 0.875 h 2.5625 v 6.90625 h 1 z m 0,0"
       style="fill:#000000;fill-opacity:1;fill-rule:nonzero;stroke:none;stroke-width:1.33333"
       aria-label=" CY        &#10; MT        " /><path
       id="path46"
       d="m 950,2810 h 60 v 90 h -60"
       style="fill:none;stroke:#000000;stroke-width:10;stroke-linecap:butt;stroke-linejoin:miter;stroke-miterlimit:10;stroke-dasharray:none;stroke-opacity:1"
       transform="matrix(0.13333333,0,0,-0.13333333,0,814.66667)" /><path
       id="path47"
       d="m 1010,2850 h 40 v 200 h -30"
       style="fill:none;stroke:#000000;stroke-width:10;stroke-linecap:butt;stroke-linejoin:miter;stroke-miterlimit:10;stroke-dasharray:none;stroke-opacity:1"
       transform="matrix(0.13333333,0,0,-0.13333333,0,814.66667)" /><path
       id="path48"
       d="m 1050,2950 h 60 v 540 h -50"
       style="fill:none;stroke:#000000;stroke-width:10;stroke-linecap:butt;stroke-linejoin:miter;stroke-miterlimit:10;stroke-dasharray:none;stroke-opacity:1"
       transform="matrix(0.13333333,0,0,-0.13333333,0,814.66667)" /><path
       id="path49"
       d="m 1110,3220 h 390 v 1180 h -450"
       style="fill:none;stroke:#000000;stroke-width:10;stroke-linecap:butt;stroke-linejoin:miter;stroke-miterlimit:10;stroke-dasharray:none;stroke-opacity:1"
       transform="matrix(0.13333333,0,0,-0.13333333,0,814.66667)" /><path
       id="path50"
       d="m 104.29345,454.14056 0.79687,2.34375 h 1.10938 l -2.73438,-7.78125 h -1.28125 l -2.76562,7.78125 h 1.04687 l 0.82813,-2.34375 z m -0.28125,-0.82812 h -2.46875 l 1.26562,-3.54688 z m 6.11328,-3.73438 h 2.54688 v -0.875 h -6.10938 v 0.875 h 2.5625 v 6.90625 h 1 z m -8.9414,15.35938 h 3.71874 v -0.875 h -3.71874 v -2.48438 h 4.21874 v -0.875 h -5.21875 v 7.78125 h 1.00001 z m 6.64453,-4.23438 h -1.01563 v 7.78125 h 1.01563 z m 0,0"
       style="fill:#000000;fill-opacity:1;fill-rule:nonzero;stroke:none;stroke-width:1.33333"
       aria-label=" AT        &#10; FI        " /><path
       id="path51"
       d="m 950,2630 h 60 v 90 h -60"
       style="fill:none;stroke:#000000;stroke-width:10;stroke-linecap:butt;stroke-linejoin:miter;stroke-miterlimit:10;stroke-dasharray:none;stroke-opacity:1"
       transform="matrix(0.13333333,0,0,-0.13333333,0,814.66667)" /><path
       id="path52"
       d="m 106.29345,475.10931 c -0.3125,-1.70312 -1.28125,-2.53125 -3,-2.53125 -1.04688,0 -1.89062,0.32813 -2.46875,0.96875 -0.70313,0.76563 -1.078125,1.875 -1.078125,3.14063 0,1.28125 0.390625,2.375 1.125005,3.14062 0.59375,0.60938 1.37499,0.90625 2.37499,0.90625 1.90625,0 2.96875,-1.03125 3.20313,-3.09375 h -1.01563 c -0.0937,0.53125 -0.1875,0.90625 -0.35937,1.21875 -0.3125,0.625 -0.98438,1 -1.8125,1 -1.54688,0 -2.53125,-1.25 -2.53125,-3.1875 0,-2 0.9375,-3.21875 2.45312,-3.21875 0.625,0 1.21875,0.1875 1.53125,0.48438 0.29688,0.26562 0.45313,0.60937 0.5625,1.17187 z m 6.84375,-2.40625 h -5.60938 v 0.875 h 4.375 l -4.67187,6.03125 v 0.875 h 5.92187 v -0.875 h -4.67187 l 4.65625,-6.01562 z m 0,0"
       style="fill:#000000;fill-opacity:1;fill-rule:nonzero;stroke:none;stroke-width:1.33333"
       aria-label=" CZ        " /><path
       id="path53"
       d="m 950,2540 h 60 v 130"
       style="fill:none;stroke:#000000;stroke-width:10;stroke-linecap:butt;stroke-linejoin:miter;stroke-miterlimit:10;stroke-dasharray:none;stroke-opacity:1"
       transform="matrix(0.13333333,0,0,-0.13333333,0,814.66667)" /><path
       id="path54"
       d="m 100.0747,492.48431 h 3.51562 c 0.73438,0 1.28125,-0.20312 1.6875,-0.65625 0.39063,-0.40625 0.60938,-0.95312 0.60938,-1.5625 0,-0.9375 -0.4375,-1.5 -1.42188,-1.89062 0.70313,-0.32813 1.07813,-0.90625 1.07813,-1.70313 0,-0.5625 -0.21875,-1.0625 -0.625,-1.42187 -0.40625,-0.375 -0.9375,-0.54688 -1.6875,-0.54688 h -3.15625 z m 0.98438,-4.42187 v -2.48438 h 1.92187 c 0.5625,0 0.875,0.0781 1.14062,0.28125 0.28125,0.21875 0.42188,0.53125 0.42188,0.95313 0,0.42187 -0.14063,0.75 -0.42188,0.96875 -0.26562,0.20312 -0.57812,0.28125 -1.14062,0.28125 z m 0,3.54687 v -2.67187 h 2.43749 c 0.46875,0 0.79688,0.10937 1.03125,0.35937 0.23438,0.25 0.35938,0.59375 0.35938,0.98438 0,0.375 -0.125,0.70312 -0.35938,0.95312 -0.23437,0.25 -0.5625,0.375 -1.03125,0.375 z m 7.23828,-2.67187 h 4.23437 v -0.875 h -4.23437 v -2.48438 h 4.39062 v -0.875 h -5.39062 v 7.78125 h 5.59375 v -0.875 h -4.59375 z m -7.11328,12 h 4.23437 v -0.875 h -4.23437 v -2.48438 h 4.39062 v -0.875 h -5.39063 v 7.78125 h 5.59375 v -0.875 h -4.59374 z m 11.51953,-1.95313 c -0.0156,-1.51562 -1.0625,-2.40625 -2.84375,-2.40625 -1.71875,0 -2.76563,0.875 -2.76563,2.28125 0,0.95313 0.5,1.54688 1.51563,1.8125 l 1.9375,0.51563 c 0.98437,0.25 1.4375,0.65625 1.4375,1.26562 0,0.40625 -0.23438,0.84375 -0.5625,1.07813 -0.3125,0.20312 -0.79688,0.32812 -1.42188,0.32812 -0.84375,0 -1.42187,-0.20312 -1.79687,-0.65625 -0.29688,-0.34375 -0.42188,-0.71875 -0.40625,-1.1875 h -0.9375 c 0,0.70313 0.14062,1.17188 0.45312,1.60938 0.53125,0.71875 1.4375,1.10937 2.60938,1.10937 0.9375,0 1.6875,-0.21875 2.20312,-0.60937 0.51563,-0.40625 0.84375,-1.10938 0.84375,-1.78125 0,-0.95313 -0.59375,-1.65625 -1.65625,-1.95313 l -1.95312,-0.51562 c -0.9375,-0.25 -1.28125,-0.5625 -1.28125,-1.15625 0,-0.78125 0.70312,-1.3125 1.75,-1.3125 1.23437,0 1.92187,0.5625 1.9375,1.57812 z m 0,0"
       style="fill:#000000;fill-opacity:1;fill-rule:nonzero;stroke:none;stroke-width:1.33333"
       aria-label=" BE        &#10; ES        " /><path
       id="path55"
       d="m 950,2360 h 60 v 90 h -60"
       style="fill:none;stroke:#000000;stroke-width:10;stroke-linecap:butt;stroke-linejoin:miter;stroke-miterlimit:10;stroke-dasharray:none;stroke-opacity:1"
       transform="matrix(0.13333333,0,0,-0.13333333,0,814.66667)" /><path
       id="path56"
       d="m 1010,2400 h 20 v 200 h -20"
       style="fill:none;stroke:#000000;stroke-width:10;stroke-linecap:butt;stroke-linejoin:miter;stroke-miterlimit:10;stroke-dasharray:none;stroke-opacity:1"
       transform="matrix(0.13333333,0,0,-0.13333333,0,814.66667)" /><path
       id="path57"
       d="m 100.18407,516.48431 h 3 c 1.95313,0 3.17188,-1.46875 3.17188,-3.89062 0,-2.42188 -1.20313,-3.89063 -3.17188,-3.89063 h -3 z m 0.98438,-0.875 v -6.03125 h 1.84375 c 1.53125,0 2.34375,1.03125 2.34375,3.01563 0,1.96875 -0.8125,3.01562 -2.34375,3.01562 z m 7.59375,-1.84375 1.28125,-1.26562 2.73437,3.98437 h 1.17188 l -3.1875,-4.60937 3.15625,-3.17188 h -1.28125 l -3.875,3.9375 v -3.9375 h -0.98438 v 7.78125 h 0.98438 z m -2.64063,6.9375 h -0.9375 v 6.35938 l -4.06249,-6.35938 h -1.07813 v 7.78125 h 0.9375 v -6.3125 l 4.03125,6.3125 h 1.10937 z m 4.96875,-0.125 c -2.23437,0 -3.75,1.64063 -3.75,4.07813 0,2.4375 1.51563,4.07812 3.75,4.07812 0.9375,0 1.78126,-0.29687 2.42188,-0.82812 0.84375,-0.71875 1.34375,-1.92188 1.34375,-3.1875 0,-2.51563 -1.48437,-4.14063 -3.76563,-4.14063 z m 0,0.875 c 1.6875,0 2.76563,1.28125 2.76563,3.25 0,1.875 -1.10937,3.15625 -2.76563,3.15625 -1.64062,0 -2.76562,-1.28125 -2.76562,-3.20312 0,-1.92188 1.125,-3.20313 2.76562,-3.20313 z m 0,0"
       style="fill:#000000;fill-opacity:1;fill-rule:nonzero;stroke:none;stroke-width:1.33333"
       aria-label=" DK        &#10; NO        " /><path
       id="path58"
       d="m 950,2180 h 50 v 90 h -50"
       style="fill:none;stroke:#000000;stroke-width:10;stroke-linecap:butt;stroke-linejoin:miter;stroke-miterlimit:10;stroke-dasharray:none;stroke-opacity:1"
       transform="matrix(0.13333333,0,0,-0.13333333,0,814.66667)" /><path
       id="path59"
       d="m 1000,2220 h 40 v 280 h -10"
       style="fill:none;stroke:#000000;stroke-width:10;stroke-linecap:butt;stroke-linejoin:miter;stroke-miterlimit:10;stroke-dasharray:none;stroke-opacity:1"
       transform="matrix(0.13333333,0,0,-0.13333333,0,814.66667)" /><path
       id="path60"
       d="m 106.12157,532.70306 h -0.9375 v 6.35938 l -4.06249,-6.35938 h -1.07813 v 7.78125 h 0.9375 v -6.3125 l 4.03125,6.3125 h 1.10937 z m 2.65625,0 h -0.98437 v 7.78125 h 4.82813 v -0.875 h -3.84376 z m -2.48437,14.40625 c -0.3125,-1.70312 -1.28125,-2.53125 -3,-2.53125 -1.04688,0 -1.89062,0.32813 -2.46875,0.96875 -0.70313,0.76563 -1.078125,1.875 -1.078125,3.14063 0,1.28125 0.390625,2.375 1.125005,3.14062 0.59375,0.60938 1.37499,0.90625 2.37499,0.90625 1.90625,0 2.96875,-1.03125 3.20313,-3.09375 h -1.01563 c -0.0937,0.53125 -0.1875,0.90625 -0.35937,1.21875 -0.3125,0.625 -0.98438,1 -1.8125,1 -1.54688,0 -2.53125,-1.25 -2.53125,-3.1875 0,-2 0.9375,-3.21875 2.45312,-3.21875 0.625,0 1.21875,0.1875 1.53125,0.48438 0.29688,0.26562 0.45313,0.60937 0.5625,1.17187 z m 6.51563,1.82813 v 3.54687 h 1 v -7.78125 h -1 v 3.35938 h -4.00001 v -3.35938 h -0.98437 v 7.78125 h 1 v -3.54687 z m 0,0"
       style="fill:#000000;fill-opacity:1;fill-rule:nonzero;stroke:none;stroke-width:1.33333"
       aria-label=" NL        &#10; CH        " /><path
       id="path61"
       d="m 950,2000 h 30 v 90 h -30"
       style="fill:none;stroke:#000000;stroke-width:10;stroke-linecap:butt;stroke-linejoin:miter;stroke-miterlimit:10;stroke-dasharray:none;stroke-opacity:1"
       transform="matrix(0.13333333,0,0,-0.13333333,0,814.66667)" /><path
       id="path62"
       d="m 105.59032,558.98431 c -0.0156,-1.51562 -1.0625,-2.40625 -2.84375,-2.40625 -1.71874,0 -2.76562,0.875 -2.76562,2.28125 0,0.95313 0.5,1.54688 1.51563,1.8125 l 1.93749,0.51563 c 0.98438,0.25 1.4375,0.65625 1.4375,1.26562 0,0.40625 -0.23437,0.84375 -0.5625,1.07813 -0.3125,0.20312 -0.79687,0.32812 -1.42187,0.32812 -0.84375,0 -1.42187,-0.20312 -1.79687,-0.65625 -0.29688,-0.34375 -0.42188,-0.71875 -0.40625,-1.1875 h -0.937505 c 0,0.70313 0.140625,1.17188 0.453125,1.60938 0.53125,0.71875 1.4375,1.10937 2.60937,1.10937 0.9375,0 1.6875,-0.21875 2.20313,-0.60937 0.51562,-0.40625 0.84375,-1.10938 0.84375,-1.78125 0,-0.95313 -0.59375,-1.65625 -1.65625,-1.95313 l -1.95313,-0.51562 c -0.93749,-0.25 -1.28124,-0.5625 -1.28124,-1.15625 0,-0.78125 0.70312,-1.3125 1.74999,-1.3125 1.23438,0 1.92188,0.5625 1.9375,1.57812 z m 2.70704,1.95313 h 4.23437 v -0.875 h -4.23437 v -2.48438 h 4.39062 v -0.875 h -5.39062 v 7.78125 h 5.59375 v -0.875 h -4.59375 z m 0,0"
       style="fill:#000000;fill-opacity:1;fill-rule:nonzero;stroke:none;stroke-width:1.33333"
       aria-label=" SE        " /><path
       id="path63"
       d="m 950,1910 h 70 v 130 h -40"
       style="fill:none;stroke:#000000;stroke-width:10;stroke-linecap:butt;stroke-linejoin:miter;stroke-miterlimit:10;stroke-dasharray:none;stroke-opacity:1"
       transform="matrix(0.13333333,0,0,-0.13333333,0,814.66667)" /><path
       id="path64"
       d="m 101.1997,573.18744 h 2.4375 c 0.60937,0 1.09375,-0.1875 1.5,-0.5625 0.46875,-0.42188 0.67187,-0.92188 0.67187,-1.64063 0,-1.45312 -0.85937,-2.28125 -2.39062,-2.28125 h -3.21875 v 7.78125 h 1 z m 0,-0.875 v -2.73438 h 2.0625 c 0.95312,0 1.51562,0.51563 1.51562,1.375 0,0.84375 -0.5625,1.35938 -1.51562,1.35938 z m 6.98828,-3.60938 h -0.98437 v 7.78125 h 4.82812 v -0.875 h -3.84375 z m -6.97265,16.4375 h 2.56249 c 0.89063,0 1.28125,0.42188 1.28125,1.375 l -0.0156,0.70313 c 0,0.46875 0.0937,0.95312 0.23437,1.26562 h 1.20313 v -0.25 c -0.375,-0.25 -0.45313,-0.53125 -0.46875,-1.5625 -0.0156,-1.28125 -0.21875,-1.67187 -1.0625,-2.03125 0.875,-0.42187 1.23437,-0.96875 1.23437,-1.85937 0,-1.34375 -0.84375,-2.07813 -2.375,-2.07813 h -3.57812 v 7.78125 h 0.98438 z m 0,-0.875 v -2.6875 h 2.40624 c 0.54688,0 0.875,0.0937 1.10938,0.29688 0.28125,0.23437 0.40625,0.57812 0.40625,1.04687 0,0.92188 -0.46875,1.34375 -1.51563,1.34375 z m 11.60937,-3.5625 v 5.46875 c 0,1.04688 -0.75,1.6875 -2,1.6875 -0.57813,0 -1.04688,-0.14062 -1.42188,-0.40625 -0.39062,-0.29687 -0.5625,-0.70312 -0.5625,-1.28125 v -5.46875 h -1 v 5.46875 c 0,1.57813 1.125,2.5625 2.98438,2.5625 1.8125,0 3,-1 3,-2.5625 v -5.46875 z m 0,0"
       style="fill:#000000;fill-opacity:1;fill-rule:nonzero;stroke:none;stroke-width:1.33333"
       aria-label=" PL        &#10; RU        " /><path
       id="path65"
       d="m 950,1730 h 50 v 90 h -50"
       style="fill:none;stroke:#000000;stroke-width:10;stroke-linecap:butt;stroke-linejoin:miter;stroke-miterlimit:10;stroke-dasharray:none;stroke-opacity:1"
       transform="matrix(0.13333333,0,0,-0.13333333,0,814.66667)" /><path
       id="path66"
       d="m 1000,1770 h 60 v 200 h -40"
       style="fill:none;stroke:#000000;stroke-width:10;stroke-linecap:butt;stroke-linejoin:miter;stroke-miterlimit:10;stroke-dasharray:none;stroke-opacity:1"
       transform="matrix(0.13333333,0,0,-0.13333333,0,814.66667)" /><path
       id="path67"
       d="m 1060,1870 h 20 v 490 h -40"
       style="fill:none;stroke:#000000;stroke-width:10;stroke-linecap:butt;stroke-linejoin:miter;stroke-miterlimit:10;stroke-dasharray:none;stroke-opacity:1"
       transform="matrix(0.13333333,0,0,-0.13333333,0,814.66667)" /><path
       id="path68"
       d="m 101.18408,596.93744 h 3.71874 v -0.875 h -3.71874 v -2.48438 h 4.21874 v -0.875 h -5.21875 v 7.78125 h 1.00001 z m 6.55078,0.20312 h 2.5625 c 0.89062,0 1.28125,0.42188 1.28125,1.375 l -0.0156,0.70313 c 0,0.46875 0.0937,0.95312 0.23438,1.26562 h 1.20312 v -0.25 c -0.375,-0.25 -0.45312,-0.53125 -0.46875,-1.5625 -0.0156,-1.28125 -0.21875,-1.67187 -1.0625,-2.03125 0.875,-0.42187 1.23438,-0.96875 1.23438,-1.85937 0,-1.34375 -0.84375,-2.07813 -2.375,-2.07813 h -3.57813 v 7.78125 h 0.98438 z m 0,-0.875 v -2.6875 h 2.40625 c 0.54687,0 0.875,0.0937 1.10937,0.29688 0.28125,0.23437 0.40625,0.57812 0.40625,1.04687 0,0.92188 -0.46875,1.34375 -1.51562,1.34375 z m -7.55079,16.21875 h 3 c 1.95313,0 3.17188,-1.46875 3.17188,-3.89062 0,-2.42188 -1.20313,-3.89063 -3.17188,-3.89063 h -3 z m 0.98438,-0.875 v -6.03125 h 1.84375 c 1.53125,0 2.34375,1.03125 2.34375,3.01563 0,1.96875 -0.8125,3.01562 -2.34375,3.01562 z m 7.71875,-2.67187 h 4.23438 v -0.875 h -4.23438 v -2.48438 h 4.39062 v -0.875 h -5.39062 v 7.78125 h 5.59375 v -0.875 h -4.59375 z m 0,0"
       style="fill:#000000;fill-opacity:1;fill-rule:nonzero;stroke:none;stroke-width:1.33333"
       aria-label=" FR        &#10; DE        " /><path
       id="path69"
       d="m 950,1550 h 50 v 90 h -50"
       style="fill:none;stroke:#000000;stroke-width:10;stroke-linecap:butt;stroke-linejoin:miter;stroke-miterlimit:10;stroke-dasharray:none;stroke-opacity:1"
       transform="matrix(0.13333333,0,0,-0.13333333,0,814.66667)" /><path
       id="path70"
       d="m 101.30908,616.70306 h -1.01563 v 7.78125 h 1.01563 z m 4.66796,0.875 h 2.54688 v -0.875 h -6.10938 v 0.875 h 2.5625 v 6.90625 h 1 z m 0,0"
       style="fill:#000000;fill-opacity:1;fill-rule:nonzero;stroke:none;stroke-width:1.33333"
       aria-label=" IT        " /><path
       id="path71"
       d="m 950,1460 h 70 v 130 h -20"
       style="fill:none;stroke:#000000;stroke-width:10;stroke-linecap:butt;stroke-linejoin:miter;stroke-miterlimit:10;stroke-dasharray:none;stroke-opacity:1"
       transform="matrix(0.13333333,0,0,-0.13333333,0,814.66667)" /><path
       id="path72"
       d="m 106.79345,632.37494 h -3.23438 v 0.875 h 2.35938 v 0.21875 c 0,1.39062 -1.01563,2.39062 -2.4375,2.39062 -0.79688,0 -1.5,-0.29687 -1.96875,-0.79687 -0.51562,-0.54688 -0.8125,-1.48438 -0.8125,-2.4375 0,-1.92188 1.07812,-3.17188 2.71875,-3.17188 1.1875,0 2.04687,0.60938 2.26562,1.60938 h 1 c -0.26562,-1.57813 -1.46875,-2.48438 -3.25,-2.48438 -0.95312,0 -1.71875,0.25 -2.32812,0.75 -0.89063,0.75 -1.40625,1.95313 -1.40625,3.34375 0,2.39063 1.46875,4.0625 3.5625,4.0625 1.0625,0 1.90625,-0.40625 2.65625,-1.25 l 0.25,1.04688 h 0.625 z m 1.58203,4.10937 h 3.51563 c 0.73437,0 1.28125,-0.20312 1.6875,-0.65625 0.39062,-0.40625 0.60937,-0.95312 0.60937,-1.5625 0,-0.9375 -0.4375,-1.5 -1.42187,-1.89062 0.70312,-0.32813 1.07812,-0.90625 1.07812,-1.70313 0,-0.5625 -0.21875,-1.0625 -0.625,-1.42187 -0.40625,-0.375 -0.9375,-0.54688 -1.6875,-0.54688 h -3.15625 z m 0.98438,-4.42187 v -2.48438 h 1.92187 c 0.5625,0 0.875,0.0781 1.14063,0.28125 0.28125,0.21875 0.42187,0.53125 0.42187,0.95313 0,0.42187 -0.14062,0.75 -0.42187,0.96875 -0.26563,0.20312 -0.57813,0.28125 -1.14063,0.28125 z m 0,3.54687 v -2.67187 h 2.4375 c 0.46875,0 0.79687,0.10937 1.03125,0.35937 0.23437,0.25 0.35937,0.59375 0.35937,0.98438 0,0.375 -0.125,0.70312 -0.35937,0.95312 -0.23438,0.25 -0.5625,0.375 -1.03125,0.375 z m 0,0"
       style="fill:#000000;fill-opacity:1;fill-rule:nonzero;stroke:none;stroke-width:1.33333"
       aria-label=" GB        " /><path
       id="path73"
       d="m 950,1370 h 90 v 150 h -20"
       style="fill:none;stroke:#000000;stroke-width:10;stroke-linecap:butt;stroke-linejoin:miter;stroke-miterlimit:10;stroke-dasharray:none;stroke-opacity:1"
       transform="matrix(0.13333333,0,0,-0.13333333,0,814.66667)" /><path
       id="path74"
       d="m 103.3872,640.57806 c -2.23437,0 -3.75,1.64063 -3.75,4.07813 0,2.4375 1.51563,4.07812 3.75,4.07812 0.9375,0 1.78125,-0.29687 2.42187,-0.82812 0.84375,-0.71875 1.34375,-1.92188 1.34375,-3.1875 0,-2.51563 -1.48437,-4.14063 -3.76562,-4.14063 z m 0,0.875 c 1.6875,0 2.76562,1.28125 2.76562,3.25 0,1.875 -1.10937,3.15625 -2.76562,3.15625 -1.64063,0 -2.76562,-1.28125 -2.76562,-3.20312 0,-1.92188 1.12499,-3.20313 2.76562,-3.20313 z m 7.92578,0.125 h 2.54688 v -0.875 h -6.10938 v 0.875 h 2.5625 v 6.90625 h 1 z m 8.60938,3.35938 v 3.54687 h 1 v -7.78125 h -1 v 3.35938 h -4 v -3.35938 h -0.98438 v 7.78125 h 1 v -3.54687 z m 0,0"
       style="fill:#000000;fill-opacity:1;fill-rule:nonzero;stroke:none;stroke-width:1.33333"
       aria-label=" OTH       " /><path
       id="path75"
       d="m 950,1280 h 150 v 160 h -60"
       style="fill:none;stroke:#000000;stroke-width:10;stroke-linecap:butt;stroke-linejoin:miter;stroke-miterlimit:10;stroke-dasharray:none;stroke-opacity:1"
       transform="matrix(0.13333333,0,0,-0.13333333,0,814.66667)" /><path
       id="path76"
       d="m 1100,1360 h 200 v 750 h -220"
       style="fill:none;stroke:#000000;stroke-width:10;stroke-linecap:butt;stroke-linejoin:miter;stroke-miterlimit:10;stroke-dasharray:none;stroke-opacity:1"
       transform="matrix(0.13333333,0,0,-0.13333333,0,814.66667)" /><path
       id="path77"
       d="m 101.30908,652.70306 h -1.01563 v 7.78125 h 1.01563 z m 2.83984,4.23438 h 4.23437 v -0.875 h -4.23437 v -2.48438 h 4.39062 v -0.875 h -5.39062 v 7.78125 h 5.59375 v -0.875 h -4.59375 z m -2.94922,12.25 h 2.4375 c 0.60937,0 1.09375,-0.1875 1.5,-0.5625 0.46875,-0.42188 0.67187,-0.92188 0.67187,-1.64063 0,-1.45312 -0.85937,-2.28125 -2.39062,-2.28125 h -3.21875 v 7.78125 h 1 z m 0,-0.875 v -2.73438 h 2.0625 c 0.95312,0 1.51562,0.51563 1.51562,1.375 0,0.84375 -0.5625,1.35938 -1.51562,1.35938 z m 8.92578,-2.73438 h 2.54688 v -0.875 h -6.10938 v 0.875 h 2.5625 v 6.90625 h 1 z m 0,0"
       style="fill:#000000;fill-opacity:1;fill-rule:nonzero;stroke:none;stroke-width:1.33333"
       aria-label=" IE        &#10; PT        " /><path
       id="path78"
       d="m 950,1100 h 70 v 90 h -70"
       style="fill:none;stroke:#000000;stroke-width:10;stroke-linecap:butt;stroke-linejoin:miter;stroke-miterlimit:10;stroke-dasharray:none;stroke-opacity:1"
       transform="matrix(0.13333333,0,0,-0.13333333,0,814.66667)" /><path
       id="path79"
       d="m 105.10595,680.93744 v 3.54687 h 1 v -7.78125 h -1 v 3.35938 h -4 v -3.35938 h -0.98438 v 7.78125 h 1.00001 v -3.54687 z m 3.8125,0.20312 h 2.5625 c 0.89062,0 1.28125,0.42188 1.28125,1.375 l -0.0156,0.70313 c 0,0.46875 0.0937,0.95312 0.23438,1.26562 h 1.20312 v -0.25 c -0.375,-0.25 -0.45312,-0.53125 -0.46875,-1.5625 -0.0156,-1.28125 -0.21875,-1.67187 -1.0625,-2.03125 0.875,-0.42187 1.23438,-0.96875 1.23438,-1.85937 0,-1.34375 -0.84375,-2.07813 -2.375,-2.07813 h -3.57813 v 7.78125 h 0.98438 z m 0,-0.875 v -2.6875 h 2.40625 c 0.54687,0 0.875,0.0937 1.10937,0.29688 0.28125,0.23437 0.40625,0.57812 0.40625,1.04687 0,0.92188 -0.46875,1.34375 -1.51562,1.34375 z m -3.32813,10.71875 c -0.0156,-1.51562 -1.0625,-2.40625 -2.84375,-2.40625 -1.71874,0 -2.76562,0.875 -2.76562,2.28125 0,0.95313 0.5,1.54688 1.51563,1.8125 l 1.93749,0.51563 c 0.98438,0.25 1.4375,0.65625 1.4375,1.26562 0,0.40625 -0.23437,0.84375 -0.5625,1.07813 -0.3125,0.20312 -0.79687,0.32812 -1.42187,0.32812 -0.84375,0 -1.42187,-0.20312 -1.79687,-0.65625 -0.29688,-0.34375 -0.42188,-0.71875 -0.40625,-1.1875 h -0.937505 c 0,0.70313 0.140625,1.17188 0.453125,1.60938 0.53125,0.71875 1.4375,1.10937 2.60937,1.10937 0.9375,0 1.6875,-0.21875 2.20313,-0.60937 0.51562,-0.40625 0.84375,-1.10938 0.84375,-1.78125 0,-0.95313 -0.59375,-1.65625 -1.65625,-1.95313 l -1.95313,-0.51562 c -0.93749,-0.25 -1.28124,-0.5625 -1.28124,-1.15625 0,-0.78125 0.70312,-1.3125 1.74999,-1.3125 1.23438,0 1.92188,0.5625 1.9375,1.57812 z m 2.83204,-2.28125 h -1.01563 v 7.78125 h 1.01563 z m 0,0"
       style="fill:#000000;fill-opacity:1;fill-rule:nonzero;stroke:none;stroke-width:1.33333"
       aria-label=" HR        &#10; SI        " /><path
       id="path80"
       d="m 950,920 h 60 v 90 h -60"
       style="fill:none;stroke:#000000;stroke-width:10;stroke-linecap:butt;stroke-linejoin:miter;stroke-miterlimit:10;stroke-dasharray:none;stroke-opacity:1"
       transform="matrix(0.13333333,0,0,-0.13333333,0,814.66667)" /><path
       id="path81"
       d="m 1010,960 h 20 v 180 h -10"
       style="fill:none;stroke:#000000;stroke-width:10;stroke-linecap:butt;stroke-linejoin:miter;stroke-miterlimit:10;stroke-dasharray:none;stroke-opacity:1"
       transform="matrix(0.13333333,0,0,-0.13333333,0,814.66667)" /><path
       id="path82"
       d="m 100.0747,708.48431 h 3.51562 c 0.73438,0 1.28125,-0.20312 1.6875,-0.65625 0.39063,-0.40625 0.60938,-0.95312 0.60938,-1.5625 0,-0.9375 -0.4375,-1.5 -1.42188,-1.89062 0.70313,-0.32813 1.07813,-0.90625 1.07813,-1.70313 0,-0.5625 -0.21875,-1.0625 -0.625,-1.42187 -0.40625,-0.375 -0.9375,-0.54688 -1.6875,-0.54688 h -3.15625 z m 0.98438,-4.42187 v -2.48438 h 1.92187 c 0.5625,0 0.875,0.0781 1.14062,0.28125 0.28125,0.21875 0.42188,0.53125 0.42188,0.95313 0,0.42187 -0.14063,0.75 -0.42188,0.96875 -0.26562,0.20312 -0.57812,0.28125 -1.14062,0.28125 z m 0,3.54687 v -2.67187 h 2.43749 c 0.46875,0 0.79688,0.10937 1.03125,0.35937 0.23438,0.25 0.35938,0.59375 0.35938,0.98438 0,0.375 -0.125,0.70312 -0.35938,0.95312 -0.23437,0.25 -0.5625,0.375 -1.03125,0.375 z m 12.84765,-3.23437 h -3.23437 v 0.875 h 2.35937 v 0.21875 c 0,1.39062 -1.01562,2.39062 -2.4375,2.39062 -0.79687,0 -1.5,-0.29687 -1.96875,-0.79687 -0.51562,-0.54688 -0.8125,-1.48438 -0.8125,-2.4375 0,-1.92188 1.07813,-3.17188 2.71875,-3.17188 1.1875,0 2.04688,0.60938 2.26563,1.60938 h 1 c -0.26563,-1.57813 -1.46875,-2.48438 -3.25,-2.48438 -0.95313,0 -1.71875,0.25 -2.32813,0.75 -0.89062,0.75 -1.40625,1.95313 -1.40625,3.34375 0,2.39063 1.46875,4.0625 3.5625,4.0625 1.0625,0 1.90625,-0.40625 2.65625,-1.25 l 0.25,1.04688 h 0.625 z m -8.78516,8.32812 v 5.46875 c 0,1.04688 -0.75,1.6875 -2,1.6875 -0.57812,0 -1.04687,-0.14062 -1.42187,-0.40625 -0.39062,-0.29687 -0.5625,-0.70312 -0.5625,-1.28125 v -5.46875 h -1 v 5.46875 c 0,1.57813 1.125,2.5625 2.98437,2.5625 1.8125,0 3,-1 3,-2.5625 v -5.46875 z m 6.875,5.4375 0.79688,2.34375 h 1.10937 l -2.73437,-7.78125 h -1.28125 l -2.76563,7.78125 h 1.04688 l 0.82812,-2.34375 z m -0.28125,-0.82812 h -2.46875 l 1.26563,-3.54688 z m 0,0"
       style="fill:#000000;fill-opacity:1;fill-rule:nonzero;stroke:none;stroke-width:1.33333"
       aria-label=" BG        &#10; UA        " /><path
       id="path83"
       d="m 950,740 h 50 v 90 h -50"
       style="fill:none;stroke:#000000;stroke-width:10;stroke-linecap:butt;stroke-linejoin:miter;stroke-miterlimit:10;stroke-dasharray:none;stroke-opacity:1"
       transform="matrix(0.13333333,0,0,-0.13333333,0,814.66667)" /><path
       id="path84"
       d="m 1000,780 h 40 v 270 h -10"
       style="fill:none;stroke:#000000;stroke-width:10;stroke-linecap:butt;stroke-linejoin:miter;stroke-miterlimit:10;stroke-dasharray:none;stroke-opacity:1"
       transform="matrix(0.13333333,0,0,-0.13333333,0,814.66667)" /><path
       id="path85"
       d="m 106.79345,728.37494 h -3.23438 v 0.875 h 2.35938 v 0.21875 c 0,1.39062 -1.01563,2.39062 -2.4375,2.39062 -0.79688,0 -1.5,-0.29687 -1.96875,-0.79687 -0.51562,-0.54688 -0.8125,-1.48438 -0.8125,-2.4375 0,-1.92188 1.07812,-3.17188 2.71875,-3.17188 1.1875,0 2.04687,0.60938 2.26562,1.60938 h 1 c -0.26562,-1.57813 -1.46875,-2.48438 -3.25,-2.48438 -0.95312,0 -1.71875,0.25 -2.32812,0.75 -0.89063,0.75 -1.40625,1.95313 -1.40625,3.34375 0,2.39063 1.46875,4.0625 3.5625,4.0625 1.0625,0 1.90625,-0.40625 2.65625,-1.25 l 0.25,1.04688 h 0.625 z m 2.72266,0.76562 h 2.5625 c 0.89062,0 1.28125,0.42188 1.28125,1.375 l -0.0156,0.70313 c 0,0.46875 0.0937,0.95312 0.23437,1.26562 h 1.20313 v -0.25 c -0.375,-0.25 -0.45313,-0.53125 -0.46875,-1.5625 -0.0156,-1.28125 -0.21875,-1.67187 -1.0625,-2.03125 0.875,-0.42187 1.23438,-0.96875 1.23438,-1.85937 0,-1.34375 -0.84376,-2.07813 -2.37501,-2.07813 h -3.57812 v 7.78125 h 0.98438 z m 0,-0.875 v -2.6875 h 2.40625 c 0.54687,0 0.875,0.0937 1.10937,0.29688 0.28125,0.23437 0.40625,0.57812 0.40625,1.04687 0,0.92188 -0.46875,1.34375 -1.51562,1.34375 z m -3.92579,10.71875 c -0.0156,-1.51562 -1.0625,-2.40625 -2.84375,-2.40625 -1.71874,0 -2.76562,0.875 -2.76562,2.28125 0,0.95313 0.5,1.54688 1.51563,1.8125 l 1.93749,0.51563 c 0.98438,0.25 1.4375,0.65625 1.4375,1.26562 0,0.40625 -0.23437,0.84375 -0.5625,1.07813 -0.3125,0.20312 -0.79687,0.32812 -1.42187,0.32812 -0.84375,0 -1.42187,-0.20312 -1.79687,-0.65625 -0.29688,-0.34375 -0.42188,-0.71875 -0.40625,-1.1875 h -0.937505 c 0,0.70313 0.140625,1.17188 0.453125,1.60938 0.53125,0.71875 1.4375,1.10937 2.60937,1.10937 0.9375,0 1.6875,-0.21875 2.20313,-0.60937 0.51562,-0.40625 0.84375,-1.10938 0.84375,-1.78125 0,-0.95313 -0.59375,-1.65625 -1.65625,-1.95313 l -1.95313,-0.51562 c -0.93749,-0.25 -1.28124,-0.5625 -1.28124,-1.15625 0,-0.78125 0.70312,-1.3125 1.74999,-1.3125 1.23438,0 1.92188,0.5625 1.9375,1.57812 z m 2.58204,2.78125 1.28125,-1.26562 2.73437,3.98437 h 1.17188 l -3.1875,-4.60937 3.15625,-3.17188 h -1.28125 l -3.875,3.9375 v -3.9375 h -0.98438 v 7.78125 h 0.98438 z m 0,0"
       style="fill:#000000;fill-opacity:1;fill-rule:nonzero;stroke:none;stroke-width:1.33333"
       aria-label=" GR        &#10; SK        " /><path
       id="path86"
       d="m 950,560 h 50 v 90 h -50"
       style="fill:none;stroke:#000000;stroke-width:10;stroke-linecap:butt;stroke-linejoin:miter;stroke-miterlimit:10;stroke-dasharray:none;stroke-opacity:1"
       transform="matrix(0.13333333,0,0,-0.13333333,0,814.66667)" /><path
       id="path87"
       d="m 105.10595,752.93744 v 3.54687 h 1 v -7.78125 h -1 v 3.35938 h -4 v -3.35938 h -0.98438 v 7.78125 h 1.00001 v -3.54687 z m 7.71875,-4.23438 v 5.46875 c 0,1.04688 -0.75,1.6875 -2,1.6875 -0.57813,0 -1.04688,-0.14062 -1.42188,-0.40625 -0.39062,-0.29687 -0.5625,-0.70312 -0.5625,-1.28125 v -5.46875 h -1 v 5.46875 c 0,1.57813 1.125,2.5625 2.98438,2.5625 1.8125,0 3,-1 3,-2.5625 v -5.46875 z m 0,0"
       style="fill:#000000;fill-opacity:1;fill-rule:nonzero;stroke:none;stroke-width:1.33333"
       aria-label=" HU        " /><path
       id="path88"
       d="m 950,470 h 60 v 130 h -10"
       style="fill:none;stroke:#000000;stroke-width:10;stroke-linecap:butt;stroke-linejoin:miter;stroke-miterlimit:10;stroke-dasharray:none;stroke-opacity:1"
       transform="matrix(0.13333333,0,0,-0.13333333,0,814.66667)" /><path
       id="path89"
       d="m 1010,530 h 40 v 380 h -10"
       style="fill:none;stroke:#000000;stroke-width:10;stroke-linecap:butt;stroke-linejoin:miter;stroke-miterlimit:10;stroke-dasharray:none;stroke-opacity:1"
       transform="matrix(0.13333333,0,0,-0.13333333,0,814.66667)" /><path
       id="path90"
       d="m 101.21533,765.14056 h 2.56249 c 0.89063,0 1.28125,0.42188 1.28125,1.375 l -0.0156,0.70313 c 0,0.46875 0.0937,0.95312 0.23437,1.26562 h 1.20313 v -0.25 c -0.375,-0.25 -0.45313,-0.53125 -0.46875,-1.5625 -0.0156,-1.28125 -0.21875,-1.67187 -1.0625,-2.03125 0.875,-0.42187 1.23437,-0.96875 1.23437,-1.85937 0,-1.34375 -0.84375,-2.07813 -2.375,-2.07813 h -3.57812 v 7.78125 h 0.98438 z m 0,-0.875 v -2.6875 h 2.40624 c 0.54688,0 0.875,0.0937 1.10938,0.29688 0.28125,0.23437 0.40625,0.57812 0.40625,1.04687 0,0.92188 -0.46875,1.34375 -1.51563,1.34375 z m 9.87499,-3.6875 c -2.23437,0 -3.75,1.64063 -3.75,4.07813 0,2.4375 1.51563,4.07812 3.75,4.07812 0.9375,0 1.78126,-0.29687 2.42188,-0.82812 0.84375,-0.71875 1.34375,-1.92188 1.34375,-3.1875 0,-2.51563 -1.48437,-4.14063 -3.76563,-4.14063 z m 0,0.875 c 1.6875,0 2.76563,1.28125 2.76563,3.25 0,1.875 -1.10937,3.15625 -2.76563,3.15625 -1.64062,0 -2.76562,-1.28125 -2.76562,-3.20312 0,-1.92188 1.125,-3.20313 2.76562,-3.20313 z m -8.07812,12.125 h 2.54687 v -0.875 H 99.4497 v 0.875 h 2.5625 v 6.90625 h 1 z m 4.72266,3.5625 h 2.5625 c 0.89062,0 1.28125,0.42188 1.28125,1.375 l -0.0156,0.70313 c 0,0.46875 0.0937,0.95312 0.23438,1.26562 h 1.20312 v -0.25 c -0.375,-0.25 -0.45312,-0.53125 -0.46875,-1.5625 -0.0156,-1.28125 -0.21875,-1.67187 -1.0625,-2.03125 0.875,-0.42187 1.23438,-0.96875 1.23438,-1.85937 0,-1.34375 -0.84375,-2.07813 -2.375,-2.07813 h -3.57813 v 7.78125 h 0.98438 z m 0,-0.875 v -2.6875 h 2.40625 c 0.54687,0 0.875,0.0937 1.10937,0.29688 0.28125,0.23437 0.40625,0.57812 0.40625,1.04687 0,0.92188 -0.46875,1.34375 -1.51562,1.34375 z m 0,0"
       style="fill:#000000;fill-opacity:1;fill-rule:nonzero;stroke:none;stroke-width:1.33333"
       aria-label=" RO        &#10; TR        " /><path
       id="path91"
       d="m 950,290 h 70 v 90 h -70"
       style="fill:none;stroke:#000000;stroke-width:10;stroke-linecap:butt;stroke-linejoin:miter;stroke-miterlimit:10;stroke-dasharray:none;stroke-opacity:1"
       transform="matrix(0.13333333,0,0,-0.13333333,0,814.66667)" /><path
       id="path92"
       d="m 101.21533,789.14056 h 2.56249 c 0.89063,0 1.28125,0.42188 1.28125,1.375 l -0.0156,0.70313 c 0,0.46875 0.0937,0.95312 0.23437,1.26562 h 1.20313 v -0.25 c -0.375,-0.25 -0.45313,-0.53125 -0.46875,-1.5625 -0.0156,-1.28125 -0.21875,-1.67187 -1.0625,-2.03125 0.875,-0.42187 1.23437,-0.96875 1.23437,-1.85937 0,-1.34375 -0.84375,-2.07813 -2.375,-2.07813 h -3.57812 v 7.78125 h 0.98438 z m 0,-0.875 v -2.6875 h 2.40624 c 0.54688,0 0.875,0.0937 1.10938,0.29688 0.28125,0.23437 0.40625,0.57812 0.40625,1.04687 0,0.92188 -0.46875,1.34375 -1.51563,1.34375 z m 12.07812,-1.28125 c -0.0156,-1.51562 -1.0625,-2.40625 -2.84375,-2.40625 -1.71875,0 -2.76563,0.875 -2.76563,2.28125 0,0.95313 0.5,1.54688 1.51563,1.8125 l 1.9375,0.51563 c 0.98437,0.25 1.4375,0.65625 1.4375,1.26562 0,0.40625 -0.23438,0.84375 -0.5625,1.07813 -0.3125,0.20312 -0.79688,0.32812 -1.42188,0.32812 -0.84375,0 -1.42187,-0.20312 -1.79687,-0.65625 -0.29688,-0.34375 -0.42188,-0.71875 -0.40625,-1.1875 h -0.9375 c 0,0.70313 0.14062,1.17188 0.45312,1.60938 0.53125,0.71875 1.4375,1.10937 2.60938,1.10937 0.9375,0 1.6875,-0.21875 2.20312,-0.60937 0.51563,-0.40625 0.84376,-1.10938 0.84376,-1.78125 0,-0.95313 -0.59376,-1.65625 -1.65626,-1.95313 l -1.95312,-0.51562 c -0.9375,-0.25 -1.28125,-0.5625 -1.28125,-1.15625 0,-0.78125 0.70312,-1.3125 1.75,-1.3125 1.23437,0 1.92187,0.5625 1.9375,1.57812 z m 0,0"
       style="fill:#000000;fill-opacity:1;fill-rule:nonzero;stroke:none;stroke-width:1.33333"
       aria-label=" RS        " /><path
       id="path93"
       d="m 950,200 h 80 v 130 h -10"
       style="fill:none;stroke:#000000;stroke-width:10;stroke-linecap:butt;stroke-linejoin:miter;stroke-miterlimit:10;stroke-dasharray:none;stroke-opacity:1"
       transform="matrix(0.13333333,0,0,-0.13333333,0,814.66667)" /><path
       id="path94"
       d="m 1030,260 h 40 v 460 h -20"
       style="fill:none;stroke:#000000;stroke-width:10;stroke-linecap:butt;stroke-linejoin:miter;stroke-miterlimit:10;stroke-dasharray:none;stroke-opacity:1"
       transform="matrix(0.13333333,0,0,-0.13333333,0,814.66667)" /><path
       id="path95"
       d="m 1070,490 h 650 v 1240 h -420"
       style="fill:none;stroke:#000000;stroke-width:10;stroke-linecap:butt;stroke-linejoin:miter;stroke-miterlimit:10;stroke-dasharray:none;stroke-opacity:1"
       transform="matrix(0.13333333,0,0,-0.13333333,0,814.66667)" /><path
       id="path96"
       d="M 1720,1110 H 4450 V 3810 H 1500"
       style="fill:none;stroke:#000000;stroke-width:10;stroke-linecap:butt;stroke-linejoin:miter;stroke-miterlimit:10;stroke-dasharray:none;stroke-opacity:1"
       transform="matrix(0.13333333,0,0,-0.13333333,0,814.66667)" /><path
       id="path97"
       d="m 4450,2460 v 0"
       style="fill:none;stroke:#000000;stroke-width:10;stroke-linecap:butt;stroke-linejoin:miter;stroke-miterlimit:10;stroke-dasharray:none;stroke-opacity:1"
       transform="matrix(0.13333333,0,0,-0.13333333,0,814.66667)" /><rect
       style="fill:#f9f9f9;stroke-width:3.64724"
       id="rect2"
       width="367.32336"
       height="47.520855"
       x="59.714943"
       y="18.445999" /></g></svg>
